<?xml version="1.0" standalone="no"?>
<!DOCTYPE svg PUBLIC "-//W3C//DTD SVG 1.1//EN" "http://www.w3.org/Graphics/SVG/1.1/DTD/svg11.dtd" >
<svg xmlns="http://www.w3.org/2000/svg" xmlns:xlink="http://www.w3.org/1999/xlink" version="1.1">
<metadata></metadata>
<defs>
<font id="qanelasregular" horiz-adv-x="1085" >
<font-face units-per-em="2048" ascent="1638" descent="-410" />
<missing-glyph horiz-adv-x="512" />
<glyph horiz-adv-x="0" />
<glyph horiz-adv-x="682" />
<glyph unicode=" "  horiz-adv-x="512" />
<glyph unicode="&#x09;" horiz-adv-x="512" />
<glyph unicode="&#xa0;" horiz-adv-x="512" />
<glyph unicode="!" horiz-adv-x="471" d="M143 0v184h185v-184h-185zM154 1024v410h163v-410l-30 -635h-103z" />
<glyph unicode="&#x22;" horiz-adv-x="634" d="M102 1434h144l-21 -410h-102zM389 1434h143l-20 -410h-102z" />
<glyph unicode="#" horiz-adv-x="1226" d="M61 471l21 123h246l41 246h-248l20 123h248l62 368h131l-62 -368h271l61 368h131l-61 -368h243l-20 -123h-244l-41 -246h246l-21 -123h-245l-62 -369h-131l62 369h-271l-61 -369h-131l61 369h-246zM459 594h270l41 246h-270z" />
<glyph unicode="$" horiz-adv-x="1126" d="M82 416h143q0 -125 75 -201t202 -94v557q-119 47 -201 95t-135 127t-53 194q0 156 112.5 252t276.5 110v182h123v-184q166 -20 277.5 -127.5t111.5 -277.5h-144q0 111 -67.5 179t-177.5 85v-539q131 -51 217 -99t144 -128t58 -195q0 -108 -56 -191t-152.5 -129 t-210.5 -55v-182h-123v185q-184 23 -302 137t-118 299zM256 1094q0 -95 64.5 -157.5t181.5 -113.5v494q-109 -12 -177.5 -69.5t-68.5 -153.5zM625 117q120 10 198 71.5t78 163.5q0 98 -72.5 163t-203.5 116v-514z" />
<glyph unicode="%" horiz-adv-x="1533" d="M123 1151q0 84 41 154.5t112.5 111.5t159.5 41t160 -41t113 -111.5t41 -154.5t-40 -154.5t-112 -111.5t-162 -41q-88 0 -159.5 41t-112.5 111.5t-41 154.5zM184 0l1006 1434h160l-1008 -1434h-158zM254 1151q0 -78 51 -131t131 -53t131 53t51 131t-51 131t-131 53 t-131 -53t-51 -131zM784 283q0 84 41 154.5t113 111.5t160 41t159.5 -41t112.5 -111.5t41 -154.5t-41 -155t-112.5 -112t-159.5 -41t-160 41t-113 112t-41 155zM915 283q0 -78 51.5 -131.5t131.5 -53.5t131 53.5t51 131.5t-51 131t-131 53t-131.5 -53.5t-51.5 -130.5z" />
<glyph unicode="&#x26;" horiz-adv-x="1339" d="M102 395q0 121 60.5 221.5t171.5 169.5q-55 61 -84 128t-29 155q0 117 58.5 206t155.5 136t210 47t213 -47t161.5 -139t61.5 -223h-143q0 133 -84 201.5t-209 68.5q-121 0 -200.5 -67.5t-79.5 -182.5q0 -68 34.5 -127t98.5 -123l497 -508q78 133 78 353h144 q0 -283 -121 -457l202 -207h-194l-103 104q-152 -129 -411 -129q-139 0 -250 52.5t-174.5 147.5t-63.5 220zM246 395q0 -125 95 -202.5t249 -77.5q196 0 311 90l-471 479q-94 -51 -139 -127t-45 -162z" />
<glyph unicode="'" horiz-adv-x="348" d="M102 1434h144l-21 -410h-102z" />
<glyph unicode="(" horiz-adv-x="544" d="M123 717q0 471 225 921h135q-225 -451 -225 -921q0 -471 225 -922h-135q-225 451 -225 922z" />
<glyph unicode=")" horiz-adv-x="544" d="M61 -205q225 451 226 922q0 471 -226 921h136q225 -451 225 -921q0 -471 -225 -922h-136z" />
<glyph unicode="*" horiz-adv-x="802" d="M123 1135v114l186 -6l-106 154l104 61l94 -166l95 166l104 -61l-106 -154l186 6v-114l-186 6l106 -154l-104 -61l-95 166l-94 -166l-104 61l106 154z" />
<glyph unicode="+" horiz-adv-x="1105" d="M123 651v131h364v365h131v-365h365v-131h-365v-364h-131v364h-364z" />
<glyph unicode="," horiz-adv-x="471" d="M143 0v184h185v-184q0 -115 -47.5 -183.5t-137.5 -82.5v82q45 16 69 54t24 130h-93z" />
<glyph unicode="-" horiz-adv-x="1064" d="M164 567v131h737v-131h-737z" />
<glyph unicode="." horiz-adv-x="471" d="M143 0v184h185v-184h-185z" />
<glyph unicode="/" d="M82 -205l819 1843h103l-820 -1843h-102z" />
<glyph unicode="0" horiz-adv-x="1290" d="M102 717q0 223 63.5 390t185.5 259t294 92t294 -92t185.5 -259t63.5 -390t-63.5 -390t-185.5 -259.5t-294 -92.5t-294 92.5t-185.5 259.5t-63.5 390zM246 717q0 -287 105.5 -444.5t293.5 -157.5q189 0 294 157.5t105 444.5t-105 444.5t-294 157.5q-188 0 -293.5 -157.5 t-105.5 -444.5z" />
<glyph unicode="1" horiz-adv-x="696" d="M31 1083v158l358 193h143v-1434h-143v1276z" />
<glyph unicode="2" horiz-adv-x="1075" d="M82 0v129l516 520q104 104 162.5 195.5t58.5 183.5q0 137 -85 214t-204 77q-133 0 -219 -71.5t-86 -219.5h-143q0 139 62.5 236.5t165 145.5t220.5 48q111 0 210.5 -50t161 -148.5t61.5 -231.5q0 -125 -70 -239.5t-197 -241.5l-409 -408h706v-139h-911z" />
<glyph unicode="3" d="M41 416h143q0 -143 95.5 -222t242.5 -79t242.5 78.5t95.5 222.5q0 143 -95 222t-243 79v2l-2 -2h-100v94l356 487h-674v136h840v-136l-334 -460q172 -23 284 -132.5t112 -289.5q0 -137 -67 -236.5t-176.5 -152t-238.5 -52.5t-238.5 52.5t-176 152t-66.5 236.5z" />
<glyph unicode="4" horiz-adv-x="1167" d="M51 287v135l533 1012h157l-532 -1012h600v438h143v-438h185v-135h-185v-287h-143v287h-758z" />
<glyph unicode="5" horiz-adv-x="1126" d="M82 416h143q0 -143 95.5 -222t242.5 -79t242.5 78.5t95.5 222.5q0 143 -95 222t-243 79h-409l51 717h788v-136h-657l-31 -442h258q129 0 238.5 -52t176 -151.5t66.5 -236.5t-66.5 -236.5t-176 -152t-238.5 -52.5t-238.5 52.5t-176 152t-66.5 236.5z" />
<glyph unicode="6" d="M61 449q0 162 89 286l468 699h162l-352 -525q55 12 115 13q137 0 246.5 -59.5t172 -168t62.5 -245.5t-62.5 -246t-172 -168.5t-246.5 -59.5t-247 59.5t-172.5 168t-62.5 246.5zM205 449q0 -150 93 -242t245 -92q151 0 244.5 92t93.5 242t-93.5 241.5t-244.5 91.5 q-152 0 -245 -92t-93 -241z" />
<glyph unicode="7" horiz-adv-x="1003" d="M41 1298v136h881v-136l-541 -1298h-150l541 1298h-731z" />
<glyph unicode="8" horiz-adv-x="1122" d="M82 389q0 117 64.5 208t172.5 142q-88 49 -139 132t-51 190q0 129 61.5 219t161 134t209.5 44q111 0 210 -44t160.5 -134t61.5 -219q0 -106 -51 -189.5t-139 -132.5q108 -51 172.5 -142t64.5 -208q0 -131 -64.5 -224t-173 -141.5t-241.5 -48.5t-241.5 48.5t-173 141.5 t-64.5 224zM225 389q0 -133 92.5 -203.5t243.5 -70.5q152 0 244 70.5t92 203.5t-92 204t-244 71t-244 -71t-92 -204zM272 1061q0 -123 85 -190.5t204 -67.5t204 67.5t85 190.5q0 131 -83 194.5t-206 63.5t-206 -63.5t-83 -194.5z" />
<glyph unicode="9" d="M61 985q0 137 62.5 245.5t172.5 168t247 59.5t246.5 -59.5t172 -168t62.5 -245.5q0 -162 -88 -287l-469 -698h-162l352 524q-55 -12 -114 -12q-137 0 -247 59.5t-172.5 168t-62.5 245.5zM205 985q0 -149 93 -241.5t245 -92.5t245 92.5t93 241.5q0 150 -93.5 242 t-244.5 92q-152 0 -245 -92t-93 -242z" />
<glyph unicode=":" horiz-adv-x="471" d="M143 0v184h185v-184h-185zM143 840v184h185v-184h-185z" />
<glyph unicode=";" horiz-adv-x="471" d="M143 0v184h185v-184q0 -115 -47.5 -183.5t-137.5 -82.5v82q45 16 69 54t24 130h-93zM143 840v184h185v-184h-185z" />
<glyph unicode="&#x3c;" horiz-adv-x="1064" d="M123 645v143l819 359v-152l-666 -278l666 -279v-151z" />
<glyph unicode="=" horiz-adv-x="1105" d="M123 446v132h860v-132h-860zM123 856v131h860v-131h-860z" />
<glyph unicode="&#x3e;" horiz-adv-x="1064" d="M123 287v151l665 279l-665 278v152l819 -359v-143z" />
<glyph unicode="?" horiz-adv-x="1095" d="M82 1049q0 131 63.5 223t168 139t227.5 47q115 0 214 -43t158.5 -129t59.5 -207q0 -109 -50.5 -184.5t-150.5 -171.5q-66 -63 -103.5 -107.5t-63 -100.5t-25.5 -126h-144q0 90 31 161t73 121t115 120q88 84 131 145t43 143q0 119 -80.5 179.5t-207.5 60.5 q-139 0 -227.5 -68.5t-88.5 -201.5h-143zM416 0v184h184v-184h-184z" />
<glyph unicode="@" horiz-adv-x="1626" d="M82 512q0 203 97 373t268 269t380 99q217 0 381 -101t250 -263t86 -336q0 -147 -43 -245.5t-109.5 -143.5t-142.5 -45q-86 0 -147.5 44t-81.5 132q-41 -51 -99.5 -81t-127.5 -30q-94 0 -170 43t-119 119t-43 166t43 166t118.5 119t170.5 43q66 0 121 -26t96 -73v84h127 v-442q0 -197 133 -197q90 0 151.5 89.5t61.5 277.5q0 180 -87 327.5t-236.5 231.5t-332.5 84q-186 0 -342.5 -89t-249 -245.5t-92.5 -349.5q0 -195 94.5 -351.5t258 -244.5t368.5 -88q207 0 357 59v-61q-154 -55 -357 -55q-221 0 -399 95t-280.5 265t-102.5 381zM588 512 q0 -92 62.5 -148.5t150.5 -56.5t148.5 56.5t60.5 148.5t-60.5 148.5t-148.5 56.5t-150.5 -56.5t-62.5 -148.5z" />
<glyph unicode="A" horiz-adv-x="1290" d="M20 0l551 1434h148l551 -1434h-152l-133 352h-680l-133 -352h-152zM356 487h578l-289 768z" />
<glyph unicode="B" horiz-adv-x="1402" d="M164 0v1434h143h428q111 0 195 -47.5t130 -127t46 -176.5q0 -94 -49 -176q125 -53 199.5 -171t74.5 -265q0 -127 -59.5 -235.5t-162.5 -172t-230 -63.5h-695h-20zM307 135h551q98 0 173 45t116 122t41 169q0 94 -40 170t-115 121t-173 45h-553v-672zM307 942h574h30 q51 57 52 141q0 92 -60.5 153.5t-167.5 61.5h-428v-356z" />
<glyph unicode="C" horiz-adv-x="1566" d="M82 717q0 203 96 373t268 269t388 99q156 0 294 -60.5t236 -169t141 -245.5h-155q-57 150 -198.5 243t-317.5 93t-315.5 -80t-216.5 -218t-77 -304t77 -304.5t216 -218t316 -79.5q176 0 317 93t199 243h155q-43 -137 -141 -246t-236.5 -169.5t-293.5 -60.5 q-216 0 -388 99.5t-268 269.5t-96 373z" />
<glyph unicode="D" horiz-adv-x="1515" d="M164 0v1434h143h451q192 0 347 -96.5t242 -260.5t87 -360q0 -197 -87 -360.5t-242 -260t-347 -96.5h-533h-61zM307 135h451q155 0 278 78t190.5 211t67.5 293t-67.5 293t-190.5 210.5t-278 77.5h-451v-1163z" />
<glyph unicode="E" horiz-adv-x="1064" d="M164 0v1434h143h666v-136h-666v-507h615v-136h-615v-520h676v-135h-758h-61z" />
<glyph unicode="F" horiz-adv-x="1013" d="M164 0v1434h143h666v-136h-666v-569h635v-135h-635v-594h-143z" />
<glyph unicode="G" horiz-adv-x="1628" d="M82 717q0 203 96 373t265 269t380 99q156 0 294 -60.5t236.5 -169t141.5 -245.5h-156q-57 150 -198.5 243t-317.5 93q-172 0 -308 -80t-213 -218t-77 -304t77 -304.5t213 -218t308 -79.5q145 0 265 51t192 150.5t72 236.5v35h-492v135h635v-135v-588h-143v221 q-80 -121 -221.5 -183.5t-307.5 -62.5q-211 0 -380 99.5t-265 269.5t-96 373z" />
<glyph unicode="H" horiz-adv-x="1290" d="M164 0v1434h143v-629h676v629h143v-1434h-143v670h-676v-670h-143z" />
<glyph unicode="I" horiz-adv-x="471" d="M164 0v1434h143v-1434h-143z" />
<glyph unicode="J" d="M41 406v20h143v-20q0 -147 86 -219t222 -72q135 0 221 71.5t86 219.5v1028h143v-1028q0 -139 -62.5 -236.5t-165 -146t-222.5 -48.5q-121 0 -223.5 48.5t-165 145.5t-62.5 237z" />
<glyph unicode="K" horiz-adv-x="1187" d="M164 0v1434h143v-656l651 656h189l-688 -697l708 -737h-188l-672 694v-694h-143z" />
<glyph unicode="L" horiz-adv-x="1003" d="M164 0v1434h143v-1299h656v-135h-799z" />
<glyph unicode="M" horiz-adv-x="1638" d="M164 0v1434h143h37l475 -1024l475 1024h181v-1434h-144v1192l-440 -944h-143l-441 944v-1192h-143z" />
<glyph unicode="N" horiz-adv-x="1290" d="M164 0v1434h123l696 -1147v1147h143v-1434h-122l-697 1147v-1147h-143z" />
<glyph unicode="O" horiz-adv-x="1646" d="M82 717q0 203 98.5 373t268 269t374.5 99t375 -99t268.5 -269t98.5 -373t-98.5 -373t-268.5 -269.5t-375 -99.5t-374.5 99.5t-268 269.5t-98.5 373zM225 717q0 -166 79 -303.5t216 -218t303 -80.5t303.5 80.5t216 218t78.5 303.5t-78.5 303t-216 218t-303.5 81t-303 -81 t-216 -218t-79 -303z" />
<glyph unicode="P" horiz-adv-x="1187" d="M164 0v1434h143h369q117 0 216 -57.5t156.5 -157t57.5 -215.5q0 -117 -58.5 -215.5t-156.5 -157t-215 -58.5h-369v-573h-143zM307 709h369q78 0 143.5 39.5t104.5 107.5t39 148t-39 147.5t-104.5 107t-143.5 39.5h-369v-589z" />
<glyph unicode="Q" horiz-adv-x="1656" d="M82 717q0 201 99.5 372t270.5 270t371 99q201 0 372 -99t270.5 -270t99.5 -372q0 -150 -56.5 -284t-156.5 -236l190 -217l-102 -82l-189 213q-195 -135 -428 -136q-201 0 -371.5 99.5t-270 270.5t-99.5 372zM225 717q0 -164 80 -302.5t217 -219t301 -80.5q186 0 336 102 l-205 232l103 81l200 -227q78 82 121 188.5t43 225.5q0 164 -79.5 302t-217 219t-301.5 81t-301 -81t-217 -219t-80 -302z" />
<glyph unicode="R" horiz-adv-x="1290" d="M164 0v1434h143h369q117 0 216 -57.5t156.5 -157t57.5 -215.5q0 -145 -89 -261t-226 -153l520 -590h-181l-503 573h-320v-573h-143zM307 709h369q78 0 143.5 39.5t104.5 107.5t39 148t-39 147.5t-104.5 107t-143.5 39.5h-369v-589z" />
<glyph unicode="S" horiz-adv-x="1126" d="M82 416h143q0 -143 99.5 -222t259.5 -79q135 0 226 67.5t91 179.5q0 104 -82 166t-239 121q-164 61 -247 102.5t-146.5 122t-63.5 209.5q0 115 60.5 200t158.5 130t213 45q121 0 224.5 -48t164 -141t60.5 -220h-144q0 129 -85 199.5t-220 70.5q-123 0 -206 -62.5 t-83 -173.5q0 -78 41 -130t105.5 -87t169.5 -75q164 -63 247.5 -105.5t149 -121.5t65.5 -202q0 -117 -63 -204.5t-168.5 -135t-228.5 -47.5q-140 0 -253.5 52.5t-181 152t-67.5 236.5z" />
<glyph unicode="T" horiz-adv-x="1024" d="M41 1298v136h543h399v-136h-399v-1298h-144v1298h-399z" />
<glyph unicode="U" horiz-adv-x="1269" d="M143 426v1008h144v-1008q0 -152 94 -231.5t254 -79.5t254 79.5t94 231.5v1008h143v-1008q0 -141 -64.5 -243.5t-176 -155t-250.5 -52.5t-251 52.5t-176.5 155t-64.5 243.5z" />
<glyph unicode="V" horiz-adv-x="1245" d="M20 1434h152l451 -1256l450 1256h152l-529 -1434h-147z" />
<glyph unicode="W" horiz-adv-x="1761" d="M20 1434h140l401 -1289l250 801l-152 488h140l401 -1289l402 1289h139l-447 -1434h-188l-225 725l-226 -725h-188z" />
<glyph unicode="X" horiz-adv-x="1167" d="M41 0l465 741l-434 693h157l355 -566l354 566h158l-432 -693l462 -741h-157l-385 614l-385 -614h-158z" />
<glyph unicode="Y" horiz-adv-x="1177" d="M20 1434h162l408 -625l405 625h162l-498 -766v-668h-143v672z" />
<glyph unicode="Z" horiz-adv-x="1064" d="M82 0v135l741 1163h-721v136h881v-136l-741 -1163h762v-135h-922z" />
<glyph unicode="[" horiz-adv-x="532" d="M123 -205v1843h135h274v-131h-274v-1581h274v-131h-389h-20z" />
<glyph unicode="\" d="M82 1638h102l820 -1843h-103z" />
<glyph unicode="]" horiz-adv-x="532" d="M0 -74h274v1581h-274v131h410v-1843h-136h-274v131z" />
<glyph unicode="^" horiz-adv-x="1024" d="M82 819l360 615h140l360 -615h-158l-272 465l-272 -465h-158z" />
<glyph unicode="_" horiz-adv-x="1064" d="M82 -158h901v-131h-901v131z" />
<glyph unicode="`" horiz-adv-x="409" d="M41 1434l197 -267h131l-164 267h-164z" />
<glyph unicode="a" horiz-adv-x="1019" d="M82 305q0 106 51 180t134 112t182 38q100 0 183 -34t134 -99v164q0 129 -72.5 190.5t-181.5 61.5q-106 0 -180 -54.5t-74 -156.5h-135q0 98 49 176t138 122t202 44q174 0 281.5 -103.5t107.5 -279.5v-666h-135v115q-51 -72 -133 -106t-184 -34q-98 0 -181.5 38 t-134.5 112t-51 180zM217 305q0 -92 66.5 -147.5t197.5 -55.5q123 0 204 57.5t81 145.5q0 92 -80 147.5t-205 55.5q-131 0 -197.5 -55.5t-66.5 -147.5z" />
<glyph unicode="b" horiz-adv-x="1302" d="M143 0v1434h136v-611q66 104 173 165t240 61q144 0 264.5 -71t192.5 -193.5t72 -272.5t-72 -272.5t-192.5 -193.5t-264.5 -71q-133 0 -240.5 60.5t-172.5 165.5v-201h-136zM279 512q0 -113 53 -205t145 -146.5t205 -54.5t205 54.5t145 146.5t53 205t-53 205t-145 146.5 t-205 54.5t-205 -54.5t-145 -146.5t-53 -205z" />
<glyph unicode="c" horiz-adv-x="1173" d="M82 512q0 150 70.5 272.5t193.5 193.5t275 71q176 0 311 -97.5t180 -255.5h-143q-41 100 -135.5 161t-212.5 61q-113 0 -205 -54.5t-145.5 -146.5t-53.5 -205t53.5 -205t145.5 -146.5t205 -54.5q121 0 215 61.5t133 160.5h143q-43 -158 -179 -255.5t-312 -97.5 q-152 0 -275 71t-193.5 193.5t-70.5 272.5z" />
<glyph unicode="d" horiz-adv-x="1302" d="M82 512q0 150 71.5 272.5t192.5 193.5t264 71q133 0 240.5 -60.5t173.5 -165.5v611h135v-1434h-135v201q-66 -104 -173.5 -165t-240.5 -61q-143 0 -264 71t-192.5 193.5t-71.5 272.5zM217 512q0 -113 53.5 -205t145.5 -146.5t205 -54.5q112 0 204.5 54.5t145.5 146.5 t53 205t-53 205t-145.5 146.5t-204.5 54.5q-113 0 -205 -54.5t-145.5 -146.5t-53.5 -205z" />
<glyph unicode="e" horiz-adv-x="1165" d="M82 512q0 150 65.5 272.5t184.5 193.5t274 71q152 0 264.5 -75t173 -199t60.5 -267q0 -23 -4 -64h-135h-744q20 -156 126 -247t261 -91q111 0 193 48.5t117 126.5h149q-43 -135 -168 -220.5t-293 -85.5q-154 0 -273.5 70t-185 191.5t-65.5 275.5zM221 575h744 q-18 162 -119 252.5t-240 90.5q-160 0 -263 -94.5t-122 -248.5z" />
<glyph unicode="f" horiz-adv-x="645" d="M41 893v131h174v41q0 188 98.5 291.5t282.5 103.5q33 0 49 -2v-131q-16 2 -47 2q-125 0 -186.5 -64.5t-61.5 -199.5v-41h295v-131h-295v-893h-135v893h-174z" />
<glyph unicode="g" horiz-adv-x="1302" d="M82 512q0 150 71.5 272.5t192.5 193.5t264 71q133 0 240.5 -60.5t173.5 -165.5v201h135v-983q0 -150 -69.5 -257.5t-186.5 -162.5t-258 -55q-125 0 -237.5 51t-182 139t-69.5 193h135q0 -55 44 -114.5t125 -98.5t185 -39q182 0 280.5 92t98.5 252v160 q-66 -104 -173.5 -165t-240.5 -61q-143 0 -264 71t-192.5 193.5t-71.5 272.5zM217 512q0 -113 53.5 -205t145.5 -146.5t205 -54.5q112 0 204.5 54.5t145.5 146.5t53 205t-53 205t-145.5 146.5t-204.5 54.5q-113 0 -205 -54.5t-145.5 -146.5t-53.5 -205z" />
<glyph unicode="h" horiz-adv-x="1060" d="M143 0v1434h136v-545q106 160 315 160q96 0 175 -46.5t126 -132.5t47 -200v-670h-135v670q0 119 -65.5 183.5t-172.5 64.5q-121 0 -205.5 -82t-84.5 -258v-578h-136z" />
<glyph unicode="i" horiz-adv-x="421" d="M143 0v1024h136v-1024h-136zM143 1229v205h136v-205h-136z" />
<glyph unicode="j" horiz-adv-x="471" d="M-41 -303q16 -2 45 -2q96 0 142.5 53t46.5 170v1106h135v-1106q0 -172 -83 -263t-239 -91q-31 0 -47 2v131zM193 1229v205h135v-205h-135z" />
<glyph unicode="k" horiz-adv-x="1011" d="M143 0v1434h136v-865l491 455h180l-532 -492l553 -532h-180l-512 494v-494h-136z" />
<glyph unicode="l" horiz-adv-x="421" d="M143 0v1475h136v-1475h-136z" />
<glyph unicode="m" horiz-adv-x="1572" d="M143 0v1024h136v-119q98 143 274 144q86 0 159.5 -45.5t114.5 -126.5q100 172 303 172q89 0 162.5 -41t117.5 -123t44 -195v-690h-135v690q0 115 -57.5 171.5t-145.5 56.5q-96 0 -173 -71t-77 -229v-618h-135v690q0 115 -57.5 171.5t-145.5 56.5q-96 0 -172.5 -71 t-76.5 -229v-618h-136z" />
<glyph unicode="n" horiz-adv-x="1060" d="M143 0v1024h136v-135q106 160 315 160q96 0 175 -46.5t126 -132.5t47 -200v-670h-135v670q0 119 -65.5 183.5t-172.5 64.5q-121 0 -205.5 -82t-84.5 -258v-578h-136z" />
<glyph unicode="o" horiz-adv-x="1241" d="M82 512q0 150 71.5 272.5t195.5 193.5t272 71q147 0 271 -71t195.5 -193.5t71.5 -272.5t-71.5 -272.5t-195.5 -193.5t-271 -71q-148 0 -272 71t-195.5 193.5t-71.5 272.5zM217 512q0 -113 53.5 -205t145.5 -146.5t205 -54.5q112 0 204.5 54.5t145.5 146.5t53 205t-53 205 t-145.5 146.5t-204.5 54.5q-113 0 -205 -54.5t-145.5 -146.5t-53.5 -205z" />
<glyph unicode="p" horiz-adv-x="1302" d="M143 -410v1434h136v-201q66 104 173 165t240 61q144 0 264.5 -71t192.5 -193.5t72 -272.5t-72 -272.5t-192.5 -193.5t-264.5 -71q-133 0 -240.5 60.5t-172.5 165.5v-611h-136zM279 512q0 -113 53 -205t145 -146.5t205 -54.5t205 54.5t145 146.5t53 205t-53 205 t-145 146.5t-205 54.5t-205 -54.5t-145 -146.5t-53 -205z" />
<glyph unicode="q" horiz-adv-x="1302" d="M82 512q0 150 71.5 272.5t192.5 193.5t264 71q133 0 240.5 -60.5t173.5 -165.5v201h135v-1434h-135v611q-66 -104 -173.5 -165t-240.5 -61q-143 0 -264 71t-192.5 193.5t-71.5 272.5zM217 512q0 -113 53.5 -205t145.5 -146.5t205 -54.5q112 0 204.5 54.5t145.5 146.5 t53 205t-53 205t-145.5 146.5t-204.5 54.5q-113 0 -205 -54.5t-145.5 -146.5t-53.5 -205z" />
<glyph unicode="r" horiz-adv-x="643" d="M143 0v1024h136v-156q104 172 323 172v-131q-139 0 -231 -82t-92 -258v-569h-136z" />
<glyph unicode="s" horiz-adv-x="942" d="M92 297h135q0 -100 67.5 -145.5t176.5 -45.5q104 0 174 40t70 122q0 55 -34 89t-84 53.5t-140 44.5q-111 29 -179.5 57.5t-116.5 86.5t-48 157q0 82 46 149.5t128 105.5t184 38q158 0 258 -88.5t100 -233.5h-135q0 98 -64.5 144.5t-158.5 46.5q-90 0 -156.5 -41 t-66.5 -121q0 -56 33.5 -89.5t84 -53t140.5 -44.5q111 -29 179.5 -57.5t116.5 -86.5t48 -157q0 -84 -47 -150.5t-133 -104.5t-199 -38q-172 0 -275.5 87.5t-103.5 234.5z" />
<glyph unicode="t" horiz-adv-x="645" d="M41 893v131h215v328h135v-328h213v-131h-213v-893h-135v893h-215z" />
<glyph unicode="u" horiz-adv-x="1060" d="M119 354v670h135v-670q0 -119 65.5 -183.5t172.5 -64.5q121 0 205.5 82t84.5 258v578h136v-1024h-136v135q-106 -160 -315 -160q-96 0 -175 46.5t-126 132.5t-47 200z" />
<glyph unicode="v" horiz-adv-x="962" d="M20 1024h144l317 -877l318 877h143l-379 -1024h-135h-29z" />
<glyph unicode="w" horiz-adv-x="1392" d="M20 1024h144l289 -868l180 520l-121 348h143l287 -864l287 864h143l-356 -1024h-127h-21l-170 489l-174 -489h-127h-20z" />
<glyph unicode="x" horiz-adv-x="927" d="M41 0l346 532l-319 492h147l246 -379l246 379h147l-319 -492l346 -532h-148l-272 420l-273 -420h-147z" />
<glyph unicode="y" horiz-adv-x="962" d="M20 1024h144l340 -827l295 827h143l-510 -1434h-143l147 418z" />
<glyph unicode="z" horiz-adv-x="921" d="M82 0v90l569 803h-549v131h738v-90l-570 -803h590v-131h-778z" />
<glyph unicode="{" horiz-adv-x="724" d="M102 653v131q76 0 121 14.5t68.5 57.5t23.5 129v342q0 166 81 250t233 84q37 0 55 -2v-131q-41 4 -57 4q-92 0 -134 -46t-42 -159v-342q0 -117 -40 -179.5t-120 -86.5q80 -25 120 -87.5t40 -178.5v-342q0 -113 42 -159t134 -46q16 0 57 4v-131q-18 -2 -55 -2 q-152 0 -233 84t-81 250v342q0 86 -23.5 129t-68.5 57t-121 14z" />
<glyph unicode="|" horiz-adv-x="462" d="M164 -410v1885h135v-1885h-135z" />
<glyph unicode="}" horiz-adv-x="724" d="M41 -90q41 -4 57 -4q92 0 134 46t42 159v342q0 117 40 179t120 87q-80 25 -120 87t-40 179v342q0 113 -42 159t-134 46q-16 0 -57 -4v131q18 2 55 2q152 0 233 -84t81 -250v-342q0 -86 23.5 -129t68.5 -57.5t121 -14.5v-131q-76 0 -121 -14t-68.5 -57t-23.5 -129v-342 q0 -166 -81 -250t-233 -84q-37 0 -55 2v131z" />
<glyph unicode="~" horiz-adv-x="1216" d="M123 643q33 106 97.5 163.5t158.5 57.5q117 0 260 -90q119 -74 192 -74q53 0 87 38t53 110l123 -57q-33 -106 -97.5 -165t-156.5 -59q-113 0 -262 92q-115 74 -191 74q-55 0 -89 -38t-52 -109z" />
<glyph unicode="&#xa2;" horiz-adv-x="1173" d="M82 717q0 150 70.5 272.5t193.5 193t275 70.5q55 0 96 -8l61 189h103l-70 -213q111 -41 189.5 -125t111.5 -195h-143q-27 66 -78 116t-121 77l-248 -770q47 -12 99 -13q120 0 214.5 61.5t133.5 159.5h143q-43 -158 -179 -255t-312 -97q-68 0 -140 17l-63 -197h-103 l74 229q-141 61 -224 192.5t-83 295.5zM217 717q0 -117 58.5 -213t154.5 -148l246 762q-37 4 -55 4q-113 0 -205 -54t-145.5 -146.5t-53.5 -204.5z" />
<glyph unicode="&#xa3;" horiz-adv-x="1198" d="M82 0v139h192v432h-151v127h151v330q0 139 59.5 236.5t156 145.5t204.5 48q104 0 200.5 -48t158 -145.5t61.5 -236.5v-45h-143v45q0 143 -83 217t-194 74q-117 0 -196.5 -72.5t-79.5 -218.5v-330h473v-127h-473v-432h749v-139h-1085z" />
<glyph unicode="&#xa5;" horiz-adv-x="1177" d="M20 1434h162l408 -625l405 625h162l-469 -723h342v-119h-371v-123h371v-119h-371v-350h-143v350h-366v119h366v123h-366v119h339z" />
<glyph unicode="&#xa8;" horiz-adv-x="655" d="M41 1188v164h164v-164h-164zM451 1188v164h163v-164h-163z" />
<glyph unicode="&#xa9;" horiz-adv-x="1646" d="M82 717q0 201 99.5 372t270.5 270t371 99q201 0 372 -99t270.5 -270t99.5 -372t-99.5 -372t-270.5 -270.5t-372 -99.5q-200 0 -371 99.5t-270.5 270.5t-99.5 372zM143 717q0 -186 91.5 -343t248 -249t340.5 -92q185 0 341.5 92t247.5 248.5t91 343.5q0 186 -91 343 t-247.5 249t-341.5 92q-184 0 -340.5 -92t-248 -249t-91.5 -343zM432 717q0 109 52.5 199t143.5 142t201 52q139 0 244 -82t131 -209h-139q-18 78 -86 121t-150 43q-80 0 -139 -37t-92 -98.5t-33 -130.5q0 -70 33 -131.5t92.5 -98t138.5 -36.5q82 0 150 43t86 120h139 q-27 -127 -131 -208.5t-244 -81.5q-110 0 -201 52t-143.5 142t-52.5 199z" />
<glyph unicode="&#xab;" horiz-adv-x="1007" d="M143 633l226 368h168l-226 -368l226 -369h-168zM471 633l225 368h168l-225 -368l225 -369h-168z" />
<glyph unicode="&#xad;" horiz-adv-x="1064" d="M164 567v131h737v-131h-737z" />
<glyph unicode="&#xae;" horiz-adv-x="1646" d="M82 717q0 201 99.5 372t270.5 270t371 99q201 0 372 -99t270.5 -270t99.5 -372t-99.5 -372t-270.5 -270.5t-372 -99.5t-371.5 99.5t-270 270.5t-99.5 372zM143 717q0 -186 91.5 -343t248 -249t340.5 -92q185 0 341.5 92t247.5 248.5t91 343.5q0 186 -91 343t-247.5 249 t-341.5 92q-184 0 -340.5 -92t-248 -249t-91.5 -343zM598 338v758h127h106q135 0 211 -71t76 -173q0 -82 -37 -138.5t-110 -82.5l229 -293h-145l-215 270h-9h-106v-270h-127zM725 731h115q72 0 111.5 33t39.5 88t-40 88t-111 33h-115v-242z" />
<glyph unicode="&#xb4;" horiz-adv-x="409" d="M41 1167h131l197 267h-164z" />
<glyph unicode="&#xb8;" horiz-adv-x="501" d="M41 -332q74 -4 98 -4q100 0 151.5 20.5t51.5 57.5q0 41 -48 60.5t-142 23.5v174h118v-92q88 -17 139.5 -60t51.5 -106q0 -186 -336 -186q-53 0 -84 2v110z" />
<glyph unicode="&#xbb;" horiz-adv-x="1007" d="M143 264l226 369l-226 368h168l226 -368l-226 -369h-168zM471 264l225 369l-225 368h168l225 -368l-225 -369h-168z" />
<glyph unicode="&#x2c6;" horiz-adv-x="675" d="M41 1167l217 267h152h8l217 -267h-154l-143 179l-143 -179h-154z" />
<glyph unicode="&#x2da;" horiz-adv-x="516" d="M41 1331q0 88 60.5 146.5t156.5 58.5t156.5 -58.5t60.5 -146.5t-60.5 -146.5t-156.5 -58.5t-156.5 58.5t-60.5 146.5zM154 1331q0 -45 27.5 -72.5t76.5 -27.5q51 0 79 27.5t28 72.5t-28 73t-79 28q-49 0 -76.5 -28t-27.5 -73z" />
<glyph unicode="&#x2dc;" horiz-adv-x="655" d="M41 1188q0 117 40 176t105 59q68 0 144 -57q47 -35 74.5 -51.5t46.5 -16.5q23 0 34 27t11 88h118q0 -117 -38.5 -176t-104.5 -59q-68 0 -143 57q-47 35 -75 51.5t-48 16.5q-45 0 -45 -115h-119z" />
<glyph unicode="&#x401;" horiz-adv-x="1064" d="M164 0v1434h143h666v-136h-666v-507h615v-136h-615v-520h676v-135h-758h-61zM283 1598v164h164v-164h-164zM693 1598v164h163v-164h-163z" />
<glyph unicode="&#x402;" horiz-adv-x="1347" d="M41 1298v136h522h461v-136h-461v-401q145 70 285 70q172 0 279.5 -100.5t107.5 -288.5v-242q0 -172 -83 -263t-239 -91q-31 0 -47 2v131q16 -2 45 -2q94 0 137.5 53t43.5 170v242q0 133 -64.5 195.5t-177.5 62.5q-133 0 -287 -68v-768h-143v1298h-379z" />
<glyph unicode="&#x403;" horiz-adv-x="1003" d="M164 0v1434h799v-136h-656v-1298h-143zM462 1575h131l197 267h-164z" />
<glyph unicode="&#x404;" horiz-adv-x="1546" d="M82 717q0 205 91 374t255 268t375 99q254 0 435 -130t247 -345h-156q-59 154 -195.5 245t-330.5 91q-160 0 -286 -69.5t-199.5 -191.5t-88.5 -274h785v-135h-785q14 -152 88 -273.5t200 -191t286 -69.5q194 0 330.5 91t195.5 245h156q-66 -215 -247 -345.5t-435 -130.5 q-211 0 -375 99.5t-255 268.5t-91 374z" />
<glyph unicode="&#x405;" horiz-adv-x="1126" d="M82 416h143q0 -143 99.5 -222t259.5 -79q135 0 226 67.5t91 179.5q0 104 -82 166t-239 121q-164 61 -247 102.5t-146.5 122t-63.5 209.5q0 115 60.5 200t158.5 130t213 45q121 0 224.5 -48t164 -141t60.5 -220h-144q0 129 -85 199.5t-220 70.5q-123 0 -206 -62.5 t-83 -173.5q0 -78 41 -130t105.5 -87t169.5 -75q164 -63 247.5 -105.5t149 -121.5t65.5 -202q0 -117 -63 -204.5t-168.5 -135t-228.5 -47.5q-140 0 -253.5 52.5t-181 152t-67.5 236.5z" />
<glyph unicode="&#x406;" horiz-adv-x="471" d="M164 0v1434h143v-1434h-143z" />
<glyph unicode="&#x407;" horiz-adv-x="471" d="M-51 1598v164h163v-164h-163zM164 0v1434h143v-1434h-143zM358 1598v164h164v-164h-164z" />
<glyph unicode="&#x408;" d="M41 406v20h143v-20q0 -147 86 -219t222 -72q135 0 221 71.5t86 219.5v1028h143v-1028q0 -139 -62.5 -236.5t-165 -146t-222.5 -48.5q-121 0 -223.5 48.5t-165 145.5t-62.5 237z" />
<glyph unicode="&#x409;" horiz-adv-x="1955" d="M31 -2v127q33 -4 47 -4q125 0 188.5 118.5t63.5 397.5v797h786v-615h328q117 0 216 -53t156.5 -147.5t57.5 -208.5q0 -117 -57.5 -210.5t-155.5 -146.5t-217 -53h-410h-61v1298h-500v-665q0 -352 -97 -494.5t-288 -142.5q-39 0 -57 2zM1116 135h328q121 0 204 77t83 198 q0 119 -83 196.5t-204 77.5h-328v-549z" />
<glyph unicode="&#x40a;" horiz-adv-x="1925" d="M164 0v1434h143v-615h635v615h143v-615h328q117 0 216.5 -53t156.5 -147.5t57 -208.5q0 -117 -57 -210.5t-155.5 -146.5t-217.5 -53h-409h-62v684h-635v-684h-143zM1085 135h328q121 0 204 77t83 198q0 119 -83 196.5t-204 77.5h-328v-549z" />
<glyph unicode="&#x40b;" horiz-adv-x="1357" d="M41 1298v136h522h461v-136h-461v-401q145 70 285 70q172 0 279.5 -100.5t107.5 -288.5v-578h-143v578q0 133 -64.5 195.5t-177.5 62.5q-133 0 -287 -68v-768h-143v1298h-379z" />
<glyph unicode="&#x40c;" horiz-adv-x="1187" d="M164 0v1434h143v-656l651 656h189l-688 -697l708 -737h-188l-672 694v-694h-143zM483 1575h131l197 267h-164z" />
<glyph unicode="&#x40e;" horiz-adv-x="1167" d="M61 1434h148l414 -881l376 881h148l-477 -1121q-68 -162 -169.5 -238.5t-246.5 -76.5l-41 2v131q16 -2 49 -2q94 0 156.5 47t107.5 150l29 67zM320 1596v119h532v-119h-532z" />
<glyph unicode="&#x40f;" horiz-adv-x="1290" d="M164 0v1434h143v-1299h676v1299h143v-1434h-143h-266v-295h-144v295h-348h-61z" />
<glyph unicode="&#x410;" horiz-adv-x="1290" d="M20 0l551 1434h148l551 -1434h-152l-133 352h-680l-133 -352h-152zM356 487h578l-289 768z" />
<glyph unicode="&#x411;" horiz-adv-x="1198" d="M164 0v1434h143h697v-136h-697v-438h389q117 0 215.5 -58.5t156.5 -156.5t58 -215t-57 -216t-156.5 -156.5t-216.5 -57.5h-471h-61zM307 135h389q78 0 143.5 40t104.5 107.5t39 147.5t-39 147.5t-104.5 107.5t-143.5 40h-389v-590z" />
<glyph unicode="&#x412;" horiz-adv-x="1402" d="M164 0v1434h143h428q111 0 195 -47.5t130 -127t46 -176.5q0 -94 -49 -176q125 -53 199.5 -171t74.5 -265q0 -127 -59.5 -235.5t-162.5 -172t-230 -63.5h-695h-20zM307 135h551q98 0 173 45t116 122t41 169q0 94 -40 170t-115 121t-173 45h-553v-672zM307 942h574h30 q51 57 52 141q0 92 -60.5 153.5t-167.5 61.5h-428v-356z" />
<glyph unicode="&#x413;" horiz-adv-x="1003" d="M164 0v1434h799v-136h-656v-1298h-143z" />
<glyph unicode="&#x414;" horiz-adv-x="1351" d="M31 74v61h116q68 80 105 199t37 313v787h837v-1299h154v-135v-295h-143v295h-154h-809v-295h-143v369zM317 135h666v1163h-551v-655q0 -340 -115 -508z" />
<glyph unicode="&#x415;" horiz-adv-x="1064" d="M164 0v1434h143h666v-136h-666v-507h615v-136h-615v-520h676v-135h-758h-61z" />
<glyph unicode="&#x416;" horiz-adv-x="1740" d="M41 0l616 737l-596 697h168l570 -662v662h143v-662l569 662h168l-596 -697l617 -737h-168l-590 700v-700h-143v700l-590 -700h-168z" />
<glyph unicode="&#x417;" d="M41 446h143q0 -145 94.5 -240t264.5 -95t264 95t94 240q0 94 -40 170t-114.5 121t-173.5 45h-102v127h102q51 0 91 -8q115 88 114 207q0 94 -64.5 154.5t-183.5 60.5t-183 -60.5t-64 -154.5h-144q0 96 47 176t136.5 127t207.5 47q119 0 208 -47t136.5 -127t47.5 -176 q0 -143 -107 -258q109 -59 169 -165.5t60 -238.5q0 -131 -60 -238.5t-174 -170t-267 -62.5q-154 0 -267.5 62.5t-174 170t-60.5 238.5z" />
<glyph unicode="&#x418;" horiz-adv-x="1290" d="M164 0v1434h143v-1147l697 1147h122v-1434h-143v1147l-696 -1147h-123z" />
<glyph unicode="&#x419;" horiz-adv-x="1290" d="M164 0v1434h143v-1147l697 1147h122v-1434h-143v1147l-696 -1147h-123zM399 1598v119h532v-119h-532z" />
<glyph unicode="&#x41a;" horiz-adv-x="1187" d="M164 0v1434h143v-656l651 656h189l-688 -697l708 -737h-188l-672 694v-694h-143z" />
<glyph unicode="&#x41b;" horiz-adv-x="1320" d="M31 -2v127q33 -4 47 -4q125 0 188.5 118.5t63.5 397.5v797h827v-1434h-143v1298h-541v-665q0 -352 -97 -494.5t-288 -142.5q-39 0 -57 2z" />
<glyph unicode="&#x41c;" horiz-adv-x="1638" d="M164 0v1434h143h37l475 -1024l475 1024h181v-1434h-144v1192l-440 -944h-143l-441 944v-1192h-143z" />
<glyph unicode="&#x41d;" horiz-adv-x="1290" d="M164 0v1434h143v-629h676v629h143v-1434h-143v670h-676v-670h-143z" />
<glyph unicode="&#x41e;" horiz-adv-x="1646" d="M82 717q0 203 98.5 373t268 269t374.5 99t375 -99t268.5 -269t98.5 -373t-98.5 -373t-268.5 -269.5t-375 -99.5t-374.5 99.5t-268 269.5t-98.5 373zM225 717q0 -166 79 -303.5t216 -218t303 -80.5t303.5 80.5t216 218t78.5 303.5t-78.5 303t-216 218t-303.5 81t-303 -81 t-216 -218t-79 -303z" />
<glyph unicode="&#x41f;" horiz-adv-x="1290" d="M164 0v1434h143h819v-1434h-143v1298h-676v-1298h-143z" />
<glyph unicode="&#x420;" horiz-adv-x="1187" d="M164 0v1434h143h369q117 0 216 -57.5t156.5 -157t57.5 -215.5q0 -117 -58.5 -215.5t-156.5 -157t-215 -58.5h-369v-573h-143zM307 709h369q78 0 143.5 39.5t104.5 107.5t39 148t-39 147.5t-104.5 107t-143.5 39.5h-369v-589z" />
<glyph unicode="&#x421;" horiz-adv-x="1566" d="M82 717q0 203 96 373t268 269t388 99q156 0 294 -60.5t236 -169t141 -245.5h-155q-57 150 -198.5 243t-317.5 93t-315.5 -80t-216.5 -218t-77 -304t77 -304.5t216 -218t316 -79.5q176 0 317 93t199 243h155q-43 -137 -141 -246t-236.5 -169.5t-293.5 -60.5 q-216 0 -388 99.5t-268 269.5t-96 373z" />
<glyph unicode="&#x422;" horiz-adv-x="1024" d="M41 1298v136h543h399v-136h-399v-1298h-144v1298h-399z" />
<glyph unicode="&#x423;" horiz-adv-x="1167" d="M61 1434h148l414 -881l376 881h148l-477 -1121q-68 -162 -169.5 -238.5t-246.5 -76.5l-41 2v131q16 -2 49 -2q94 0 156.5 47t107.5 150l29 67z" />
<glyph unicode="&#x424;" horiz-adv-x="1646" d="M61 717q0 254 189.5 397t501.5 158v162h143v-162q311 -14 500.5 -157.5t189.5 -397.5t-189.5 -397.5t-500.5 -157.5v-162h-143v162q-311 14 -501 157.5t-190 397.5zM205 717q0 -197 147.5 -304.5t399.5 -119.5v848q-252 -12 -399.5 -120t-147.5 -304zM895 293 q252 12 399.5 119.5t147.5 304.5t-147.5 304t-399.5 120v-848z" />
<glyph unicode="&#x425;" horiz-adv-x="1167" d="M41 0l465 741l-434 693h157l355 -566l354 566h158l-432 -693l462 -741h-157l-385 614l-385 -614h-158z" />
<glyph unicode="&#x426;" horiz-adv-x="1351" d="M164 0v1434h143v-1299h676v1299h143v-1299h154v-430h-143v295h-973z" />
<glyph unicode="&#x427;" horiz-adv-x="1239" d="M133 922v512h143v-512q0 -125 81 -200t227 -75q184 0 348 72v715h143v-1434h-143v584q-164 -72 -348 -72q-137 0 -238.5 53t-157 145.5t-55.5 211.5z" />
<glyph unicode="&#x428;" horiz-adv-x="1863" d="M164 0v1434h143v-1299h553v1299h144v-1299h552v1299h144v-1434h-1536z" />
<glyph unicode="&#x429;" horiz-adv-x="1925" d="M164 0v1434h143v-1299h553v1299h144v-1299h552v1299h144v-1299h153v-430h-143v295h-1546z" />
<glyph unicode="&#x42a;" horiz-adv-x="1413" d="M0 1298v136h532v-574h369q117 0 215 -58.5t156.5 -156.5t58.5 -215t-57 -216t-156.5 -156.5t-216.5 -57.5h-512v1298h-389zM532 135h369q78 0 143.5 40t104.5 107.5t39 147.5t-39 147.5t-104.5 107.5t-143.5 40h-369v-590z" />
<glyph unicode="&#x42b;" horiz-adv-x="1566" d="M164 0v1434h143v-574h369q117 0 215 -58.5t156.5 -156.5t58.5 -215t-57.5 -216t-156.5 -156.5t-216 -57.5h-512zM307 135h369q78 0 143.5 40t104.5 107.5t39 147.5t-39 147.5t-104.5 107.5t-143.5 40h-369v-590zM1260 0v1434h143v-1434h-143z" />
<glyph unicode="&#x42c;" horiz-adv-x="1187" d="M164 0v1434h143v-574h369q117 0 215 -58.5t156.5 -156.5t58.5 -215t-57.5 -216t-156.5 -156.5t-216 -57.5h-451h-61zM307 135h369q78 0 143.5 40t104.5 107.5t39 147.5t-39 147.5t-104.5 107.5t-143.5 40h-369v-590z" />
<glyph unicode="&#x42d;" horiz-adv-x="1546" d="M61 451h156q59 -154 195.5 -245t330.5 -91q160 0 286 69.5t200 191.5t88 273h-785v135h785q-14 152 -88 274t-200 191.5t-286 69.5q-195 0 -331 -91t-195 -245h-156q66 215 247 345t435 130q211 0 375 -99t255 -268t91 -374t-91 -374t-255 -268.5t-375 -99.5 q-254 0 -435 130.5t-247 345.5z" />
<glyph unicode="&#x42e;" horiz-adv-x="2129" d="M164 0v1434h143v-629h271q20 182 120.5 331.5t259 235.5t349.5 86q204 0 374 -99t268.5 -269t98.5 -373t-98.5 -373t-268.5 -269.5t-374 -99.5q-197 0 -360 92.5t-262 251t-110 351.5h-268v-670h-143zM709 717q0 -166 78.5 -303.5t216 -218t303.5 -80.5t303 80.5t216 218 t79 303.5t-79 303t-216 218t-303 81t-303.5 -81t-216 -218t-78.5 -303z" />
<glyph unicode="&#x42f;" horiz-adv-x="1269" d="M41 0l508 575q-106 10 -194.5 71t-139.5 155t-51 203q0 117 57.5 216t156.5 156.5t216 57.5h512v-1434h-143v573h-238l-504 -573h-180zM307 1004q0 -80 39 -148t104.5 -107.5t143.5 -39.5h369v589h-369q-78 0 -143.5 -39.5t-104.5 -107.5t-39 -147z" />
<glyph unicode="&#x430;" horiz-adv-x="1019" d="M82 305q0 106 51 180t134 112t182 38q100 0 183 -34t134 -99v164q0 129 -72.5 190.5t-181.5 61.5q-106 0 -180 -54.5t-74 -156.5h-135q0 98 49 176t138 122t202 44q174 0 281.5 -103.5t107.5 -279.5v-666h-135v115q-51 -72 -133 -106t-184 -34q-98 0 -181.5 38 t-134.5 112t-51 180zM217 305q0 -92 66.5 -147.5t197.5 -55.5q123 0 204 57.5t81 145.5q0 92 -80 147.5t-205 55.5q-131 0 -197.5 -55.5t-66.5 -147.5z" />
<glyph unicode="&#x431;" horiz-adv-x="1161" d="M82 512q0 186 75.5 319.5t177 213t253.5 169.5q123 74 176 118t53 102h139q0 -78 -39.5 -135.5t-98 -98.5t-167.5 -100q-150 -82 -243 -154t-148 -182q74 88 163 128t183 40q135 0 248 -61.5t179.5 -170t66.5 -245.5t-65.5 -246t-179.5 -171.5t-257 -62.5t-261 67 t-186.5 188.5t-68.5 281.5zM221 467q0 -102 50.5 -184t136.5 -127t190 -45q107 0 189.5 44t130 122.5t47.5 177.5q0 98 -49.5 177t-135.5 124t-192 45q-92 0 -176 -40t-137.5 -116t-53.5 -178z" />
<glyph unicode="&#x432;" horiz-adv-x="1075" d="M143 0v537v360v127h410q150 0 239 -81t89 -204q0 -66 -31 -121q84 -40 129 -115t45 -169q0 -143 -95 -238.5t-274 -95.5h-512zM279 127h376q111 0 172.5 55.5t61.5 151.5t-61.5 149.5t-172.5 53.5h-376v-410zM279 659h376q23 0 64 -4q27 41 26 84q0 80 -55 121t-137 37 h-274v-238z" />
<glyph unicode="&#x433;" horiz-adv-x="768" d="M143 0v1024h615v-131h-479v-893h-136z" />
<glyph unicode="&#x434;" horiz-adv-x="1167" d="M41 74v57h125q53 70 78.5 157t25.5 230v506h136h460h97v-893h143v-131v-295h-135v295h-144h-651v-295h-135v369zM330 131h497v762h-421v-375q0 -236 -76 -387z" />
<glyph unicode="&#x435;" horiz-adv-x="1165" d="M82 512q0 150 65.5 272.5t184.5 193.5t274 71q152 0 264.5 -75t173 -199t60.5 -267q0 -23 -4 -64h-135h-744q20 -156 126 -247t261 -91q111 0 193 48.5t117 126.5h149q-43 -135 -168 -220.5t-293 -85.5q-154 0 -273.5 70t-185 191.5t-65.5 275.5zM221 575h744 q-18 162 -119 252.5t-240 90.5q-160 0 -263 -94.5t-122 -248.5z" />
<glyph unicode="&#x436;" horiz-adv-x="1380" d="M41 0l459 532l-439 492h164l398 -455v455h135v-455l397 455h164l-438 -492l458 -532h-163l-418 494v-494h-135v494l-418 -494h-164z" />
<glyph unicode="&#x437;" horiz-adv-x="860" d="M41 309h135q0 -94 69.5 -148.5t184.5 -54.5t184.5 54.5t69.5 148.5t-69.5 148.5t-184.5 54.5h-72v123h72q51 0 109 -10q74 55 73 131q0 80 -54 121t-138 41q-86 0 -139.5 -42t-53.5 -128h-135q0 133 89 217t239 84q98 0 173 -39t115 -106.5t40 -147.5q0 -51 -20.5 -98.5 t-57.5 -82.5q71 -43 110 -113.5t39 -152.5q0 -92 -46 -167.5t-134 -121t-209 -45.5t-209 45.5t-134 121t-46 167.5z" />
<glyph unicode="&#x438;" d="M143 0v1024h136v-778l548 778h115v-1024h-135v778l-549 -778h-115z" />
<glyph unicode="&#x439;" d="M143 0v1024h136v-778l548 778h115v-1024h-135v778l-549 -778h-115zM277 1188v119h532v-119h-532z" />
<glyph unicode="&#x43a;" horiz-adv-x="1011" d="M143 0v1024h136v-455l491 455h180l-532 -492l553 -532h-180l-512 494v-494h-136z" />
<glyph unicode="&#x43b;" d="M20 0v127q12 -2 37 -2q96 0 144.5 69.5t48.5 241.5v588h135h557v-1024h-135v893h-422v-457q0 -240 -86 -339t-238 -99z" />
<glyph unicode="&#x43c;" horiz-adv-x="1290" d="M143 0v1024h136h20l346 -657l346 657h156v-1024h-135v799l-314 -592h-106l-313 592v-799h-136z" />
<glyph unicode="&#x43d;" horiz-adv-x="1087" d="M143 0v1024h136v-446h528v446h135v-1024h-135v446h-528v-446h-136z" />
<glyph unicode="&#x43e;" horiz-adv-x="1241" d="M82 512q0 150 71.5 272.5t195.5 193.5t272 71q147 0 271 -71t195.5 -193.5t71.5 -272.5t-71.5 -272.5t-195.5 -193.5t-271 -71q-148 0 -272 71t-195.5 193.5t-71.5 272.5zM217 512q0 -113 53.5 -205t145.5 -146.5t205 -54.5q112 0 204.5 54.5t145.5 146.5t53 205t-53 205 t-145.5 146.5t-204.5 54.5q-113 0 -205 -54.5t-145.5 -146.5t-53.5 -205z" />
<glyph unicode="&#x43f;" d="M143 0v1024h136h663v-1024h-135v893h-528v-893h-136z" />
<glyph unicode="&#x440;" horiz-adv-x="1302" d="M143 -410v1434h136v-201q66 104 173 165t240 61q144 0 264.5 -71t192.5 -193.5t72 -272.5t-72 -272.5t-192.5 -193.5t-264.5 -71q-133 0 -240.5 60.5t-172.5 165.5v-611h-136zM279 512q0 -113 53 -205t145 -146.5t205 -54.5t205 54.5t145 146.5t53 205t-53 205 t-145 146.5t-205 54.5t-205 -54.5t-145 -146.5t-53 -205z" />
<glyph unicode="&#x441;" horiz-adv-x="1173" d="M82 512q0 150 70.5 272.5t193.5 193.5t275 71q176 0 311 -97.5t180 -255.5h-143q-41 100 -135.5 161t-212.5 61q-113 0 -205 -54.5t-145.5 -146.5t-53.5 -205t53.5 -205t145.5 -146.5t205 -54.5q121 0 215 61.5t133 160.5h143q-43 -158 -179 -255.5t-312 -97.5 q-152 0 -275 71t-193.5 193.5t-70.5 272.5z" />
<glyph unicode="&#x442;" horiz-adv-x="819" d="M20 893v131h457h322v-131h-322v-893h-135v893h-322z" />
<glyph unicode="&#x443;" horiz-adv-x="983" d="M41 1024h143l340 -829l295 829h144l-398 -1118q-55 -154 -165.5 -240t-247.5 -76v127l26 -2q86 0 152.5 59.5t99.5 155.5l27 76z" />
<glyph unicode="&#x444;" horiz-adv-x="1372" d="M82 512q0 141 66.5 258t188.5 189.5t281 87.5v387h136v-387q160 -14 281.5 -87t188 -190t66.5 -258t-66.5 -258t-188.5 -189.5t-281 -87.5v-387h-136v387q-160 14 -281.5 87t-188 190t-66.5 258zM217 512q0 -160 108.5 -271.5t292.5 -129.5v802q-184 -18 -292.5 -129.5 t-108.5 -271.5zM754 111q184 18 292.5 129.5t108.5 271.5t-108.5 271.5t-292.5 129.5v-802z" />
<glyph unicode="&#x445;" horiz-adv-x="927" d="M41 0l346 532l-319 492h147l246 -379l246 379h147l-319 -492l346 -532h-148l-272 420l-273 -420h-147z" />
<glyph unicode="&#x446;" horiz-adv-x="1146" d="M143 0v1024h136v-893h507v893h136v-893h163v-426h-135v295h-807z" />
<glyph unicode="&#x447;" horiz-adv-x="1024" d="M102 676v348h136v-348q0 -221 235 -221q137 0 272 59v510h136v-1024h-136v389q-117 -61 -272 -61q-174 0 -272.5 90t-98.5 258z" />
<glyph unicode="&#x448;" horiz-adv-x="1536" d="M143 0v1024h136v-893h421v893h136v-893h421v893h136v-1024h-136h-557h-469h-88z" />
<glyph unicode="&#x449;" horiz-adv-x="1597" d="M143 0v1024h136v-893h421v893h136v-893h421v893h136v-893h143v-131v-295h-135v295h-144h-557h-469h-88z" />
<glyph unicode="&#x44a;" horiz-adv-x="1105" d="M0 893v131h369h53v-389h280q93 0 171.5 -40t124.5 -112.5t46 -165.5q0 -92 -46 -164.5t-124.5 -112.5t-171.5 -40h-346h-69v893h-287zM422 131h280q86 0 146.5 51t60.5 135t-60.5 135.5t-146.5 51.5h-280v-373z" />
<glyph unicode="&#x44b;" horiz-adv-x="1323" d="M143 0v1024h136v-389h280q92 0 171 -40t125 -112.5t46 -165.5q0 -92 -46 -164.5t-125 -112.5t-171 -40h-346h-70zM279 131h280q86 0 146.5 51t60.5 135t-60.5 135.5t-146.5 51.5h-280v-373zM1044 0v1024h136v-1024h-136z" />
<glyph unicode="&#x44c;" horiz-adv-x="962" d="M143 0v1024h136v-389h280q92 0 171 -40t125 -112.5t46 -165.5q0 -92 -46 -164.5t-125 -112.5t-171 -40h-346h-70zM279 131h280q86 0 146.5 51t60.5 135t-60.5 135.5t-146.5 51.5h-280v-373z" />
<glyph unicode="&#x44d;" horiz-adv-x="1167" d="M61 328h144q39 -98 136 -160t220 -62q150 0 256.5 96.5t128.5 243.5h-510v132h510q-23 147 -129 243.5t-256 96.5q-123 0 -219 -60.5t-137 -161.5h-144q45 158 182.5 255.5t317.5 97.5q150 0 269.5 -71t187 -193.5t67.5 -272.5t-67.5 -272.5t-187 -193.5t-269.5 -71 q-180 0 -318.5 97.5t-181.5 255.5z" />
<glyph unicode="&#x44e;" horiz-adv-x="1638" d="M143 0v1024h136v-446h213q14 133 86.5 240.5t188.5 169t251 61.5q147 0 271 -71t195.5 -193.5t71.5 -272.5t-71.5 -272.5t-195.5 -193.5t-271 -71q-135 0 -251 61.5t-188.5 169t-86.5 240.5h-213v-446h-136zM614 512q0 -113 53.5 -205t145.5 -146.5t205 -54.5 q112 0 204.5 54.5t145.5 146.5t53 205t-53 205t-145.5 146.5t-204.5 54.5q-113 0 -205 -54.5t-145.5 -146.5t-53.5 -205z" />
<glyph unicode="&#x44f;" horiz-adv-x="1024" d="M41 0l358 399q-121 18 -198.5 102.5t-77.5 205.5q0 92 46 164.5t125 112.5t171 40h416v-1024h-136v393h-184l-348 -393h-172zM258 707q0 -84 60.5 -135.5t146.5 -51.5h280v373h-280q-86 0 -146.5 -51t-60.5 -135z" />
<glyph unicode="&#x451;" horiz-adv-x="1165" d="M82 512q0 150 65.5 272.5t184.5 193.5t274 71q152 0 264.5 -75t173 -199t60.5 -267q0 -23 -4 -64h-135h-744q20 -156 126 -247t261 -91q111 0 193 48.5t117 126.5h149q-43 -135 -168 -220.5t-293 -85.5q-154 0 -273.5 70t-185 191.5t-65.5 275.5zM221 575h744 q-18 162 -119 252.5t-240 90.5q-160 0 -263 -94.5t-122 -248.5zM317 1188v164h164v-164h-164zM727 1188v164h163v-164h-163z" />
<glyph unicode="&#x452;" horiz-adv-x="1075" d="M20 1180v110h144v144h135v-144h295v-110h-295v-291q106 160 315 160q97 0 175.5 -46.5t126 -132.5t47.5 -200v-752q0 -172 -83 -263t-239 -91q-31 0 -47 2v131q16 -2 45 -2q96 0 142 53t46 170v752q0 119 -65.5 183.5t-171.5 64.5q-121 0 -206 -82t-85 -258v-578h-135 v1180h-144z" />
<glyph unicode="&#x453;" horiz-adv-x="768" d="M143 0v1024h615v-131h-479v-893h-136zM299 1167h131l197 267h-164z" />
<glyph unicode="&#x454;" horiz-adv-x="1167" d="M82 512q0 150 67.5 272.5t187.5 193.5t269 71q180 0 317.5 -97.5t182.5 -255.5h-143q-41 100 -137.5 161t-219.5 61q-150 0 -256 -96.5t-129 -243.5h510v-132h-510q23 -147 129.5 -243.5t255.5 -96.5q123 0 220.5 61.5t136.5 160.5h143q-43 -158 -181.5 -255.5 t-318.5 -97.5q-150 0 -269.5 71t-187 193.5t-67.5 272.5z" />
<glyph unicode="&#x455;" horiz-adv-x="942" d="M92 297h135q0 -100 67.5 -145.5t176.5 -45.5q104 0 174 40t70 122q0 55 -34 89t-84 53.5t-140 44.5q-111 29 -179.5 57.5t-116.5 86.5t-48 157q0 82 46 149.5t128 105.5t184 38q158 0 258 -88.5t100 -233.5h-135q0 98 -64.5 144.5t-158.5 46.5q-90 0 -156.5 -41 t-66.5 -121q0 -56 33.5 -89.5t84 -53t140.5 -44.5q111 -29 179.5 -57.5t116.5 -86.5t48 -157q0 -84 -47 -150.5t-133 -104.5t-199 -38q-172 0 -275.5 87.5t-103.5 234.5z" />
<glyph unicode="&#x456;" horiz-adv-x="421" d="M143 0v1024h136v-1024h-136zM143 1229v205h136v-205h-136z" />
<glyph unicode="&#x457;" horiz-adv-x="421" d="M-75 1188v164h163v-164h-163zM143 0v1024h136v-1024h-136zM334 1188v164h164v-164h-164z" />
<glyph unicode="&#x458;" horiz-adv-x="471" d="M-41 -303q16 -2 45 -2q96 0 142.5 53t46.5 170v1106h135v-1106q0 -172 -83 -263t-239 -91q-31 0 -47 2v131zM193 1229v205h135v-205h-135z" />
<glyph unicode="&#x459;" horiz-adv-x="1554" d="M20 0v127q12 -2 37 -2q96 0 144.5 69.5t48.5 241.5v588h135h440h97v-430h249q138 0 230 -80t92 -217t-92 -217t-230 -80h-315h-70v893h-401v-457q0 -240 -86 -339t-238 -99zM922 131h249q82 0 134.5 42t52.5 124t-52.5 124t-134.5 42h-249v-332z" />
<glyph unicode="&#x45a;" horiz-adv-x="1554" d="M143 0v1024h136v-430h507v430h136v-430h249q138 0 230 -80t92 -217t-92 -217t-230 -80h-315h-70v463h-507v-463h-136zM922 131h249q82 0 134.5 42t52.5 124t-52.5 124t-134.5 42h-249v-332z" />
<glyph unicode="&#x45b;" horiz-adv-x="1081" d="M20 1180v110h144v144h135v-144h295v-110h-295v-291q106 160 315 160q97 0 175.5 -46.5t126 -132.5t47.5 -200v-670h-136v670q0 119 -65.5 183.5t-171.5 64.5q-121 0 -206 -82t-85 -258v-578h-135v1180h-144z" />
<glyph unicode="&#x45c;" horiz-adv-x="1011" d="M143 0v1024h136v-455l491 455h180l-532 -492l553 -532h-180l-512 494v-494h-136zM401 1167h131l197 267h-164z" />
<glyph unicode="&#x45e;" horiz-adv-x="983" d="M41 1024h143l340 -829l295 829h144l-398 -1118q-55 -154 -165.5 -240t-247.5 -76v127l26 -2q86 0 152.5 59.5t99.5 155.5l27 76zM231 1188v119h532v-119h-532z" />
<glyph unicode="&#x45f;" d="M143 0v1024h136v-893h528v893h135v-1024h-135h-197v-295h-135v295h-244h-88z" />
<glyph unicode="&#x490;" horiz-adv-x="1003" d="M164 0v1434h655v245h144v-307v-74h-656v-1298h-143z" />
<glyph unicode="&#x491;" horiz-adv-x="768" d="M143 0v1024h480v213h135v-344h-479v-893h-136z" />
<glyph unicode="&#x2000;" horiz-adv-x="921" />
<glyph unicode="&#x2001;" horiz-adv-x="1842" />
<glyph unicode="&#x2002;" horiz-adv-x="921" />
<glyph unicode="&#x2003;" horiz-adv-x="1842" />
<glyph unicode="&#x2004;" horiz-adv-x="614" />
<glyph unicode="&#x2005;" horiz-adv-x="460" />
<glyph unicode="&#x2006;" horiz-adv-x="307" />
<glyph unicode="&#x2007;" horiz-adv-x="307" />
<glyph unicode="&#x2008;" horiz-adv-x="230" />
<glyph unicode="&#x2009;" horiz-adv-x="368" />
<glyph unicode="&#x200a;" horiz-adv-x="102" />
<glyph unicode="&#x2010;" horiz-adv-x="1064" d="M164 567v131h737v-131h-737z" />
<glyph unicode="&#x2011;" horiz-adv-x="1064" d="M164 567v131h737v-131h-737z" />
<glyph unicode="&#x2012;" horiz-adv-x="1064" d="M164 567v131h737v-131h-737z" />
<glyph unicode="&#x2013;" horiz-adv-x="1351" d="M164 567v131h1024v-131h-1024z" />
<glyph unicode="&#x2014;" horiz-adv-x="1556" d="M164 567v131h1229v-131h-1229z" />
<glyph unicode="&#x2018;" horiz-adv-x="471" d="M143 993v185q0 115 47.5 183.5t137.5 82.5v-82q-45 -16 -68.5 -54t-23.5 -130h92v-185h-185z" />
<glyph unicode="&#x2019;" horiz-adv-x="471" d="M143 983v82q45 16 69 54t24 130h-93v184h185v-184q0 -115 -47.5 -183.5t-137.5 -82.5z" />
<glyph unicode="&#x201a;" horiz-adv-x="471" d="M143 0v184h185v-184q0 -115 -47.5 -183.5t-137.5 -82.5v82q45 16 69 54t24 130h-93z" />
<glyph unicode="&#x201c;" horiz-adv-x="757" d="M143 993v185q0 114 47.5 183t137.5 83v-82q-45 -16 -68.5 -54t-23.5 -130h92v-185h-185zM430 993v185q0 115 47 183.5t137 82.5v-82q-45 -16 -68.5 -54t-23.5 -130h92v-185h-184z" />
<glyph unicode="&#x201d;" horiz-adv-x="757" d="M143 983v82q45 16 69 54t24 130h-93v184h185v-184q0 -115 -47.5 -183.5t-137.5 -82.5zM430 983v82q45 16 69 54t24 130h-93v184h185v-184q0 -115 -47.5 -183.5t-137.5 -82.5z" />
<glyph unicode="&#x201e;" horiz-adv-x="757" d="M143 0v184h185v-184q0 -115 -47.5 -183.5t-137.5 -82.5v82q45 16 69 54t24 130h-93zM430 0v184h185v-184q0 -115 -47.5 -183.5t-137.5 -82.5v82q45 16 69 54t24 130h-93z" />
<glyph unicode="&#x2022;" horiz-adv-x="614" d="M102 719q0 84 60.5 143.5t146.5 59.5q84 0 143.5 -59.5t59.5 -143.5q0 -86 -59.5 -146.5t-143.5 -60.5q-86 0 -146.5 60.5t-60.5 146.5z" />
<glyph unicode="&#x2026;" horiz-adv-x="1249" d="M143 0v184h185v-184h-185zM532 0v184h185v-184h-185zM921 0v184h185v-184h-185z" />
<glyph unicode="&#x202f;" horiz-adv-x="368" />
<glyph unicode="&#x2039;" horiz-adv-x="679" d="M143 633l226 368h168l-226 -368l226 -369h-168z" />
<glyph unicode="&#x203a;" horiz-adv-x="679" d="M143 264l226 369l-226 368h168l226 -368l-226 -369h-168z" />
<glyph unicode="&#x205f;" horiz-adv-x="460" />
<glyph unicode="&#x20ac;" horiz-adv-x="1269" d="M20 545v119h144v53q0 47 2 69h-146v119h156q37 258 174 405.5t357 147.5q207 0 337 -130t160 -357h-145q-25 166 -117 257t-235 91q-156 0 -255.5 -106.5t-129.5 -307.5h518v-119h-531q-2 -23 -2 -69v-53h533v-119h-521q29 -207 129.5 -318.5t258.5 -111.5q147 0 240 95 t116 269h145q-29 -236 -161 -370t-340 -134q-223 0 -360.5 152t-172.5 418h-154z" />
<glyph unicode="&#x2122;" horiz-adv-x="950" d="M82 1358v76h317v-76h-116v-334h-82v334h-119zM449 1024v410h81h15l114 -236l115 236h94v-410h-82v264l-86 -174h-82l-88 176v-266h-81z" />
<glyph unicode="&#x25fc;" horiz-adv-x="1024" d="M0 0v1024h1024v-1024h-1024z" />
</font>
</defs>
</svg>
