<svg width="25" height="26" viewBox="0 0 25 26" fill="none" xmlns="http://www.w3.org/2000/svg"><path fill-rule="evenodd" clip-rule="evenodd" d="M2.911 5.507C3.138 4.295 4.261.002 8.985 0c4.725-.002 4.244 4.29 4.019 5.502l-2.7 14.475c-.337 1.8-1.34 6.021-6.17 6.023-4.829.002-4.255-4.221-3.92-6.021l.298-1.592h3.863c-.64 3.427-.741 4.36.366 4.359.967 0 1.337-.832 1.699-2.769l.89-4.777a4.375 4.375 0 01-2.048.624c-3.97 0-3.556-3.944-3.29-5.363l.92-4.954zm6.432-1.11a.962.962 0 00-.968-1.143 1.597 1.597 0 00-1.393 1.143l-1.376 7.374a1.004 1.004 0 00.967 1.142 1.495 1.495 0 001.375-1.04l1.395-7.477zm11.03-.42h-5.797l.692-3.703H25l-.698 3.739L16.39 25.72h-4.007l7.99-21.743z" fill="#EB5757"/></svg>