<svg width="165" height="40" viewBox="0 0 165 40" fill="none" xmlns="http://www.w3.org/2000/svg"><path fill-rule="evenodd" clip-rule="evenodd" d="M6.99 10.558L0 22.927h3.796l1.478-2.774h7.218l1.468 2.774h3.995l-6.92-12.37H6.99zm-.588 7.545l2.431-5.054h.05l2.563 5.054H6.402zm8.006-7.545l-.004 2.19h5.045l-.019 10.179h3.546l.019-10.178h5.044l.004-2.191H14.408zm15.339 0l-.008 4.029c-.005 2.93.363 6.467-2.384 6.467-.274 0-.724-.053-.949-.088l-.153 1.961c.474.074 1.124.144 1.698.144 5.195 0 5.102-3.696 5.109-7.848l.004-2.474h4.62l-.018 10.178h3.546l.022-12.37H29.747zm19.3 0l-6.99 12.369h3.795l1.48-2.774h7.216l1.469 2.774h3.995l-6.92-12.37h-4.046zm-.589 7.545l2.432-5.054h.05l2.563 5.054h-5.045zm12.404-7.545l-.022 12.369h3.546l.01-5.354h7.092l-.01 5.354h3.546l.023-12.37H71.5l-.009 4.984H64.4l.009-4.983h-3.546zm15.895 0l-.004 2.19h5.044l-.018 10.179h3.546l.018-10.178h5.045l.004-2.191H76.757zM145.2 1.846c9.899 0 17.972 8.155 17.972 18.154s-8.073 18.154-17.972 18.154c-6.411 0-12.056-3.422-15.238-8.55a20.184 20.184 0 01-1.059 1.729C132.48 36.562 138.455 40 145.2 40c10.906 0 19.8-8.984 19.8-20s-8.894-20-19.8-20c-6.745 0-12.72 3.438-16.297 8.667.38.557.735 1.134 1.059 1.729 3.182-5.128 8.827-8.55 15.239-8.55h-.001z" fill="#fff"/><path fill-rule="evenodd" clip-rule="evenodd" d="M145.206 2.16c9.727 0 17.66 8.014 17.66 17.84 0 9.825-7.933 17.839-17.66 17.839-6.366 0-11.963-3.433-15.071-8.56-.19.364-.388.72-.599 1.07 3.351 5.155 9.124 8.569 15.664 8.569 10.318 0 18.729-8.495 18.729-18.918 0-10.422-8.411-18.917-18.729-18.917-6.54 0-12.313 3.414-15.664 8.568.21.349.409.706.598 1.069 3.109-5.127 8.706-8.56 15.072-8.56z" fill="#fff"/><path fill-rule="evenodd" clip-rule="evenodd" d="M145.2 1.083c2.913 0 5.674.677 8.136 1.883a18.89 18.89 0 016.346 5.06 18.901 18.901 0 00-6.309-4.95 18.44 18.44 0 00-8.047-1.84c-5.159 0-9.841 2.123-13.233 5.55a19.065 19.065 0 00-2.451 3.046l-.107-.182a19.072 19.072 0 012.432-3.017c3.392-3.427 8.074-5.55 13.233-5.55zm-15.651 29.244c.397.626.83 1.227 1.296 1.8a18.742 18.742 0 01-1.309-1.778l.013-.022zm29.315-21.615A17.86 17.86 0 01162.866 20c0 4.913-1.983 9.373-5.182 12.604-3.199 3.232-7.614 5.235-12.478 5.235a17.38 17.38 0 01-7.582-1.733 17.82 17.82 0 01-5.949-4.664 17.84 17.84 0 005.985 4.773 17.381 17.381 0 007.672 1.777c4.864 0 9.279-2.003 12.478-5.235a17.875 17.875 0 005.182-12.604 17.88 17.88 0 00-1.098-6.187 17.941 17.941 0 00-3.03-5.253z" fill="#fff"/><path fill-rule="evenodd" clip-rule="evenodd" d="M158.37 6.57A18.949 18.949 0 01163.928 20c0 5.211-2.102 9.94-5.494 13.367-3.393 3.427-8.075 5.55-13.234 5.55a18.43 18.43 0 01-7.32-1.508 18.82 18.82 0 01-5.975-4.106 18.805 18.805 0 005.932 4.014 18.438 18.438 0 007.237 1.473c5.159 0 9.841-2.124 13.233-5.55a18.952 18.952 0 005.495-13.367A18.946 18.946 0 00158.37 6.57z" fill="#fff"/><path fill-rule="evenodd" clip-rule="evenodd" d="M146.669 26.172l4.249-8.916.799-1.784h.076l-.043 1.926.035 8.774h3.579l-.05-12.483h-6.048l-3.5 7.258-.773 2.211h-.075l-.79-2.211-3.557-7.258h-6.049l.05 12.483h3.578l-.034-8.774-.058-1.926h.075l.814 1.784 4.319 8.916h3.403z" fill="#fff"/><path fill-rule="evenodd" clip-rule="evenodd" d="M146.669 26.172l4.249-8.916.799-1.784h.076l.249-.252h-.575l-.799 1.783-4.249 8.916h-3.275l.122.253h3.403zm5.115-.253l.001.253h3.578l-.049-12.483h-.249l.049 12.23h-3.33zm-6.865-2.759l-.791-2.213-3.557-7.258h-.126l3.433 7.005.923 2.584h.076l.042-.118zm-10.348 2.76l.001.252h3.578l-.035-8.774-.057-1.926h.076l.035-.252h-.361l.058 1.925.034 8.774h-3.329z" fill="#fff"/><path fill-rule="evenodd" clip-rule="evenodd" d="M151.792 15.474l-.042 1.924.035 8.774.249-.258-.034-8.305.042-2.388-.25.253zm3.258-1.574l.264-.21h-6.048l-3.5 7.257-.772 2.211h-.074l-.043.12h.399l.74-2.12 3.5-7.258h5.534zm-14.479-.21h-6.049l.05 12.482.249-.242-.049-12.03h5.779l.02-.211zm-2.437 1.783l.813 1.783 4.319 8.916.023-.23-4.092-8.476-1.028-2.248-.035.255zM112.605 1.846c9.898 0 17.972 8.155 17.972 18.154s-8.074 18.154-17.972 18.154c-9.899 0-17.972-8.155-17.972-18.154 0-9.998 8.073-18.154 17.972-18.154zm0-1.846c10.905 0 19.799 8.985 19.799 20 0 11.016-8.894 20-19.799 20s-19.8-8.984-19.8-20c0-11.015 8.895-20 19.8-20z" fill="#fff"/><path fill-rule="evenodd" clip-rule="evenodd" d="M115.109 35.982c-.377.064-.728-.21-.792-.592.542-.072.837-.096 1.374-.232a.728.728 0 01-.582.824zm1.952-.443c-.368.108-.748-.124-.855-.495.53-.136.82-.195 1.338-.393a.73.73 0 01-.483.888zm1.807-.653c-.352.15-.757-.035-.906-.391.511-.197.792-.29 1.283-.548a.73.73 0 01-.377.939zm1.632-.793c-.332.191-.756.055-.945-.281.484-.256.753-.381 1.211-.695a.732.732 0 01-.266.976zm1.55-1.09c-.308.229-.744.143-.97-.168.451-.312.703-.468 1.122-.834a.733.733 0 01-.152 1.002zm1.551-1.23c-.28.263-.723.23-.984-.053.412-.362.645-.547 1.019-.96a.734.734 0 01-.035 1.013zm1.268-1.433a.695.695 0 01-.984.064c.368-.409.578-.62.901-1.073.292.25.33.714.083 1.009zm1.135-1.503a.694.694 0 01-.968.18c.317-.45.501-.683.77-1.172a.73.73 0 01.198.992zm.954-1.597a.695.695 0 01-.941.292c.263-.483.419-.737.63-1.255a.732.732 0 01.311.963zm1.218-3.721a.699.699 0 01-.849.504c.146-.531.239-.815.325-1.368a.73.73 0 01.524.864zm.383-1.902a.7.7 0 01-.785.601c.083-.545.143-.838.165-1.397.38.045.665.412.62.795zm.081-1.763c0 .387-.327.69-.71.69.02-.551.046-.85.002-1.407.383 0 .709.33.708.717zm-.502-3.816a.707.707 0 01-.488.864c-.135-.535-.194-.828-.391-1.35a.719.719 0 01.879.486zm-.552-1.826a.708.708 0 01-.385.916c-.196-.515-.289-.8-.545-1.295a.718.718 0 01.93.379zm-.753-1.762a.71.71 0 01-.277.955c-.254-.489-.379-.76-.69-1.223a.716.716 0 01.967.268zm-1.01-1.573c.227.311.143.752-.165.982-.309-.456-.464-.71-.827-1.133a.717.717 0 01.992.151zM112.61 2.16c9.728 0 17.661 8.014 17.661 17.84 0 9.825-7.933 17.838-17.661 17.838-9.727 0-17.66-8.013-17.66-17.839 0-9.825 7.933-17.839 17.66-17.839zm-.005-1.077c10.318 0 18.728 8.495 18.728 18.917 0 10.423-8.41 18.918-18.728 18.918-10.318 0-18.728-8.495-18.728-18.918 0-10.422 8.41-18.917 18.728-18.917zm4.406 33.264c.244-1.211-.195-2.156-.81-3.126.151-.19.264-.367.358-.59 1.017.939 1.287 2.384 1.287 3.437-.277.05-.553.203-.835.279zm-3.565.62c1.807-.348 2.548-.582 3.012-1.819.189.672.176.964.114 1.345-1.042.247-2.04.418-3.126.475zm-.828-.348l-.007-.393c-1.845-.057-2.68-.323-2.68-1.198 0-.95 1.08-1.065 2.693-1.014l-.013-.406c1.701.082 2.825.425 2.856 1.433.038 1.078-1.268 1.515-2.849 1.578zm-.402-3.22c-2.128-.038-3.621.355-3.728 1.654.05 1.205 1.902 1.794 3.728 1.763v-.387c-.998 0-3.031-.07-2.994-1.433.038-1.204 1.751-1.249 2.994-1.242v-.355zm-1.437 1.648c-.013-.482.627-.818 1.832-.824v.26c.741-.045 1.237.19 1.243.577.013.469-.552.615-1.243.602v.317c-1.173-.063-1.807-.216-1.832-.932zm7.55.799c0-1.122-.458-2.358-1.218-3.341l.992.158c.471.564.753 1.078.998 2.847-.245.152-.502.234-.772.336zm-7.017-.805c.006-.387.533-.419.904-.38v.766c-.421.032-.91-.019-.904-.386zm8.241.177c-.032-1.439-.327-1.654-.728-2.51-.044-.095.521-.057.897-.165.345.742.621 1.223.59 2.219-.257.177-.452.323-.759.456zm1.142-.602c0-.609-.176-1.44-.571-2.206a1.15 1.15 0 00.615-.298c.276.463.577 1.414.558 2.086-.182.05-.407.323-.602.418zm1.054-.818c-.025-.741-.138-1.179-.64-1.914.088-.058.508-.438.527-.438.49.609.565 1.11.697 1.883-.044.146-.452.406-.584.47zm.973-.811c-.113-.996-.22-1.338-.741-2.01.132-.146.289-.228.427-.526.546.665.753 1.16.898 1.959a3.594 3.594 0 01-.584.577zm-11.667.114c-1.249 0-2.529-.501-1.971-1.674.282-.748 1.142-.9 3.496-.222.96.057 2.642-.405 3.445.343.295.272.044.786-.282 1.56l-4.688-.007zm1.161-.38v-.546c.646.095.991.324 2.096.038.157.02.107.146.056.222-.269.336-1.663.476-2.152.286zm7.581-.552c.295-1.458-.301-1.585-.426-2.238.433-.393.64-.412 1.098-.387.351 1.122-.038 2.397-.672 2.625zm3.915-.38c-.031.007-.469-1.148-.977-1.642.188-.19.251-.267.351-.527.54.463.904.977 1.13 1.617l-.504.553zm-10.699.139l.019-.368.364.026c-.007.108 0 .17-.019.291-.088.032-.201.038-.364.051zm.734-.025c.019-.12.019-.197.075-.285.088.012.164.038.264.019 0 .107.044.177-.006.291a.585.585 0 01-.333-.025zm.753.07c-.138 0-.012-.146-.056-.235.113-.032.194.038.295.089.05.025.006.082.019.133-.044.063-.182.012-.258.012zm-2.29-.102v-.476c.426-.044.439.058.42.508l-.42-.032zm5.403-1.128c.339-.057.647-.197.973-.248.126.254.151.818-.182 1.35-.307-.443-.377-.684-.791-1.102zm-4.669-.856c.219.152.439.24.671.367-.219 1.357-.74.045-.671-.367zm11.598.982c-.408-.843-.609-1.058-1.224-1.635.138-.267.138-.412.189-.768.816.52 1.324 1.42 1.506 1.788-.088.178-.257.343-.471.615zm-8.353-.4c-1.808-.22-2.837-1.654-3.59-1.774h-.383v.97c-.954-.083-.49-.343-1.525-.343-1.055 0-1.023.393-1.984.831.691-1.452.892-1.845 1.796-1.933.326 0 2.039.532 2.108.044v-2.111c1.481.07 1.965-.343 2.693-1.065.15.24.784.69 1.029.342-.195-.355-1.111-.082-.665-1.3 1.148-.893 2.203.996 1.004 1.858-1.105 1.027-2.366 1.02-3.785 1.02-.044 1.503 2.41 2.993 3.735 2.568 2.108-.203 3.395-2.821 4.857-1.908.49.304.264.723.628 1.09.282-.025.282-.203.345-.412-.941-.615.508-1.775-1.563-1.965-.866-.082-1.18-1.503-3.219-.957.947-1.344 3.288-1.199 4.129-.634 2.227 1.488.733 5.637.145 5.192-.063-2.67-4.946.754-5.756.488h.001zm9.05-.665c-.301-.659-.954-1.54-1.632-1.997v-.665c.584.133 1.651 1.191 2.09 1.883-.157.316-.276.551-.421.792l-.037-.013zm-11.85-2.295c.208.02.553-.025.779.203.251.241.332.545 1.506 1.357.082.063-1.588-.387-2.285-1.56zm1.256-.101c.244 0 .64.044.784.234.245.305.521.8 1.688 1.294-1.098.095-2.654-1.135-2.472-1.528zm8.774-1.008c0-.317-.151-.735-.258-1.014.816.177 1.77 1.191 2.454 1.781l.007.057c.853.767.564.856.257 1.445-.308-.748-1.851-1.901-2.46-2.27zm-7.871.723c.195 0 .722-.007.873.183.176.229.747.85 1.531 1.11-.634.222-2.196-.869-2.404-1.293zm1.042-.457c.245-.012.452-.101.716.064.219.139.025.412 1.299 1.21-.502.064-1.902-.754-2.015-1.274zm.998-.4c.201-.056.333-.056.59.058.483.228.126.482 1.105.963-.54.127-1.544-.557-1.695-1.02zm3.622-2.408c.244-.888 3.069.729 3.069.906.075-.183.175-.203.213-.336-.289-.215-1.87-1.255-2.328-1.312-.013-.05.332-.38.37-.488.119-.02.979.31 1.086.374.357-.45-.515-.488-.772-.837.125-.127.169-.292.244-.514.214.076.477.406.672.267.094-.114.1-.203.063-.31-.703-.47-.603-.153-.427-1.015.966.095.609-.19.107-.457l.1-.583c.22.07.615.146.496-.228-.157-.076-.214-.032-.414-.21.069-.183.087-.335.106-.583.163-.063.251-.025.383-.07.044-.266-.194-.272-.351-.405.031-.184.018-.304.018-.507l.358.05c.082.007.163-.316.038-.348-.232-.07-.665-.292-.822-.552 1.387.197 1.537-.463 2.228-.9.075-.05.414.038.546.152l.188.425c-.201.063-.496-.14-.634-.108-.05.304.1.304.1.355.151.057.735.235.791.431l.113.393c-.401-.164-.64-.45-.834-.044.615.216.822.488.998.621.012.12.119.292.138.463-.352 0-.716-.45-1.036-.291l.006.019-.018.152c.282.07 1.387.85 1.236 1.204-.352.02-.785-.539-1.042-.342 0 .19.101.291.157.355.477.513 1.136.298 1.054 1.223-.426-.114-.508-.203-1.123-.443-.326.17.232.532.471.589.295.095.684.361.69.552l.025.538c-.446-.139-.973-.659-1.406-.342 0 .666 1.532.203 1.35 1.661-.465.089-.816-.513-1.193-.513l-.094.374c.402.222.778.684 1.199.862l-.101.57c-.301-.05-.891-.64-1.098-.64-.163.184-.213.305-.069.463 0 .019.69.57 1.067.729-.245 1.775-1.525-.66-1.55.4.295.354.866.595 1.142 1.046-.075.266-.151.424-.22.614-1.657-1.439-3.251-2.555-5.29-3.41zm-1.218 2.776c-.471.038-1.456-.304-1.5-.862.91.07.59.419 1.5.862zm-1.036-2.878c-.564-.019-2.372-.684-2.956-1.591.17 0 1.582 1.135 3.038 1.198 1.142.05 2.523-.21 3.025-.92h.044c-.37.85-2.033 1.351-3.151 1.313zm-6.345-.76V16.55c.088-.044.49.92.515 1.046.508 2.688.107 3.38-.515 3.398zm6.54-.153c-1.149-.095-2.592-.735-3.345-1.87l.019-.006c1.192.964 2.359 1.452 3.445 1.458 1.368.006 2.034-.406 3.496-1.268-.64.97-2.272 1.591-3.615 1.686zm-1.224-.627l-.012-.045.012.045zm1.174-.247c-.716-.007-2.624-.66-3.91-2.359.088-.013 2.366 1.832 3.037 1.813 1.601.609 3.998-.494 4.952-1.635-.609 1.16-2.152 2.212-4.079 2.18zm1.28-.85c-3.427.349-5.849-3.341-5.849-3.341l.044-.108c1.989 1.712 3.044 3.024 5.014 3.113 2.122.095 3.126-1.027 3.703-2.986h.069c-.044 1.452-.966 3.113-2.981 3.322zm-14.969-.279c-1.732-.127-3.207-1.585-2.824-3.106.289-.387.866 1.325 1.802 1.546 1.587.704 3.188-.71 3.483-1.306.207-.412.646-.488.872-.279-.201 1.084-1.268 1.687-1.751 1.991-.954.558-2.033.5-2.598.178-.201-.02-.289.133-.057.272 1.13.57 1.783.286 2.573.02a.909.909 0 01.609-.21c.327.368-1.431 1.02-2.108.894h-.001zm11.316-2.308l.666-.209c.389.736 1.907 1.775 3.188 1.16 1.406-.665 1.356-1.946 1.274-3.201l.646.146c.232.862.427 2.77-1.682 3.702-1.65.729-3.351-.412-4.092-1.598zm3.659.552c-1.023.412-1.926-.222-2.46-.964.151-.108.521-.456.691-.475.207.767.815.944 1.418.748.69-.228 1.017-1.148.333-1.896.282-.165.477-.19.765-.177.571 1.788-.113 2.504-.746 2.764h-.001zm-14.981-.235c-1.004-.133-1.318-.678-1.393-1.249.1-.576.32-.614.722-.659-.798 1.502 2.41 1.908 2.14-.019.1-.038.081-.101.1-.165 0-.006-.1-.057-.15-.089-.848-.615-1.4-.462-2.536-.196-.063.095-.941.336-1.123.374v-.013c-.766-.107-1.042-.564-1.224-1.204 1.563.754 2.228-1.154 3.558-1.401 1.745-.323 2.511 1.16 2.969 2.46.063.595-.333.5-.483.056-.333-1.343-1.03-1.8-2.448-1.66l.006.482c2.467.056 2.963 3.157-.138 3.283zm9.703-1.21c2.536-.343 2.448-1.18 4.042-2.27.571-.235 1.826.019 2.197.469-2.956.273-2.04 1.268-3.76 2.029-1.048.462-1.876.095-2.479-.229zm-2.46-2.498c-.377-3.246 2.874-4.134 5.322-3.38 2.165.761 3.402 1.06 5.586.54-.709 1.996-2.241 1.787-2.824 2.022-1.984.14-2.335 1.578-4.155 2.618-1.563.59-3.722.006-3.929-1.8zm11.197 1.153a1.82 1.82 0 01-1.03-.418c0-.05.007-.095.025-.14.942.026 2.172-.557 2.436-1.54.144.159.307.476.464.793-.364.855-.941 1.305-1.895 1.305zm-9.923-1.122c-.552-.919.37-1.965 1.312-2.3 1.318-.255 3.025-.026 3.954.697-.057.209-.207 0-.327.075-1.625-.367-1.87.876-2.404 1.414-.527.533-1.945 1.097-2.535.114zm8.768.159c-.352-.045-1.387-.241-1.438-.672.604-.776 2.405-.022 2.825-2.213.282.406.772 1.084.96 1.344-.515 1.18-1.751 1.54-2.347 1.54zm-9.327-1.287c.239-1.42 1.431-1.984 1.915-2.06 1.945-.305 3.182.665 4.908 1.014-.007.063-.019.089-.038.146-1.211.025-3.747-1.401-5.178-.679-.49.248-.671.292-1.607 1.579zm-.144-1.99c.596-.749 2.322-1.63 2.912-1.757 1.519-.387 2.41-.387 3.816.565.326.336.421.564.421.716-3.804-1.167-4.638-1.034-7.149.475zm-.471-.641c.753-2.396 3.415-4.184 5.9-3.126.521.298 1.243.894.521 1.275-1.745-.076-2.373-.032-3.226.234-.747.235-1.826.47-2.95 1.978l-.031.007c-.364.374-.377-.026-.214-.368zm9.528.526c-.22-.247.426-.678.577-.767l.615.564c-.075.26-.973.203-1.192.203zm-.71-.025c-.389-.171.113-1.35.327-1.604l.539.43c.258.204-.357.629-.696 1.117l-.17.057zm-.753-.799c-.276-.621-.063-1.008.301-1.363l.459.31c-.333.438-.433.666-.383 1.174.006.12-.182.076-.377-.121zm-10.192-.913c.037.361-.163.203-.345.108-2.8-1.205-3.509-.482-5.429-.013-.239-.038-.095-.228.025-.266 1.625-.894 3.025-1.452 4.97-1.116 0 .02.402.165.779 1.287zm9.602.032c-.176-.235-.288-.666.076-1.065.226.133.351.222.52.38-.2.114-.313.285-.282.495 0 .513-.22.24-.314.19zm-7.117-.583c-.282-.013-.408-.108-.496-.362v-.615c.283 0 .841.362.898-.05-.427-.241-.565-.146-.898-.324v-.475c.528.05.973.19 1.481.317.584-.59-1.23-.602-1.481-.774V5.02c1.293-.057 2.58.14 3.822.482l-.037.12c-1.055.07-2.015.799-2.831 1.667-.069.076-.176.374-.458.362zm8.479 24.952l-.019-.044.019.044zM112.63 19.95l-.025-.051.025-.026v.077zm-.42-16.468l.006.885a.787.787 0 01.722-.558c.383 0 .696.33.696.729h-1.023c-.131 0-.257.006-.395.006-2.906.133-6.772 1.09-9.032 3.449-.119.184-.006.273.245.14.266-.139 3.72-2.502 7.143-1.75.966.52 1.65 2.035 1.65 2.815v1.56c-1.192-1.459-4.042-2.537-5.83-2.175-.521.107-.27.323-.176.36 1.512-.012 5.743 1.58 6.006 3.798l-.006 9.928c1.186.057 1.651-.298 1.908-.551.395-.393.822-1.363.697-2.276l-.446.158h-.025c-.176 1.401-.571 1.87-1.726 2.213v-.583c.803-.076 1.173-.787 1.098-2.352-.075-1.49-.508-2.676-1.111-3.912v-1.141c.59 1.186 1.117 3.461 1.507 3.867.301-.108-.459-2.149-.729-2.923.295-.354.804.8 1.111 1.402.553 1.388 1.927 6.092-.295 6.834-1.995.526-3.495.285-4.085-.609-.948-1.578.998-3.5.383-4.273l-.528-4.843c-.383-3.392-5.027-4.565-6.859-2.384-.302.482.106.33.345.14 1.481-.97 4.738-1.167 5.667 1.673.22.57.201 1.737-.439.222-1.124-1.775-2.787-2.6-4.739-1.192-.332.216-1.525 1.28-1.933.704-.728-.945.923-2.282.866-2.872l-.257.152c-1.161.983-1.952 3.385-1.211 5.275.113.488.659.925-.389 1.166-2.197.812-2.549 3.037-2.561 3.962 0 3.633 3.037 7.78 6.891 5.808a5.226 5.226 0 001.506-1.459l-.219-.177c-5.994 6.333-9.772-6.023-4.77-6.796.583.684 1.412 1.496 2.303 1.699 1.745.4 3.37-.33 5.241-2.986.295-.298.364-.013.314.14-.189 1.007-1.268 2.428-1.45 2.82-.107.235-.019.527.313.254.415-.577.54-.97.91-1.04l-.828 1.775c-.308.482-.559.761.257.653.766 0 .415.38.534.97.709 1.04-.986 1.814-1.13.33.006-.526.433-.9.138-.982-.307.1-.703.862-.722 1.705l-.772 1.154.182.19.873-1.23c.389.881 1.801.38 1.876.361.308.013.477.089.647.317.012.324.219.419.288.862.452.482-.2.672-.596.825-1.575.595-1.675 1.56-2.309 2.326-.421.52-.596.343-.979.742-.283.5.389.716.508.976.188.393.584.932 1.136 1.167.358.12.577.215.025.532-.402.273-.577.97-.577 1.198 0 .603.131 1.376.903 1.877a9.1 9.1 0 01-1.192-.4c.401-.506.044-.659-.032-.785-.182.044-.188.69-1.016.399.276-.482 1.958-2.447 1.136-2.732-.666 1.128-.923 2.428-2.36 2.174.634-.482 1.613-1.002 2.071-2.498l-.226-.076c-.552 1.135-1.676 2.517-3 1.858.577-.28.967-.526 1.274-.774.276-.228 1.525-1.312 1.073-1.547-.753.761-2.403 2.523-3.389 1.484.578-.159 1.199-.406 1.663-.717.452-.304 1.111-.95 1.469-1.166l-.151-.304c-.37.076-2.039 1.445-2.391 1.534-.527.133-.947.5-1.682-.317.948-.095 1.82-.368 2.241-.634.339-.216 1.569-.818 1.719-.824l-.169-.305c-.86.298-1.557 1.326-3.433 1.326-.138 0-.872-.045-1.469-.78l.013-.045c1.148.178 2.096.152 3.201-.177.533-.197 1.035-.533 1.575-.672l-.176-.406c-1.016.45-1.757.932-3.006.932-1.406 0-1.626.21-2.479-.92.15-.177 1.18.337 1.889.337 1.544 0 2.241-.045 3.527-.647l-.157-.304c-.433.19-1.449.494-2.378.532-2.109.02-3.728-.925-3.835-1.826.603.508 1.494 1.135 2.517 1.25.784.082 2.893-.007 3.646-.292l-.125-.298c-.396.158-2.09.304-2.599.304-1.079 0-2.272-.767-2.567-1.001-2.127-1.731-2.742-6.93-1.531-8.597.257-.843 1.764-2.111 1.739-2.371-.252-2.454-.383-3.341 1.468-5.94-1.6.989-2.755 3.182-2.04 5.268.321.932-1.054 1.75-1.45 2.409-1.8 2.999-.985 6.2.283 9.237 1.726 3.632 5.787 8.787 13.6 9.224.559.044.854.019 1.4 0 0 .393-.301.723-.684.723-.282 0-.603-.165-.703-.412l-.031.754c-8.818-.228-15.879-7.563-15.885-16.527-.013-9.079 7.054-16.141 15.903-16.506h.001zm.401-.012v-.53c-9.778.038-16.845 7.88-16.833 17.041.013 9.529 7.143 16.895 16.833 17.111v-.564c9.013-.007 16.356-7.424 16.356-16.528 0-9.103-7.343-16.527-16.356-16.53zm2.241.478c.38.046.637.44.593.824-.54-.083-.827-.175-1.38-.196a.722.722 0 01.787-.628zm1.826.38c.373.09.595.515.506.891-.527-.146-.813-.273-1.36-.36a.72.72 0 01.854-.53zm1.72.584c.359.133.53.547.399.91-.507-.207-.775-.333-1.309-.484a.72.72 0 01.91-.426zm1.757.805c.342.175.464.606.291.951-.479-.266-.731-.423-1.244-.634a.718.718 0 01.953-.317zm1.626 1.065c.319.214.39.656.179.979-.445-.32-.677-.506-1.162-.777a.716.716 0 01.983-.202zm1.449 1.122c.293.25.312.698.065.993-.405-.37-.614-.582-1.064-.908a.715.715 0 01.999-.085zm1.431 1.363c.262.283.23.73-.05.994-.359-.415-.542-.65-.952-1.027a.715.715 0 011.002.033zm3.829 8.68a.705.705 0 01-.585.8c-.073-.547-.097-.845-.233-1.387a.722.722 0 01.818.586zm-.822 7.379a.698.698 0 01-.902.401c.206-.511.332-.782.481-1.32a.73.73 0 01.421.919z" fill="#fff"/><path fill-rule="evenodd" clip-rule="evenodd" d="M127.668 25.326a.669.669 0 01-.291.348.713.713 0 01-.439.093l-.023.056-.023.056c.18.067.372.058.536-.014a.672.672 0 00.366-.387.739.739 0 00-.197-.782.747.747 0 01.107.304.711.711 0 01-.036.326zm.822-7.38a.675.675 0 01-.099.478.72.72 0 01-.383.297l.011.087.012.092a.721.721 0 00.458-.282.68.68 0 00.049-.74.723.723 0 00-.143-.182.723.723 0 01.095.25zm-3.746-8.569a.69.69 0 01.088.46.73.73 0 01-.221.424c-.157-.181-.28-.329-.404-.468a7.158 7.158 0 00-.403-.423.216.216 0 00-.019.017c.205.188.353.341.495.499.142.158.277.32.457.528a.731.731 0 00.228-.49.682.682 0 00-.177-.504l-.022-.022-.022-.02zm-1.375-1.31a.71.71 0 01.095.42.739.739 0 01-.169.41c-.177-.162-.317-.294-.455-.418a7.048 7.048 0 00-.451-.373l-.016.018-.016.018c.225.163.39.297.549.437.159.14.313.286.515.471a.738.738 0 00.171-.506.681.681 0 00-.223-.476zm-1.388-1.075a.734.734 0 01-.021.768c-.195-.14-.35-.254-.502-.362a7.096 7.096 0 00-.493-.318 2.078 2.078 0 00-.041.057c.242.135.422.25.596.37s.343.246.566.406a.74.74 0 00.116-.485.688.688 0 00-.221-.436zm-1.559-1.026a.74.74 0 01.024.702c-.206-.114-.37-.209-.531-.296a6.932 6.932 0 00-.512-.253l-.111-.047a.886.886 0 00-.085-.034c-.004.007.028.04.061.074.032.034.064.067.061.074.256.106.447.199.634.297.187.1.37.205.609.338a.746.746 0 00.067-.46.696.696 0 00-.217-.395zm-1.686-.773a.727.727 0 01.061.629c-.225-.092-.402-.168-.577-.237a6.913 6.913 0 00-.559-.196l-.085-.025-.085-.025c-.009-.003.012.026.039.061a.834.834 0 00.084.091 7.1 7.1 0 01.665.22c.197.077.391.16.644.264a.74.74 0 00.023-.426.702.702 0 00-.21-.356zm-1.652-.56a.764.764 0 01.1.587c-.235-.066-.422-.127-.606-.183a5.43 5.43 0 00-.586-.148l-.085-.014-.084-.015c-.012-.002.015.033.048.07a.82.82 0 00.079.082c.274.043.482.097.688.158.206.06.409.13.672.202a.766.766 0 00-.016-.403.767.767 0 00-.21-.336zm-1.755-.367a.793.793 0 01.116.506c-.243-.038-.435-.077-.622-.11a5.299 5.299 0 00-.599-.077l-.078-.004-.078-.004c-.011 0 .006.028.033.062a.518.518 0 00.09.09c.277.01.487.039.695.074.208.036.415.08.685.122a.791.791 0 00-.242-.659zm9.933 5.278a16.515 16.515 0 00-5.489-4.398 16.11 16.11 0 00-7.036-1.675l-.066-.001-.066-.002.066.077.066.077c2.51.001 4.891.578 7.019 1.606a16.5 16.5 0 015.506 4.315zM112.611 2.94c-4.889.02-9.1 1.99-12.088 5.1-2.987 3.11-4.75 7.36-4.745 11.941.003 2.16.372 4.21 1.053 6.089a16.619 16.619 0 002.929 5.073 16.64 16.64 0 01-2.837-5.017 17.904 17.904 0 01-1.018-5.992c-.006-4.53 1.719-8.738 4.647-11.838 2.928-3.1 7.059-5.136 11.865-5.198l.074-.005.12-.153zm-.264 33.002a.517.517 0 01-.125-.181l-.016.377-.015.377a16.028 16.028 0 01-6.709-1.658 16.427 16.427 0 01-5.283-4.159 16.428 16.428 0 005.321 4.267 16.02 16.02 0 006.797 1.703l.015-.363.015-.363zm1.246-.334a.735.735 0 01-.236.402.656.656 0 01-.432.163.85.85 0 01-.551-.206.685.685 0 00.286.26c.122.063.26.099.391.099a.662.662 0 00.486-.214.745.745 0 00.198-.51l-.072.004-.07.002zM101.485 9.79a35.18 35.18 0 01.331-.478 4.918 4.918 0 00-1.888 2.222c-.4.933-.51 2.003-.151 3.046.16.466-.104.903-.457 1.306-.353.404-.795.773-.993 1.103-.9 1.5-1.147 3.05-1.01 4.604.138 1.555.658 3.114 1.292 4.633a17.346 17.346 0 002.351 3.667 17.38 17.38 0 01-2.225-3.515c-.633-1.518-1.154-3.077-1.292-4.632-.137-1.555.11-3.105 1.01-4.604.198-.33.64-.7.993-1.103s.617-.84.457-1.306c-.323-.94-.265-1.903.042-2.767a4.996 4.996 0 011.54-2.176zm3.893 17.299l-.036-.086-.036-.086c-.198.079-.72.155-1.257.211-.536.056-1.087.093-1.341.093-.54 0-1.108-.192-1.578-.413a5.56 5.56 0 01-.989-.589 3.891 3.891 0 01-.445-.436c.088.112.18.218.275.316.095.099.194.19.296.273.147.117.519.368.989.589.47.221 1.038.413 1.578.413.244 0 .761-.034 1.277-.086.515-.053 1.03-.124 1.267-.2zm.191.631l-.044-.085-.043-.085a6.635 6.635 0 01-1.004.324 7.13 7.13 0 01-1.375.21 6.247 6.247 0 01-2.117-.334c-.6-.212-1.077-.507-1.375-.83.26.357.738.69 1.363.931.626.242 1.4.393 2.255.385.451-.018.923-.1 1.339-.2.415-.1.775-.22 1.001-.316zm.215.608l-.038-.087-.038-.088c-.509.225-.948.458-1.417.635a4.33 4.33 0 01-1.59.297c-.628 0-1.019.042-1.336-.013-.317-.054-.559-.205-.889-.59.376.472.63.661.958.732.327.07.727.024 1.393.024a4.33 4.33 0 001.568-.289c.461-.172.893-.399 1.389-.62zm.304.745l-.046-.083-.046-.083c-.43.15-.819.48-1.335.775a4.026 4.026 0 01-2.098.55c-.064 0-.257-.01-.505-.093a2.067 2.067 0 01-.835-.54l-.001.003-.001.003c.298.368.631.563.906.666.275.103.493.114.562.114.926 0 1.565-.25 2.078-.539.512-.289.899-.617 1.321-.773zm.273.546l-.041-.084-.041-.082c-.185.038-.695.399-1.203.762-.507.363-1.013.727-1.188.772-.246.062-.469.175-.71.195-.242.02-.503-.052-.827-.361h-.009l-.01.002c.367.409.655.521.918.515.263-.007.5-.132.764-.198.169-.043.645-.384 1.134-.734.49-.35.992-.708 1.213-.787zm.422.72a.171.171 0 00-.096-.183c-.357.36-.914.945-1.507 1.35-.593.406-1.221.632-1.719.276-.006.002-.145-.125-.152-.123-.006.002.121.132.115.134.486.513 1.134.343 1.757-.051.622-.395 1.219-1.015 1.602-1.403zm.751.456l.016-.05.015-.05-.113-.038-.113-.038c-.259.533-.644 1.12-1.117 1.526-.473.404-1.034.627-1.644.43-.02 0-.233-.109-.252-.1-.019.01.075.102.139.154.663.33 1.275.15 1.79-.255.515-.405.934-1.035 1.21-1.602l.034.012.034.01h.001zm.522.411a.298.298 0 00-.073-.112.35.35 0 00-.129-.076c-.309.524-.53 1.085-.821 1.51-.286.416-.64.702-1.212.697-.029 0-.092 0-.154-.008-.082-.01-.164-.027-.175-.02-.027.021.026.105.128.149.719.127 1.143-.135 1.47-.57.327-.433.558-1.04.89-1.605a.445.445 0 01.076.035zm-.144 2.36a.617.617 0 00-.096-.122c-.034-.035-.064-.064-.081-.093-.084.02-.13.168-.236.293-.106.125-.271.228-.593.16-.036-.004-.2-.069-.19-.047.072.154.209.183.361.209.265.045.417-.032.518-.136.128-.13.175-.303.266-.326a.19.19 0 00.022.03l.029.032zm.93.94a8.222 8.222 0 01-.891-.295l-.027.039-.032.04a8.826 8.826 0 001.193.4 2.207 2.207 0 01-.243-.184zm.123-3.334c-.007.036-.035.076-.088.124a1.518 1.518 0 01-.245.166c-.201.137-.345.38-.439.616a1.844 1.844 0 00-.138.582c0 .243.021.514.098.784.076.269.207.537.426.775a1.936 1.936 0 01-.322-.707 2.942 2.942 0 01-.076-.699c0-.114.044-.345.138-.582.094-.237.238-.48.439-.616.208-.119.306-.207.33-.276.023-.07-.029-.12-.123-.167zm1.595-7.128c.008.157.063.26.125.379.061.118.129.252.163.471.226.241.176.41.02.536-.157.127-.419.212-.616.289-.788.298-1.207.688-1.508 1.099-.301.411-.485.844-.802 1.227-.21.26-.359.346-.504.416-.144.07-.284.126-.475.326a.425.425 0 00-.054.337.62.62 0 00.173.257.397.397 0 01-.061-.199.466.466 0 01.068-.242c.191-.2.331-.255.475-.326.145-.07.294-.156.504-.416.317-.383.501-.816.802-1.227.301-.412.72-.802 1.508-1.1.197-.075.46-.161.616-.288.156-.127.206-.295-.02-.536a1.42 1.42 0 00-.166-.476.85.85 0 01-.123-.386.913.913 0 00-.125-.14zm-1.986-2.346c.008-.04.007-.075-.008-.102-.015-.028-.044-.048-.091-.061-.153.05-.329.266-.469.574-.139.308-.243.71-.252 1.13l-.386.578-.386.577.067.07.067.07.382-.57.382-.571c.009-.41.107-.8.24-1.104.134-.304.303-.523.455-.591h-.001zm.858-.268c.024.085.016.192.011.32-.006.127-.009.274.024.437.275.404.188.768-.03.974-.217.207-.566.258-.815.034.222.36.615.366.878.173.262-.193.394-.586.093-1.028-.046-.226-.022-.421-.019-.576.003-.155-.014-.27-.142-.334zm-.056-2.365l-.35.75-.35.75c-.116.182-.224.335-.27.45-.045.114-.028.189.107.215a.744.744 0 01.101-.219c.052-.086.119-.185.188-.293l.415-.888.414-.888a.526.526 0 00-.255.123zm.369-2.427a.301.301 0 01-.014.116c-.094.504-.412 1.111-.728 1.641s-.631.984-.722 1.18a.426.426 0 00-.038.244c.013.07.053.119.122.12a.409.409 0 01.007-.103.493.493 0 01.035-.108c.091-.196.406-.65.723-1.18.316-.53.633-1.137.727-1.64a.325.325 0 00.004-.181c-.017-.056-.054-.096-.116-.089zm-2.906 8.27l.012-.017a.166.166 0 00.011-.016l-.109-.088-.11-.09c-1.189 1.257-2.29 1.778-3.253 1.8-.963.021-1.787-.456-2.423-1.195.63.8 1.466 1.336 2.452 1.348.986.012 2.121-.5 3.35-1.8l.035.03.035.028zm-4.008-14.679a.993.993 0 00.044-.137.392.392 0 00.008-.121l-.128.076-.129.076c-.58.491-1.068 1.338-1.319 2.297-.25.96-.262 2.033.108 2.977.056.244.221.476.241.676.019.2-.106.37-.63.49-1.099.407-1.736 1.166-2.1 1.94a5.089 5.089 0 00-.46 2.023c0 .83.158 1.686.448 2.49a7.1 7.1 0 001.24 2.176 7.21 7.21 0 01-1.149-2.121 7.386 7.386 0 01-.414-2.392c.007-.463.098-1.25.462-2.024.364-.773 1.001-1.533 2.099-1.938.524-.12.649-.29.63-.49-.02-.201-.185-.433-.241-.677-.37-.944-.358-2.017-.108-2.977.251-.96.739-1.806 1.319-2.297l.039-.024.04-.023zm5.477 2.564c-.552-.694-1.206-1.172-1.939-1.319-.734-.146-1.548.037-2.419.665-.156.102-.504.392-.871.61-.366.218-.752.364-.984.177l.023.035.025.035c.205.288.605.166.995-.055.391-.221.772-.541.939-.65.838-.604 1.623-.796 2.335-.68.712.118 1.351.546 1.896 1.182zm.26-.762c.115.149.22.312.314.491.094.18.177.374.246.587.078.203.126.482.127.688 0 .206-.047.34-.159.254.18.279.264.199.282-.01a2.047 2.047 0 00-.124-.78 3.66 3.66 0 00-.297-.68 3.196 3.196 0 00-.389-.55zm.648-.21c-.74-.94-1.904-1.5-3.064-1.61-1.16-.111-2.316.227-3.036 1.085-.093.148-.118.236-.103.282.016.045.073.048.146.027a1.268 1.268 0 01.083-.156c.701-.834 1.812-1.178 2.94-1.094 1.127.083 2.27.593 3.034 1.467zm4.634 3.555c.115.16.234.372.346.587.111.216.216.434.305.607.276.694.757 2.218.892 3.66.135 1.442-.076 2.804-1.187 3.174-.916.242-1.728.322-2.395.251-.667-.07-1.189-.292-1.527-.652.307.424.83.692 1.521.789.691.097 1.549.023 2.527-.235 1.111-.37 1.322-1.732 1.187-3.174s-.616-2.966-.892-3.66c-.105-.205-.233-.474-.368-.725-.135-.252-.277-.486-.409-.622zm-1.112-.88c.269.616.524 1.42.756 2.119.233.698.443 1.289.624 1.477l.007-.003.007-.004c-.188-.33-.403-.988-.637-1.698-.235-.71-.49-1.472-.757-2.01v.12zm2.101 5.537l-.007-.096-.011-.095-.223.079-.223.08h-.025c-.085.674-.22 1.132-.467 1.464-.246.333-.717.577-1.246.747l.113.154c.577-.172.965-.375 1.23-.71.265-.335.408-.802.496-1.503h.025l.169-.06.169-.06zm-3.138-8.466c.142.183.26.373.349.569.088.195.148.398.172.605l-.003 4.964-.003 4.964a3 3 0 00.126.005l.003-4.89.004-4.89a2.102 2.102 0 00-.213-.688 3.048 3.048 0 00-.435-.638zm-.33-4.473c.262.335.475.726.622 1.1.147.375.229.733.229 1.004v1.56c-.596-.73-1.606-1.364-2.691-1.77-1.085-.407-2.245-.586-3.139-.405-.246.05-.32.125-.319.194 0 .07.075.132.126.159-.002-.035.014-.072.063-.107a.695.695 0 01.256-.093c.894-.181 2.054-.002 3.139.404 1.085.407 2.095 1.04 2.692 1.77V9.35c0-.29-.096-.684-.266-1.09a4.343 4.343 0 00-.712-1.166zm2.152-2.95a.75.75 0 01.111.394h-1.023l-.195.003a7.964 7.964 0 01-.2.003 17.54 17.54 0 00-4.758.89c-1.612.55-3.144 1.38-4.273 2.559-.047.072-.058.13-.039.164.018.036.067.049.14.032l.011-.021.014-.022c1.129-1.18 2.661-2.008 4.273-2.56a17.552 17.552 0 014.758-.89c.069.001.135 0 .2-.002s.13-.003.196-.003h1.023a.736.736 0 00-.238-.547zm-1.307.223a.673.673 0 01.124-.245l-.002-.244-.002-.243c-.024-.042-.1-.117-.124-.15a8.853 8.853 0 00-.001.416l.005.466zm1.989 1.534c-.029-.156-.298-.25-.608-.318-.31-.069-.662-.111-.859-.165v.103c.088.06.367.1.669.154.301.052.624.117.798.226zm-.716.8a.44.44 0 00.02-.078 1.561 1.561 0 00-.43-.173c-.116-.027-.217-.041-.341-.09v.093c.145.078.254.103.366.128.111.024.226.047.385.12zm-.382.95a.838.838 0 01-.183-.026.425.425 0 01-.136-.063c.043.082.096.14.168.179a.635.635 0 00.277.062.375.375 0 00.31-.147c.07-.082.114-.176.149-.214.407-.434.852-.833 1.325-1.133.474-.3.978-.5 1.505-.534l.019-.06.019-.06-.08-.022-.081-.022-.001.006-.002.005c-.527.035-1.031.234-1.505.534-.474.3-.918.699-1.326 1.133-.034.038-.078.132-.149.214a.371.371 0 01-.309.148zm7.684-.084a.577.577 0 00-.206.206.42.42 0 00-.047.27c0 .216-.038.293-.09.307-.052.013-.117-.038-.169-.078a.588.588 0 00.072.115c.047.025.125.106.192.116.066.01.121-.05.121-.306a.42.42 0 01.055-.283.601.601 0 01.228-.212 4.177 4.177 0 00-.156-.135zm-15.927.726l-.008.002-.008.002c-.119-.019-.143-.076-.122-.133a.255.255 0 01.147-.133c.813-.447 1.569-.81 2.365-1.019a5.969 5.969 0 012.606-.097c0 .006.032.021.087.066.055.046.132.12.223.244a.998.998 0 00-.134-.12c-.032-.023-.05-.033-.05-.037a5.972 5.972 0 00-2.606.097c-.796.209-1.552.572-2.365 1.019a.242.242 0 00-.076.042.246.246 0 00-.059.067zm16.676-.186c-.153.205-.252.364-.307.534-.055.17-.066.35-.042.595.003.05-.028.071-.079.065a.442.442 0 01-.199-.098l.013.032a.43.43 0 01.014.033.688.688 0 00.264.18c.071.02.116 0 .113-.06-.025-.253-.012-.437.048-.612s.169-.342.335-.56l-.08-.055-.08-.054zm.954.734c.013.113-.103.262-.259.436-.157.173-.353.37-.498.58l-.083.028-.084.028a.29.29 0 00.046.094.203.203 0 00.078.06l.084-.029.085-.028c.17-.244.408-.473.572-.665.164-.193.254-.35.125-.451l-.033-.026-.033-.027zm.964.922c-.057.103-.258.149-.481.169-.223.019-.469.012-.616.009a.192.192 0 00.002.079c.007.025.02.05.04.072.11 0 .389.014.65-.004.261-.018.505-.069.542-.199l-.068-.063-.069-.063zm-4.088-2.878c.08.119.122.24.097.355-.024.116-.114.226-.297.322-.872-.038-1.465-.046-1.947-.011a5.304 5.304 0 00-1.279.246c-.373.117-.83.234-1.334.51-.503.277-1.054.713-1.616 1.467l-.015.004-.016.003a.938.938 0 01-.105.094.326.326 0 01-.082.048c-.004.087.017.15.067.16.137.028.412-.358.514-.455.537-.52.947-.93 1.38-1.167.503-.277.96-.394 1.333-.512a5.32 5.32 0 011.279-.245c.482-.035 1.075-.027 1.947.01.223-.116.308-.254.304-.398-.004-.143-.097-.292-.23-.43zm.795 2.227c.077.102.128.19.16.268a.537.537 0 01.044.198c-1.675-.514-2.774-.775-3.695-.778-.92-.003-1.661.252-2.62.773a4.135 4.135 0 00-.587.496 2.04 2.04 0 00-.12.137c1.255-.754 2.091-1.165 3.089-1.24.998-.077 2.157.182 4.059.765a.575.575 0 00-.07-.255 1.69 1.69 0 00-.26-.364zm-6.8 2.932c.119-.71.477-1.206.865-1.534.388-.328.807-.488 1.049-.526.973-.152 1.768.014 2.536.262s1.509.578 2.372.752a.606.606 0 01-.011.065l-.018.055c-.823-.187-1.54-.506-2.286-.741-.747-.236-1.524-.388-2.467-.24-.21.033-.555.158-.897.407a2.51 2.51 0 00-.88 1.145l-.127.168-.136.187zm9.326 1.287a4.674 4.674 0 01-.628-.127c-.247-.069-.499-.167-.655-.297.088.183.359.317.649.41.29.093.598.146.76.167.298 0 .757-.09 1.204-.328a2.498 2.498 0 001.143-1.213l-.445-.617a67.693 67.693 0 01-.515-.727.039.039 0 01-.002.011l-.002.01c.142.203.311.439.465.653l.373.517c-.257.59-.695.975-1.143 1.213-.448.238-.906.328-1.204.328zm-8.768-.159c-.276-.46-.183-.95.096-1.369a2.539 2.539 0 011.216-.932 6.232 6.232 0 012.123-.017c.708.116 1.367.353 1.831.715l-.009.027a.323.323 0 01-.009.021c-.477-.32-1.117-.528-1.793-.627a6.213 6.213 0 00-2.017.034 2.539 2.539 0 00-1.216.932c-.279.419-.372.91-.095 1.37l.021.034.022.033a1.04 1.04 0 01-.17-.22zm9.923 1.122a2.024 2.024 0 01-.492-.107 1.745 1.745 0 01-.408-.214l-.003.028v.028c.15.12.299.214.465.283.165.069.347.113.564.135.477 0 .86-.112 1.169-.331.309-.22.544-.546.726-.974a8.811 8.811 0 00-.237-.456 1.928 1.928 0 00-.227-.337l-.002.006-.001.005c.055.085.112.184.169.292.058.107.115.222.172.337-.182.428-.417.754-.726.973-.309.22-.692.332-1.169.332zm-.366-3.794c-.368.892-.914 1.291-1.439 1.495-.524.205-1.026.215-1.308.328-.992.07-1.575.464-2.139.972-.563.507-1.106 1.126-2.016 1.646a3.597 3.597 0 01-1.841.172c-.61-.103-1.174-.368-1.564-.798.369.494.948.803 1.586.932a3.595 3.595 0 001.945-.153c.91-.52 1.453-1.14 2.016-1.646.564-.508 1.147-.902 2.139-.972.292-.117.821-.124 1.365-.35.545-.227 1.105-.674 1.459-1.672l-.102.024-.1.022h-.001zm-2.17 3.342c-1.455.139-1.957.456-2.31.832-.352.377-.555.814-1.412 1.193-.451.2-.863.245-1.232.205a2.998 2.998 0 01-.985-.3l-.067.01-.068.01c.301.161.659.334 1.072.409.413.074.883.05 1.407-.181.859-.38 1.06-.82 1.416-1.198.355-.378.865-.695 2.343-.83a.875.875 0 00-.164-.15zm-13.756-.11a1.515 1.515 0 00-.796-.57c-.331-.104-.733-.126-1.22-.078l.004.24.003.242.062.002c.021 0 .041.002.062.003l-.002-.167-.003-.167c.44-.043.81-.03 1.121.05.311.08.564.226.769.446zm.106-.657c.18.234.334.498.466.773.133.275.245.562.343.84.022.203-.01.326-.068.382-.057.056-.14.045-.22-.019.088.152.205.229.294.203.088-.025.148-.154.12-.413a7.909 7.909 0 00-.388-.932 3.94 3.94 0 00-.547-.834zm-.698 1.753l.006-.035c.002-.011.004-.024.008-.035a.274.274 0 00-.057-.035l-.094-.054c-.424-.308-.774-.424-1.16-.429-.386-.005-.808.099-1.376.232-.031.048-.266.132-.517.209-.25.077-.515.146-.606.165v-.012a1.596 1.596 0 01-.467-.134 1.147 1.147 0 01-.334-.237c.096.137.215.252.366.34a1.5 1.5 0 00.561.183V15c.091-.02.356-.089.607-.165.25-.077.485-.161.517-.209.568-.133.989-.238 1.376-.232.386.005.735.121 1.159.428l.005.004.006.003zm-2.333.742a.675.675 0 00.206.34.674.674 0 01-.101-.364.986.986 0 01.127-.452c-.019-.085-.087-.16-.121-.155-.097.013-.176.403-.111.63zm.777 1.28a2.216 2.216 0 01-.621-.167 1.338 1.338 0 01-.412-.282c.101.146.241.277.43.38.189.105.428.181.73.222 1.107-.046 1.756-.47 2.019-1 .264-.53.143-1.164-.288-1.63.346.472.406 1.07.117 1.56-.288.49-.926.874-1.975.917zm13.269-1.032a1.065 1.065 0 00.248.386 1.07 1.07 0 01-.101-.185 1.568 1.568 0 01-.078-.221.205.205 0 00-.033.007.492.492 0 00-.036.013zm1.713 1.266a1.69 1.69 0 01-1.264.015c-.384-.145-.723-.414-.995-.725.27.349.623.663 1.029.84a1.7 1.7 0 001.356.023c.317-.13.646-.374.825-.809.179-.435.207-1.061-.078-1.955l-.041-.002h-.04c.243.838.199 1.429.017 1.84a1.467 1.467 0 01-.809.773zm2.148-2.524c.106.456.179 1.127-.025 1.794-.205.668-.687 1.333-1.69 1.776-.712.315-1.433.281-2.082.047-.65-.235-1.227-.67-1.652-1.162a4.14 4.14 0 001.678 1.277c.675.268 1.434.321 2.182-.009 1.054-.466 1.533-1.176 1.719-1.877.186-.701.079-1.394-.037-1.825l-.047-.01-.046-.011zm-13.804 1.204c-.116.52-.432.927-.778 1.24-.347.313-.723.534-.959.682a3.077 3.077 0 01-1.445.42c-.46.015-.871-.08-1.154-.242-.098-.01-.17.023-.189.074-.02.052.012.122.121.191-.003-.036.015-.067.049-.088a.245.245 0 01.145-.024c.283.161.694.256 1.154.242a3.08 3.08 0 001.445-.42c.241-.152.629-.379.981-.703.352-.324.669-.745.77-1.287a.466.466 0 00-.14-.085zm-3.319 3.076a3.459 3.459 0 01-1.27-.346 3.258 3.258 0 01-.998-.752c.264.344.619.639 1.029.857a3.47 3.47 0 001.365.394c.339.063.948-.068 1.431-.261.483-.194.841-.449.678-.633a.487.487 0 00-.097 0c-.068.185-.454.398-.898.55-.444.154-.944.246-1.24.191zm18.011-2.966l-.064-.087a3.51 3.51 0 01-.043.49 3.56 3.56 0 01-.874 1.845c-.483.522-1.164.904-2.061.997-1.253.128-2.371-.284-3.286-.859-.915-.574-1.626-1.31-2.065-1.831.402.497 1.146 1.226 2.052 1.895 2.539 1.874 6.085 1.083 6.34-2.45h.001zm-4.323 4.095c-.338-.003-.941-.15-1.62-.484a6.504 6.504 0 01-2.069-1.6 6.477 6.477 0 002.127 1.72c.706.357 1.339.514 1.688.517 1.393.04 2.722-.474 3.624-1.684.263-.352.335-.651.294-.58-.11.191-.442.66-.591.768a4.532 4.532 0 01-1.478.973 4.961 4.961 0 01-1.975.37zm.05.874a4.84 4.84 0 01-1.619-.445 4.395 4.395 0 01-1.45-1.064c.391.502.921.896 1.488 1.175a4.859 4.859 0 001.708.487 6.441 6.441 0 001.978-.475c.031-.013.063-.024.093-.04.853-.453 1.337-.987 1.528-1.414.043-.096-.44.511-.524.56-.391.35-.913.634-1.477.841a6.446 6.446 0 01-1.725.375zm-6.411-4.14c.076.135.168.335.243.514.075.178.134.335.143.38.237 1.251.276 2.07.188 2.59-.087.519-.303.74-.576.794l-.125.01.125.158c.31-.01.566-.187.681-.699.114-.51.088-1.355-.167-2.7a4.815 4.815 0 00-.23-.58c-.114-.25-.236-.48-.282-.466zm6.217 5.053c-.257-.008-.772-.151-1.312-.39-.539-.238-1.103-.572-1.46-.963.319.431.907.803 1.483 1.07.576.266 1.141.427 1.415.436.559.02 1.271-.054 1.855-.323.401-.184.955-.486 1.289-1.336-.011 0-.365.629-.968.984a4.64 4.64 0 01-1.141.404 4.77 4.77 0 01-1.161.118zm.888 2.88a2.089 2.089 0 01-.597-.137 1.63 1.63 0 01-.544-.326c.128.204.383.366.655.473.272.106.561.158.76.142a3.258 3.258 0 01-.274-.153zm6.83-.051a.564.564 0 01.045.069c-.037.133-.075.24-.112.336-.037.096-.073.184-.107.279a23.674 23.674 0 00-2.434-1.88 16.978 16.978 0 00-2.695-1.462.285.285 0 00-.021.04c-.005.013-.011.028-.015.044 1.02.428 1.928.92 2.789 1.486a23.526 23.526 0 012.502 1.925c.034-.096.071-.183.108-.28.036-.096.074-.202.112-.335a1.546 1.546 0 00-.172-.222zm.44-1.292c-.137.805-.515.623-.862.37-.347-.252-.662-.576-.675-.055a1.564 1.564 0 00.127.133c.021-.503.347-.157.699.094s.729.408.85-.474a1.186 1.186 0 01-.139-.068zm.2-1.124l-.043.244-.043.244c-.151-.026-.374-.186-.585-.34-.211-.153-.41-.3-.513-.3-.082.091-.135.167-.15.24-.015.073.008.143.08.222 0 .002.006.008.016.017l.043.038a.206.206 0 01.002-.171.73.73 0 01.135-.194c.103 0 .303.148.514.301.211.154.433.314.584.34l.05-.286.05-.285a1.216 1.216 0 01-.14-.07zm-.014-1.56a.85.85 0 01.114.312c.021.124.024.27.002.442-.232.045-.436-.084-.629-.223-.193-.14-.375-.29-.563-.29l-.047.187-.047.187a2.187 2.187 0 01.142.089l.039-.155.039-.155c.188 0 .37.15.563.29.193.14.397.268.629.223a1.348 1.348 0 00-.03-.562.772.772 0 00-.212-.344zm.121-1.192c.008.016.014.03.019.046a.161.161 0 01.007.043l.013.27.012.269c-.222-.07-.466-.235-.707-.343-.242-.107-.482-.158-.698 0 0 .065.014.12.04.165a.373.373 0 00.11.118.379.379 0 01-.024-.13c.216-.158.456-.108.698 0 .242.108.485.273.708.343l-.013-.27-.012-.27a.24.24 0 00-.044-.117.69.69 0 00-.109-.124zm-.086-1.14c.033.06.057.131.07.218.013.087.016.19.005.313a2.966 2.966 0 01-.491-.174c-.151-.066-.325-.149-.633-.27-.085.046-.11.104-.096.166a.418.418 0 00.139.19.141.141 0 01-.009-.11c.012-.034.041-.065.093-.092.307.12.481.203.632.27a3 3 0 00.491.173 1.094 1.094 0 00-.033-.435.54.54 0 00-.168-.25zm-.188-1.038a.659.659 0 01.094.18.222.222 0 01-.001.153c-.175.01-.372-.125-.556-.237-.184-.113-.357-.203-.485-.105 0 .095.025.168.057.225.032.057.071.098.099.13l.017.017.016.017a.441.441 0 01-.063-.236c.128-.098.301-.008.485.104.185.113.381.248.556.238.027-.063.014-.139-.026-.222a1.152 1.152 0 00-.193-.264zm-.222-1.158c.015.057.043.122.069.191.026.07.05.143.058.216-.176 0-.355-.112-.53-.205-.174-.093-.346-.166-.506-.087l.004.01.003.01-.01.076-.009.076a.459.459 0 01.061.02l.077.036.004-.028.003-.027-.003-.01-.003-.01c.16-.079.331-.006.506.087.174.093.353.205.529.205a1.035 1.035 0 00-.071-.25c-.031-.08-.061-.152-.067-.213a1.097 1.097 0 01-.055-.045c-.02-.016-.039-.034-.06-.052zm-.283-1.012l.054.19.055.19c-.201-.083-.361-.195-.495-.237-.134-.04-.243-.01-.34.192l.09.033.085.034c.093-.137.197-.142.324-.094.127.048.277.149.462.224l-.057-.196-.056-.197a.188.188 0 00-.043-.07.498.498 0 00-.079-.069zm-.406-1.02l.072.165.072.163c-.1.032-.224-.003-.34-.042-.116-.039-.224-.082-.294-.066-.025.152 0 .229.032.273.031.044.069.057.069.082l.013.005.015.006a.336.336 0 01-.013-.087.689.689 0 01.011-.126c.069-.016.177.027.293.066.116.039.24.074.341.042l-.095-.213-.094-.212a.33.33 0 00-.038-.028.357.357 0 00-.045-.027h.001zm-1.931 1.336a.192.192 0 00-.014-.086c-.01-.024-.026-.041-.051-.047a1.914 1.914 0 01-.342-.148 1.68 1.68 0 01-.353-.25c.072.12.202.23.344.322.142.092.296.165.416.209zm-.459 4.306c-.001-.013-.004-.027-.007-.041l-.013-.043a4.727 4.727 0 00-.259-.161l-.17-.098c.003.06.032.094.103.139.07.044.181.1.346.205zm-.148 1.072c-.027-.098-.14-.17-.278-.24-.138-.07-.301-.136-.429-.224a.422.422 0 01-.009.01l-.009.009c.077.104.208.18.345.248.137.068.28.127.38.197zm.774 1.715a.178.178 0 00.01-.023.116.116 0 00.009-.027 16.094 16.094 0 00-.941-.618c-.427-.263-.898-.53-1.199-.642a.686.686 0 00-.047.063c-.011.018-.017.03-.015.038.203.025.627.244 1.06.498.434.253.878.543 1.123.711zm-5.319 2.825c-.208.003-.459-.08-.7-.209a2.545 2.545 0 01-.635-.477c.154.217.435.45.736.616.3.165.621.262.854.207a4.26 4.26 0 01-.255-.137zm-.656.64c-.22-.017-.539-.139-.854-.31a3.491 3.491 0 01-.829-.607c.176.252.545.533.925.744.381.21.772.351.991.323a11.351 11.351 0 01-.233-.15zm-.726.502c-.3.005-.71-.161-1.098-.384-.388-.223-.753-.503-.963-.724.154.229.595.59 1.073.867.477.277.992.47 1.295.365a2.524 2.524 0 01-.307-.124zm7.857-.182c-.255-.328-.639-.685-1.028-1.006a11.87 11.87 0 00-1.059-.78l.003.038v.038c.235.142.61.401.999.71.389.307.792.664 1.085 1zm.427-.586c.135.187.153.32.109.46-.045.138-.15.282-.262.489a1.536 1.536 0 01.102.197c.131-.252.259-.412.296-.572.037-.16-.015-.322-.245-.574zm-9.14 1.262c-.371-.018-.777-.162-1.142-.357a3.587 3.587 0 01-.899-.67c.184.256.561.57 1 .809.438.239.939.405 1.369.368a5.98 5.98 0 01-.328-.15zm-1.358.112a4.445 4.445 0 01-.831-.349 3.833 3.833 0 01-1.05-.803c.381.499.931.844 1.376 1.057.445.214.785.295.748.266a6.46 6.46 0 01-.243-.171zm9.86-.411a3.663 3.663 0 01.279.384c-.076.155-.144.29-.209.415a7.66 7.66 0 01-.2.36l.04.08c.013.026.026.052.037.078l.019.007.019.006c.072-.12.138-.24.206-.368.067-.128.136-.266.215-.425a4.454 4.454 0 00-.182-.26 6.115 6.115 0 00-.223-.277h-.001zm-.859.084a5.423 5.423 0 00-.396-.448 3.98 3.98 0 00-.43-.378v.062c.145.097.288.214.426.343.139.13.273.272.4.42zm-2.178-3.388c.624.818.687 1.967.523 2.921-.164.954-.556 1.715-.84 1.756l.004.06.002.062c.272.205.735-.566.938-1.603.203-1.037.145-2.34-.627-3.196zm-.375 1.503a.704.704 0 00-.346-.289c-.177-.079-.425-.137-.77-.169-.41-.039-.697-.378-1.101-.666-.405-.288-.928-.526-1.81-.361a1.76 1.76 0 00-.183.223c1.02-.273 1.609-.054 2.05.243.442.297.737.673 1.17.714.261.024.467.063.628.115.161.052.278.116.362.19zm-.271 1.078c.079.132.104.273.143.416.04.143.093.288.229.425h.007c-.087-.144-.113-.292-.153-.435a.787.787 0 00-.226-.406zm-4.743-3.61c.159.232.239.537.2.842-.04.304-.199.608-.52.84a3.527 3.527 0 01-1.774.894c-.631.127-1.301.126-2.01.126-.007.232.046.465.146.69.1.226.246.443.426.647a2.31 2.31 0 01-.334-.577 1.537 1.537 0 01-.112-.607c.709 0 1.379.001 2.01-.126a3.521 3.521 0 001.774-.895 1.207 1.207 0 00.194-1.835zm-.675 1.144l.008-.01a.065.065 0 00.008-.01c-.052-.096-.155-.146-.27-.191-.115-.046-.241-.087-.341-.163a.517.517 0 00.269.236c.111.051.231.085.326.138zm-.128 5.019c-.904-.11-1.613-.524-2.19-.925-.578-.402-1.023-.79-1.4-.85h-.383v.97c-.477-.041-.599-.127-.732-.202-.132-.076-.275-.14-.793-.14-.474 0-.729.08-.953.206-.224.128-.417.303-.769.494-.046.033-.403.162-.436.207-.031.042.192.075.301.076.48-.219.712-.426.956-.58.244-.152.5-.25 1.027-.25.518 0 .661.065.793.14.133.075.255.16.732.202v-.97h.383c.377.06.822.449 1.4.85.577.4 1.286.814 2.19.925.348.114 1.446-.452 2.592-.923 1.145-.472 2.338-.85 2.873-.359-.431-.68-1.647-.338-2.847.144-1.199.482-2.381 1.105-2.744.985zm8.229-1.156a5.408 5.408 0 01.595.94 1.45 1.45 0 01-.176.258c-.075.092-.164.194-.264.318l.047.093.049.1c.106-.137.202-.246.282-.344a1.43 1.43 0 00.188-.271 5.196 5.196 0 00-.721-1.093zm-.415.63a3.61 3.61 0 00-.243-.28 7.844 7.844 0 00-.304-.3.056.056 0 01-.005.011l-.006.012c.117.11.22.207.311.298.092.09.173.175.247.26zm-10.401.39c-.045.24-.1.385-.159.459-.059.073-.122.076-.184.033.078.134.168.214.255.168.086-.046.168-.217.228-.586l-.07-.038-.07-.036zm5.041.327c.033.143.041.327.009.529a1.761 1.761 0 01-.236.637l.054.083.061.089a1.74 1.74 0 00.262-.78c.02-.24-.018-.444-.08-.57a.746.746 0 00-.035.005l-.035.007zm-6.433 1.21v-.475c.14-.015.236-.014.3.01.065.025.098.072.113.149a.428.428 0 00-.118-.016c-.047 0-.103.003-.169.01v.332l-.063-.005-.063-.005zm2.291.102c-.069 0-.072-.037-.064-.084.009-.048.029-.107.007-.151a.219.219 0 01.152.014c.047.02.093.05.143.075.019.01.025.023.025.04 0 .016-.005.034-.007.054a.346.346 0 00-.089-.034.208.208 0 00-.098.004.09.09 0 01.01.043.188.188 0 01-.004.047 1.209 1.209 0 00-.075-.008zm-.753-.07c.009-.06.014-.11.023-.155a.39.39 0 01.052-.13c.044.006.085.015.127.02a.426.426 0 00.137-.001c0 .03.003.056.007.082.004.026.008.05.01.076a.759.759 0 01-.077-.011l-.078-.014a.361.361 0 00-.039.082.565.565 0 00-.019.086.445.445 0 01-.064-.012 1.212 1.212 0 01-.079-.023zm-.735.025l.01-.184.009-.183.182.012.182.013-.003.075-.002.069-.116-.009-.117-.008-.005.103-.005.102-.064.005-.071.005zm10.646-1.714a3.625 3.625 0 01.557 1.023l-.236.26-.237.26.065.136c.016.033.027.05.03.05l.252-.277.252-.276a3.57 3.57 0 00-.683-1.176zm-3.148-.52c.124.489.114.997.01 1.427-.104.43-.302.782-.554.96l-.02.117-.023.124c.317-.114.573-.49.705-.977a3.008 3.008 0 00-.033-1.648l-.043-.002-.042-.002zm-8.295 3.027v-.546c.323.048.571.129.877.162.305.033.667.019 1.22-.124.06.008.089.03.1.06.011.03.004.068-.011.103-.538.135-.893.147-1.194.113-.3-.034-.546-.114-.866-.16v.429a1.31 1.31 0 01-.126-.037zm-1.161.38c-.364 0-.731-.043-1.055-.132-.323-.09-.602-.226-.791-.414.158.241.446.416.797.53.351.115.764.169 1.175.169l2.344.003 2.344.003c.164-.387.308-.708.375-.968.066-.259.055-.455-.092-.591a.264.264 0 00-.019-.017l-.019-.017c.07.146.048.338-.027.578-.074.24-.202.526-.344.862l-2.344-.003-2.344-.003zm11.478-2.493c.227.294.387.561.507.846.12.285.2.588.266.956a3.42 3.42 0 01-.486.496l.015.114.014.12a3.532 3.532 0 00.583-.577 4.3 4.3 0 00-.298-1.03 4.105 4.105 0 00-.599-.93l-.001.003-.001.002zm-.778.995a2.6 2.6 0 01.388.801c.082.276.13.572.19.925-.017.058-.091.133-.182.206a2.63 2.63 0 01-.286.2 48.023 48.023 0 01.011.216 2.45 2.45 0 00.325-.203c.124-.091.237-.193.259-.266-.066-.386-.118-.705-.215-1.003a2.642 2.642 0 00-.482-.88l-.003.001a.057.057 0 00-.005.003zm-.92.688c.123.25.243.578.33.918.087.34.141.691.133.989a.745.745 0 00-.236.142c-.082.066-.166.142-.248.202l.005.116c.002.038.002.075.002.111.098-.047.203-.14.306-.226.104-.086.206-.167.297-.193.009-.335-.061-.741-.169-1.12a4.212 4.212 0 00-.39-.965l-.015.013-.015.012zm-1.035.418c.154.326.289.61.382.926.094.317.145.667.13 1.127-.111.077-.21.148-.312.214a3.07 3.07 0 01-.328.188 3.256 3.256 0 01.007.207 2.9 2.9 0 00.399-.211c.119-.076.232-.156.36-.245a3.433 3.433 0 00-.153-1.205c-.109-.337-.264-.643-.436-1.014l-.024.007-.025.006zm-7.584 2.095v.624a2.22 2.22 0 01-.416-.004.797.797 0 01-.342-.107c.048.128.177.2.34.238.163.038.36.04.544.026v-.768a1.913 1.913 0 00-.126-.01zm6.01-1.988a3.1 3.1 0 01.504.936c.141.409.26.953.371 1.758-.104.065-.21.117-.318.163a7.25 7.25 0 01-.332.128l.003.1.001.098c.135-.05.267-.097.396-.15a2.42 2.42 0 00.376-.186c-.122-.884-.254-1.455-.414-1.875-.16-.42-.348-.69-.584-.972h-.003zm-5.488 1.662c.272-.005.506.03.689.098.183.068.314.168.379.294a1.013 1.013 0 00-.431-.193 2.317 2.317 0 00-.637-.041v-.158zm-1.959.57c-.006-.242.151-.446.46-.591.309-.145.77-.23 1.373-.234v.155c-.562.014-.992.104-1.279.248-.288.143-.434.342-.428.574a.98.98 0 00.031.219.731.731 0 00.075.18.672.672 0 01-.167-.234.876.876 0 01-.065-.318zm-1.256.736a1.025 1.025 0 01-.3-.788c.018-.602.456-.914 1.045-1.075.588-.16 1.327-.17 1.948-.167v-.204h.063l.063.002v.355c-.621-.003-1.36.006-1.948.167-.589.16-1.027.473-1.045 1.075-.004.127.011.243.041.348a.97.97 0 00.133.287zm-.683.063c.315.334.818.583 1.412.744a7.18 7.18 0 001.964.225v-.234h.126v.387c-.733.012-1.47-.075-2.093-.262s-1.132-.474-1.409-.86zm6.446-1.39a1.046 1.046 0 01.181.584c.019.525-.281.898-.777 1.15-.495.251-1.186.382-1.948.423l.001.079.001.08c.791-.032 1.513-.158 2.032-.41.519-.252.836-.63.817-1.17a1.035 1.035 0 00-.307-.736zm-2.672 1.918l-.001-.074-.001-.075c-.629-.02-1.14-.063-1.541-.146-.401-.084-.691-.208-.879-.388.147.23.416.39.817.496.4.107.932.162 1.605.187zm3.918-.94c.055.239.078.423.081.587.003.165-.015.31-.041.47-.285.068-.567.13-.848.186a17.84 17.84 0 01-.845.146c-.18.054-.377.103-.595.151-.216.049-.453.096-.711.146a15.36 15.36 0 001.579-.166 20.23 20.23 0 001.546-.31c.031-.19.05-.358.038-.562a3.808 3.808 0 00-.151-.782 1.476 1.476 0 01-.053.133zm.4-2.397c.356.458.584.988.724 1.517.139.53.19 1.058.19 1.513-.112.02-.223.058-.336.1-.112.041-.224.088-.338.128-.004.034-.01.067-.016.101-.005.034-.012.068-.019.103.142-.038.281-.095.42-.15a2.48 2.48 0 01.415-.13c0-.48-.056-1.043-.215-1.602-.158-.559-.418-1.114-.825-1.58zm-4.327-29.955c2.913 0 5.674.677 8.136 1.883a18.894 18.894 0 016.346 5.06 18.903 18.903 0 00-6.309-4.95 18.443 18.443 0 00-8.047-1.84c-5.159 0-9.841 2.123-13.233 5.55a18.955 18.955 0 00-5.495 13.367c0 2.269.4 4.446 1.13 6.465a18.99 18.99 0 003.117 5.51A18.96 18.96 0 0193.878 20c0-5.212 2.102-9.941 5.494-13.368 3.392-3.427 8.074-5.55 13.233-5.55zm13.664 7.63A17.859 17.859 0 01130.271 20c0 4.912-1.983 9.372-5.182 12.604-3.199 3.231-7.614 5.235-12.478 5.235a17.38 17.38 0 01-7.582-1.734 17.822 17.822 0 01-5.948-4.664 17.83 17.83 0 005.984 4.773 17.383 17.383 0 007.672 1.777c4.864 0 9.279-2.003 12.478-5.234a17.876 17.876 0 005.183-12.605c0-2.173-.389-4.258-1.099-6.187a17.94 17.94 0 00-3.03-5.253zm-.413 2.214a.69.69 0 01.082.49.737.737 0 01-.265.43l.054.08.057.085a.73.73 0 00.283-.46.678.678 0 00-.211-.625zm.977 1.523a.676.676 0 01.063.512.73.73 0 01-.304.42l.044.086.047.09a.732.732 0 00.334-.424.685.685 0 00-.194-.702l.005.009a.04.04 0 01.005.009zm.754 1.762c.07.168.067.348.007.507a.732.732 0 01-.335.38l.033.089.035.093a.724.724 0 00.381-.381.68.68 0 00-.168-.778.708.708 0 01.047.09zm.552 1.826a.679.679 0 01-.047.495.73.73 0 01-.361.34l.022.089.023.093a.725.725 0 00.423-.334.682.682 0 00-.135-.851.75.75 0 01.075.168zm.502 3.816c0 .17-.064.325-.168.445a.721.721 0 01-.41.233 58.294 58.294 0 00-.006.165.72.72 0 00.498-.2.675.675 0 00.148-.78.737.737 0 00-.17-.236.708.708 0 01.108.373zm-.082 1.763a.67.67 0 01-.212.416.717.717 0 01-.423.187 11.61 11.61 0 00-.012.074l-.011.077a.72.72 0 00.518-.14.678.678 0 00.222-.798.735.735 0 00-.187-.276.696.696 0 01.105.46zm-.382 1.902a.674.674 0 01-.254.384.715.715 0 01-.433.14 8.047 8.047 0 00-.036.133.716.716 0 00.53-.077.674.674 0 00.319-.427.715.715 0 00-.017-.382.756.756 0 00-.203-.317.703.703 0 01.093.546h.001zm-1.218 3.721a.666.666 0 01-.325.31.71.71 0 01-.441.045l-.025.045-.025.045c.171.088.363.1.534.049a.671.671 0 00.408-.341.74.74 0 00-.164-.86.757.757 0 01.11.346.714.714 0 01-.072.361zm-.954 1.598a.663.663 0 01-.355.268.71.71 0 01-.44-.004 3.202 3.202 0 00-.048.068.719.719 0 00.525.111.667.667 0 00.444-.29.734.734 0 00-.121-.932.747.747 0 01.109.387.7.7 0 01-.114.391zm-1.136 1.502a.662.662 0 01-.381.225.713.713 0 01-.435-.054 2.364 2.364 0 00-.041.045.72.72 0 00.508.173.664.664 0 00.475-.236.716.716 0 00.162-.513.72.72 0 00-.231-.484c.078.128.114.28.105.429a.71.71 0 01-.162.415zm-1.268 1.433a.658.658 0 01-.403.178.713.713 0 01-.425-.103l-.015.013-.014.012c.13.142.306.22.484.231a.662.662 0 00.499-.178.715.715 0 00.22-.5.713.713 0 00-.185-.512l-.006.007-.007.007a.742.742 0 01-.148.845zm-1.55 1.23a.659.659 0 01-.422.129.713.713 0 01-.41-.153l-.007.004-.006.005a.72.72 0 00.455.286.66.66 0 00.516-.119.712.712 0 00.276-.47.716.716 0 00-.125-.53l-.016.014-.016.013c.05.145.052.303.01.449a.713.713 0 01-.255.372zm-1.55 1.09a.66.66 0 01-.42.08.712.712 0 01-.383-.181.723.723 0 00.416.315.662.662 0 00.513-.061.712.712 0 00.328-.434.722.722 0 00-.062-.543l-.028.02-.026.017a.743.743 0 01-.042.447.707.707 0 01-.296.34zm-1.632.793a.653.653 0 01-.386.04.704.704 0 01-.341-.175c.089.144.223.25.374.302a.66.66 0 00.479-.015.727.727 0 00.377-.938l-.039.02-.038.02a.736.736 0 01-.426.745zm-1.808.652a.652.652 0 01-.348.006.699.699 0 01-.299-.164c.08.13.198.23.334.286.135.057.288.07.439.026a.709.709 0 00.42-.346.718.718 0 00.063-.542l-.05.02-.049.017a.746.746 0 01-.14.432.702.702 0 01-.37.265zm-1.952.444a.65.65 0 01-.306-.021.696.696 0 01-.259-.151c.072.116.174.21.294.268.12.058.257.08.398.057a.707.707 0 00.456-.293.724.724 0 00.126-.531l-.062.015-.059.014a.737.737 0 01-.187.418.696.696 0 01-.401.224z" fill="#fff"/></svg>