<svg width="165" height="25" viewBox="0 0 165 25" fill="none" xmlns="http://www.w3.org/2000/svg"><g clip-path="url(#clip0)" fill-rule="evenodd" clip-rule="evenodd" fill="#fff"><path d="M23.924.556c2.982-.159 13.173.61 16.824.845 1.915.123 6.687.14 8.011.96 1.136.702.962 1.904.84 3.42-.11 1.367-.225 2.72-.335 4.087-.254 3.146-.564 4.8-2.194 6.75-1.22 1.46-3.516 2.287-5.95 2.986-4.673 1.341-9.636 2.315-14.516 3.258-.886.171-1.094.284-2.01.107-4.143-.802-8.837-1.675-12.816-2.75-5.326-1.438-9.042-2.193-10.113-7.673-.256-1.311-.311-2.763-.425-4.117C.952 5.012.074 2.525 3.026 1.919 4.582 1.598 21.652.676 23.924.555zM23.92.044C17.966.39 12.025.705 6.07 1.047 3.615 1.188-.157.916.005 4.42c.126 2.722.252 6.175.623 8.804.372 2.63 1.258 4.577 3.533 5.93 4.298 2.554 13.12 4.167 18.368 5.205 2.028.4 2.29.654 4.065.3 3.947-.787 18.403-3.132 21.462-6.796.688-.823 1.31-1.631 1.646-3.04.497-2.09.654-6.312.804-8.655.103-1.605.34-2.911-.603-3.93-1.264-1.365-5.844-1.214-8.08-1.344C38.84.72 35.858.562 32.887.389c-2.862-.166-6.15-.51-8.967-.345z"/><path d="M17.75 19.943c.908.181 7.123 1.273 7.6 1.265.542-.009 7.167-1.136 7.57-1.293l.035-7.58c-1.992.124-6.09.674-7.602.687-1.677.014-5.532-.61-7.651-.68 0 1.228-.154 6.869.049 7.6zm-2.44-9.991l-.02-7.372c-.97-.04-10.7.566-11.279.739-1.67.496-1.157 2.162-.996 4.64.072 1.116-.212 1.167.81 1.22 3.788.2 7.67.572 11.486.773zm20-.006l12.134-.812c.214-.378.366-4.37.347-4.54-.167-1.472-1.867-1.39-3.344-1.483-1.52-.096-8.146-.586-9.103-.526l-.033 7.361zm-16.32-5.85l6.275-.289c1.041-.006 2.182.086 3.235.132 1.01.044 2.14.045 3.132.15l-.268 4.844c-.057.385.015.165-.106.301-.214.156-5.206.331-5.907.335-1.905.01-4.061-.177-5.99-.271-.221-.438-.33-4.39-.37-5.202zm-1.95-1.61l.584 7.646 7.642.464 7.68-.45c.183-.483.602-6.716.636-7.665l-8.231-.466c-1.31-.008-2.838.147-4.17.223-1.285.073-2.899.076-4.14.249zM36.631 18.14l.336-4.51c.469-.22 8.95-1.198 9.095-1.209-.268 2.131-1.582 3.602-3.357 4.172L36.63 18.14zm-1.808 1.386c1.123-.176 7.022-1.78 8.285-2.19 1.483-.48 2.295-1.168 2.971-2.222.652-1.016 1.213-2.559 1.187-4.022-1.408 0-3.274.275-4.727.398l-7.122.633c-.29.112-.273 1.971-.295 2.34-.097 1.677-.23 3.379-.299 5.063zM4.594 12.411l9.09 1.149.34 4.576c-.725-.086-5.18-1.26-6.036-1.536-1.813-.585-3.124-2.005-3.394-4.189zm11.24 7.125l-.443-7.411-11.99-1.05c-.093 1.367.581 3.122 1.153 4.024.678 1.07 1.52 1.754 2.967 2.224 1.366.443 7.021 1.984 8.312 2.213z"/></g><path d="M134.329 2.786c.311 0 .497 0 .497.451v11.216c0 .58.31.838.93.838h11.166c.496 0 .496.193.434.58v2.578c0 .322 0 .451-.434.451h-12.034c-3.536 0-4.901-1.225-4.901-4.77V3.237c0-.45.124-.45.496-.45h3.846zm11.352 0a1.72 1.72 0 011.427.516l5.893 6.38 5.955-6.38c.186-.19.411-.335.658-.424.246-.089.509-.12.768-.092h4.281c.372 0 .496.193.062.58l-9.367 10.055v4.963c0 .452-.186.452-.496.452h-3.722c-.372 0-.558 0-.558-.451V13.42l-9.305-10.055c-.434-.451-.248-.58.062-.58h4.342zm-19.168 0c.435 0 .435.129.435.516V5.88c0 .322 0 .451-.435.451h-11.785c-.497 0-.807.194-.807.71v2.062h12.282c.497 0 .434.129.434.451v2.514c0 .322 0 .451-.434.451h-12.282v2.191c0 .516.248.71.807.71h11.785c.497 0 .435.128.435.45v2.579c0 .322 0 .387-.435.387h-12.034c-3.287 0-5.272-1.032-5.272-4.383V7.169c0-3.352 1.985-4.383 5.272-4.383h12.034zm-20.408 0c.434 0 .434.129.434.516V5.88c0 .322 0 .451-.434.451H94.319c-.496 0-.806.194-.806.71v2.062h12.22c.434 0 .434.129.434.451v2.578c0 .322 0 .387-.434.387h-12.22v2.191c0 .516.248.71.806.71h11.786c.434 0 .434.128.434.45v2.579c0 .322 0 .387-.434.387H94.071c-3.287 0-5.272-1.032-5.272-4.383V7.169c0-3.352 2.046-4.383 5.272-4.383h12.034zm-20.904 0c.496 0 .434.129.434.451v2.579c0 .322 0 .45-.434.45H71.306c-.496 0-.807.194-.807.71v7.734c0 .516.31.71.807.71h9.615v-2.901h-7.382c-.496 0-.434-.129-.434-.451V9.49c0-.323 0-.387.434-.387H85.2c.496 0 .434.129.434.451v8.895c0 .322 0 .387-.434.387H71.058c-3.288 0-5.335-1.032-5.335-4.383V7.169c0-3.352 2.047-4.383 5.335-4.383H85.2z" fill="#fff"/><defs><clipPath id="clip0"><path fill="#fff" d="M0 0h50.61v24.828H0z"/></clipPath></defs></svg>