<svg width="8" height="16" viewBox="0 0 8 16" fill="none" xmlns="http://www.w3.org/2000/svg"><path fill-rule="evenodd" clip-rule="evenodd" d="M1.985 8.43c.04.048.018.387.018.451l.001 6.319H5.18c.018-1.885 0-2.978 0-4.87 0-.029-.006-1.835.003-1.873.018-.031 2.034-.016 2.103-.032l.035-.01L7.6 5.8H5.19c-.01-.386.001-.783.002-1.17 0-.352-.009-.79.207-.982l2.187-.216-.003-2.62C7.17.787 6.68.809 6.256.809c-.44 0-.885-.009-1.318.019-.824.054-1.49.294-1.97.695-.698 1.093-.967.155-.973 4.28H.4l.004 2.625 1.581.001z" fill="#828282"/></svg>