<svg width="16" height="16" viewBox="0 0 16 16" fill="none" xmlns="http://www.w3.org/2000/svg"><path fill-rule="evenodd" clip-rule="evenodd" d="M8 .8C6.045.8 5.8.809 5.032.843c-.767.036-1.29.157-1.748.335-.474.184-.875.43-1.275.83a3.53 3.53 0 00-.831 1.275c-.18.46-.3.981-.335 1.748C.809 5.8.8 6.044.8 8s.009 2.2.043 2.968c.036.766.157 1.29.335 1.747.184.474.43.876.83 1.276.4.4.801.647 1.275.831.459.178.98.3 1.748.335.768.034 1.013.043 2.969.043s2.2-.009 2.968-.043c.766-.036 1.29-.157 1.749-.335.473-.184.874-.43 1.274-.83.4-.401.646-.803.83-1.276.178-.459.3-.981.336-1.748.034-.768.043-1.012.043-2.968s-.01-2.2-.043-2.969c-.036-.766-.158-1.29-.335-1.747a3.529 3.529 0 00-.83-1.275 3.505 3.505 0 00-1.276-.83c-.46-.18-.983-.3-1.749-.336C10.198.81 9.955.8 7.998.8h.003H8zm3.844 2.493a.864.864 0 100 1.728.864.864 0 000-1.728zM8 4.303a3.698 3.698 0 100 7.395 3.698 3.698 0 000-7.395zM8 5.6a2.4 2.4 0 110 4.8 2.4 2.4 0 010-4.8z" fill="#B8543E"/></svg>