<svg width="10" height="16" viewBox="0 0 10 16" fill="none" xmlns="http://www.w3.org/2000/svg"><path d="M1.12 8.683c-.336.728.046 1.076.917 1.67.741.504 1.764.689 2.422.762l-2.59 2.743c-.754.796.46 2.072 1.213 1.294l2.039-2.166c.78.827 1.529 1.62 2.039 2.169.754.781 1.967-.484 1.221-1.294l-2.598-2.743c.665-.073 1.673-.268 2.405-.761h0c.87-.598 1.253-.946.921-1.674-.2-.413-.74-.758-1.458-.16 0 0-.971.818-2.536.818-1.566 0-2.536-.819-2.536-.819-.718-.6-1.26-.252-1.458.161z" fill="#828282" stroke="#828282"/><path d="M5.114 8.2c2.265 0 4.114-1.612 4.114-3.596C9.228 2.612 7.378 1 5.114 1 2.849 1 1 2.612 1 4.604 1 6.588 2.849 8.2 5.114 8.2zm0-5.374c1.113 0 2.02.795 2.02 1.778 0 .975-.907 1.77-2.02 1.77s-2.02-.795-2.02-1.77c-.001-.983.907-1.778 2.02-1.778z" fill="#828282" stroke="#828282"/></svg>