<svg width="16" height="16" viewBox="0 0 16 16" fill="none" xmlns="http://www.w3.org/2000/svg"><path fill-rule="evenodd" clip-rule="evenodd" d="M7.92.8C4.953.8 2.897.81 1.84 1.841.81 2.896.8 5.048.8 7.921c3.189-.096 4.647-.177 5.81-1.312C7.743 5.446 7.823 3.989 7.92.8zM1.84 14.159C.81 13.104.8 10.952.8 8.079c3.188.097 4.646.177 5.808 1.312 1.136 1.163 1.215 2.62 1.313 5.809-2.969 0-5.025-.01-6.08-1.041zM8.08 15.2c.096-3.189.176-4.646 1.312-5.809 1.163-1.135 2.621-1.215 5.809-1.312 0 2.871-.01 5.025-1.041 6.08-1.055 1.032-3.112 1.041-6.08 1.041zm0-14.4c.096 3.189.176 4.646 1.312 5.809 1.163 1.135 2.621 1.215 5.809 1.312 0-2.871-.01-5.025-1.041-6.08C13.104.81 11.046.8 8.079.8z" fill="#B8543E"/></svg>