<svg width="18" height="10" viewBox="0 0 18 10" fill="none" xmlns="http://www.w3.org/2000/svg"><path fill-rule="evenodd" clip-rule="evenodd" d="M14.79 6.172c.995.882 1.688 1.6 2.08 2.154.183.278.242.523.177.737-.065.215-.216.322-.451.322l-2.59.113c-.366.025-.81-.189-1.334-.642-.524-.454-.876-.832-1.06-1.134-.104-.177-.294-.278-.57-.303-.274-.025-.45.101-.528.378l-.08.983c-.025.202-.104.353-.234.454-.132.1-.242.157-.333.17l-.452.056a8.701 8.701 0 01-1.786-.094 3.588 3.588 0 01-1.392-.548 8.344 8.344 0 01-1-.756c-.25-.227-.61-.593-1.08-1.097C2.874 5.2 1.921 3.676 1.292 2.39 1.057 1.887.926 1.458.9 1.106c.104-.102.301-.165.59-.19A11.97 11.97 0 012.744.898c.549.011.877.018.981.018.262-.025.472.113.628.416.655 1.412 1.295 2.508 1.923 3.29.418.377.693.314.824-.19.053 0 .078-.617.078-1.852.027-.781-.3-1.274-.98-1.474C6.354.702 6.903.5 7.845.5c.234 0 .522.013.864.038.338.025.522.038.547.038.786 0 1.18.302 1.18.908a12.61 12.61 0 01-.04.547 18.371 18.371 0 00-.08 1.664c0 .29.04.536.118.737.079.202.183.328.314.378.144-.1.281-.195.412-.283.131-.089.268-.234.412-.435.144-.202.256-.353.333-.454.08-.101.197-.29.354-.567.157-.278.249-.453.275-.53a7.11 7.11 0 01.274-.585l.236-.472.058-.115c.105-.226.19-.358.256-.396.065-.038.228-.057.49-.057h2.433c.288 0 .457.007.51.019.051.013.13.069.235.17.184.228.02.719-.49 1.475-.51.756-1 1.386-1.471 1.89-.655.706-.745 1.272-.276 1.7v.002z" fill="#B8543E"/></svg>