<svg width="17" height="12" viewBox="0 0 17 12" fill="none" xmlns="http://www.w3.org/2000/svg"><path fill-rule="evenodd" clip-rule="evenodd" d="M7.063.61C4.54.663 3.039.771 2.525.935a2.05 2.05 0 00-1.223 1.102c-.358.79-.513 3.831-.315 6.17.056.667.167 1.35.262 1.62.21.596.72 1.07 1.337 1.244.727.206 3.033.325 6.25.325 2.688 0 4.717-.08 5.764-.228.616-.087.953-.24 1.313-.599.263-.261.415-.527.511-.894.298-1.137.404-3.913.224-5.884-.081-.885-.2-1.498-.352-1.82A1.956 1.956 0 0015.007.925c-.541-.14-1.714-.234-3.73-.297C10.417.602 7.945.59 7.063.61zm2.243 4.233c1.121.631 2.037 1.155 2.034 1.163a368.18 368.18 0 01-4.086 2.301c-.02.008-.025-.461-.025-2.307 0-1.467.007-2.314.019-2.31.01.004.936.523 2.058 1.153z" fill="#828282"/></svg>