<svg width="153" height="37" viewBox="0 0 153 37" fill="none" xmlns="http://www.w3.org/2000/svg"><path d="M17.266 3.67H7.42L6.338 9.738h8.99l-.647 3.604h-8.99l-1.149 6.33h10.044l-.675 3.67H0L4.172 0H17.92l-.646 3.67h-.01zm12.847 9.83a4.416 4.416 0 011.834 1.998c.38.85.484 1.747.304 2.699-.276 1.531-1.007 2.773-2.205 3.716-1.197.943-2.812 1.42-4.855 1.42H16.23l2.984-16.667h7.469c1.586 0 2.803.457 3.667 1.363.856.915 1.179 2.007.95 3.305-.132.803-.532 1.522-1.187 2.166zm-4.41-3.837h-3.525l-.58 3.1h5.561a3.01 3.01 0 00.58-1.13c.085-.644-.048-1.14-.41-1.485-.36-.345-.902-.504-1.624-.485zm2.985 8.198c.114-.738-.038-1.298-.457-1.68-.418-.393-1.054-.58-1.92-.58h-5.225l-.817 4.669h5.226c.883 0 1.596-.215 2.157-.654.55-.43.902-1.018 1.035-1.755zM45.602 6.228c2.375 0 4.238.887 5.578 2.652 1.349 1.764 1.815 3.874 1.406 6.32-.38 2.382-1.473 4.399-3.278 6.07-1.796 1.671-3.972 2.502-6.529 2.502-2.603 0-4.456-1.046-5.568-3.137L35.548 30h-3.696l4.21-23.343h3.667l-.408 2.204c1.653-1.755 3.744-2.633 6.28-2.633zm3.326 8.665c.275-1.532-.01-2.792-.827-3.763-.827-.98-2.005-1.466-3.545-1.466-1.491 0-2.84.485-4.038 1.466-1.197.98-1.958 2.213-2.271 3.697l-.038.336c-.228 1.485.076 2.727.912 3.698.836.98 2.015 1.466 3.525 1.466 1.559 0 2.927-.514 4.105-1.55 1.179-1.037 1.9-2.325 2.177-3.884zm12.847 8.87c-2.67 0-4.742-.897-6.205-2.68-1.473-1.793-1.958-3.959-1.464-6.517.475-2.465 1.682-4.473 3.63-6.023 1.948-1.54 4.181-2.315 6.718-2.315 2.509 0 4.495.887 5.94 2.67 1.444 1.774 1.947 3.922 1.491 6.434-.456 2.492-1.644 4.519-3.582 6.087-1.939 1.569-4.115 2.353-6.528 2.353v-.01zm.275-3.502c1.473 0 2.803-.476 3.991-1.438 1.188-.952 1.93-2.259 2.224-3.902.294-1.578.01-2.839-.846-3.782-.855-.943-2.014-1.42-3.459-1.42-1.473 0-2.794.477-3.972 1.42s-1.91 2.232-2.204 3.847c-.276 1.625.01 2.904.845 3.847.837.943 1.977 1.42 3.43 1.42l-.009.008zM86.71 6.657l-.608 3.399h-4.856L78.87 23.324h-3.668l2.376-13.268h-4.884l.608-3.399H86.71zm7.725-.43c1.882 0 3.373.598 4.495 1.803 1.121 1.204 1.511 2.745 1.168 4.631l-1.9 10.672h-3.592l.238-1.335c-1.245 1.177-2.86 1.765-4.856 1.765-1.653 0-3.003-.504-4.057-1.513-1.055-1.008-1.416-2.362-1.103-4.052.2-1.13.665-2.082 1.388-2.848.722-.765 1.539-1.316 2.46-1.652a8.424 8.424 0 012.937-.505c1.986 0 3.468.626 4.447 1.868l.409-2.232c.36-2.157-.523-3.23-2.651-3.23-.903 0-1.682.214-2.338.653-.656.43-1.055 1.046-1.188 1.849H86.7c.314-1.82 1.178-3.259 2.575-4.305 1.407-1.045 3.117-1.568 5.16-1.568zm-3.05 14.735c1.083 0 2.005-.234 2.765-.7.76-.467 1.197-1.056 1.302-1.765.161-.757-.076-1.363-.694-1.821-.618-.457-1.454-.682-2.49-.682-1.083 0-1.957.215-2.613.654-.655.43-1.054 1.018-1.187 1.746-.114.756.076 1.373.58 1.849.493.476 1.282.719 2.337.719zM106.74 4.323l.541-3.137h9.503l-.542 3.137h-9.502zm8.552 2.334h2.812l-2.983 16.667h-3.592l1.862-10.402-9.531 10.402h-2.812l2.983-16.667h3.592l-1.862 10.402 9.531-10.402zm23.708 0l-2.984 16.667h-3.563l2.005-11.205-5.597 8.002h-2.176l-2.746-8.001-2.005 11.204h-3.564l2.984-16.667h3.697l3.221 9.365 6.547-9.365H139z" fill="#D74E2E"/><path d="M47.873 30.188l-1.127 6.654h-.842l.984-5.805h-2.631l-.502 2.971c-.199 1.165-.52 1.936-.975 2.33-.455.395-1.051.563-1.78.504l.142-.83c.473.05.861-.068 1.145-.355.285-.296.493-.839.635-1.648l.634-3.821h4.317zm5.5 0h.72l-1.127 6.654h-.843l.843-4.996-4.26 4.996h-.72l1.127-6.654h.843l-.843 4.995 4.26-4.995zm5.424 1.797c-.075.444-.322.819-.729 1.135.568.424.796 1.027.663 1.797a2.454 2.454 0 01-.88 1.5c-.474.395-1.099.583-1.865.583-.73 0-1.288-.207-1.666-.632-.38-.424-.521-.938-.417-1.54h.843c-.067.405.018.73.265.967.246.237.605.356 1.088.356.464 0 .862-.119 1.193-.356.331-.236.52-.552.596-.967.067-.405-.018-.73-.265-.968-.246-.237-.605-.355-1.07-.355h-.444l.142-.8h.445c.246 0 .464.03.653.08.36-.257.558-.544.615-.87.057-.345-.01-.612-.208-.79-.199-.177-.464-.266-.814-.266-.36 0-.663.089-.909.276-.246.178-.407.455-.483.83h-.842c.104-.583.36-1.057.785-1.422.426-.355.947-.543 1.59-.543.607 0 1.07.198 1.383.582.322.386.435.85.34 1.373l-.009.03zm5.605-1.797h.719l-1.126 6.654h-.843l.843-4.996-4.26 4.996h-.72l1.127-6.654h.842l-.842 4.995 4.26-4.995zm6.087 0h.842l-1.126 6.654h-.843l.483-2.903H66.55l-.483 2.903h-.843l1.127-6.654h.842l-.483 2.902h3.295l.483-2.902zm5.907 0l-.142.849h-2.982l-.985 5.805h-.842l1.126-6.654h3.825zM78.45 37c-.9 0-1.647-.326-2.225-.968-.587-.651-.785-1.51-.605-2.586.18-1.076.653-1.916 1.438-2.518.777-.602 1.62-.908 2.519-.908.88 0 1.6.326 2.168.977.567.652.757 1.51.577 2.567-.123.74-.388 1.382-.805 1.916-.416.533-.89.918-1.41 1.155-.52.237-1.08.355-1.657.355V37zm.076-.85c.681 0 1.306-.236 1.884-.7.577-.474.937-1.126 1.07-1.975.132-.81-.01-1.441-.427-1.905-.416-.464-.965-.691-1.637-.691-.682.01-1.307.246-1.884.7-.578.465-.937 1.106-1.08 1.926-.132.84.01 1.48.427 1.955.416.464.965.69 1.637.681l.01.01zm9.154-3.297c.322.208.559.474.7.82.143.345.18.7.105 1.086-.104.612-.379 1.115-.833 1.5-.455.395-1.07.583-1.827.583h-3.19l.586-3.485.038-.198.36-2.142.142-.83h2.556c.596 0 1.05.178 1.382.544.322.355.445.81.36 1.332a1.75 1.75 0 01-.36.79h-.019zm-1.515-1.836h-1.713l-.256 1.54h2.348c.095 0 .218.01.37.03.15-.168.245-.356.283-.573.048-.346-.019-.602-.218-.77-.198-.168-.463-.247-.814-.227zm1.477 3.633c.067-.405-.01-.73-.236-.948-.228-.227-.559-.335-1.004-.335h-2.348l-.445 2.665h2.348c.464 0 .843-.128 1.136-.375.294-.247.483-.582.55-.997v-.01zm4.582-4.62c.7 0 1.24.237 1.638.7.388.465.52 1.067.397 1.788l-.728 4.324h-.843l.114-.691c-.493.573-1.174.849-2.026.849-.625 0-1.136-.207-1.553-.612-.416-.405-.568-.948-.464-1.62.114-.67.417-1.184.928-1.53a3.018 3.018 0 011.723-.523c.388 0 .748.08 1.07.247.322.168.568.395.738.7l.19-1.144c.094-.573.009-.988-.247-1.244-.255-.257-.615-.395-1.079-.395-.445 0-.833.108-1.174.335a1.38 1.38 0 00-.615.988h-.843a2.479 2.479 0 01.928-1.58c.511-.405 1.117-.602 1.846-.602v.01zm-1.202 6.15c.511 0 .956-.128 1.325-.375.37-.246.597-.562.663-.947.066-.395-.047-.711-.35-.948-.303-.247-.701-.366-1.193-.366-.54 0-.966.119-1.288.356-.322.237-.52.543-.587.938-.066.395.02.71.275.967.246.257.634.376 1.155.376zm9.306-5.992l-1.127 6.654h-.842l.435-2.557h-1.136l-2.575 2.557h-1.108l2.67-2.606a1.916 1.916 0 01-1.108-.74c-.265-.376-.36-.82-.274-1.324a2.277 2.277 0 01.852-1.441 2.555 2.555 0 011.619-.543h2.594zm-3.143 3.277h1.75l.408-2.419h-1.751a1.5 1.5 0 00-.966.336 1.298 1.298 0 00-.52.879c-.057.365.018.652.227.879.208.217.501.335.852.335v-.01zm11.956-3.277l-3.853 3.198 2.859 3.466h-1.022l-2.727-3.317-.558 3.317h-.843l1.127-6.654h.842l-.483 2.902 3.494-2.902h1.173l-.009-.01zM111.138 37c-.899 0-1.647-.326-2.224-.968-.587-.651-.786-1.51-.606-2.586.18-1.076.653-1.916 1.439-2.518.776-.602 1.619-.908 2.518-.908.88 0 1.6.326 2.168.977.568.652.757 1.51.577 2.567-.123.74-.388 1.382-.804 1.916-.417.533-.89.918-1.411 1.155a3.974 3.974 0 01-1.657.355V37zm.076-.85c.682 0 1.307-.236 1.884-.7.578-.474.937-1.126 1.07-1.975.132-.81-.01-1.441-.426-1.905-.417-.464-.966-.691-1.638-.691-.682.01-1.306.246-1.884.7-.577.465-.937 1.106-1.079 1.926-.133.84.009 1.48.426 1.955.417.464.966.69 1.638.681l.009.01zm11.474-5.962l-1.127 6.654h-.842l.88-5.193-2.603 3.85h-.663l-1.306-3.85-.881 5.193h-.842l1.126-6.654h.89l1.439 4.275 2.869-4.275h1.06zm6.219 0l-1.126 6.654h-.843l.985-5.805h-3.295l-.984 5.805h-.843l1.127-6.654h4.979zm3.55-.158c.701 0 1.24.237 1.638.7.388.465.521 1.067.398 1.788l-.729 4.324h-.843l.114-.691c-.492.573-1.174.849-2.026.849-.625 0-1.136-.207-1.553-.612-.416-.405-.568-.948-.463-1.62.113-.67.416-1.184.927-1.53a3.02 3.02 0 011.723-.523c.388 0 .748.08 1.07.247.322.168.568.395.738.7l.19-1.144c.094-.573.009-.988-.246-1.244-.256-.257-.616-.395-1.08-.395-.445 0-.833.108-1.174.335-.34.228-.549.553-.615.988h-.842a2.476 2.476 0 01.927-1.58c.512-.405 1.117-.602 1.846-.602v.01zm-1.202 6.15c.511 0 .956-.128 1.325-.375.37-.246.597-.562.663-.947.066-.395-.047-.711-.35-.948-.303-.247-.701-.366-1.193-.366-.54 0-.966.119-1.287.356a1.413 1.413 0 00-.587.938c-.067.395.019.71.274.967.246.257.634.376 1.155.376zm8.851-5.992h.843l-1.127 6.654h-.842l.483-2.903h-3.295l-.483 2.903h-.842l1.126-6.654h.843l-.483 2.902h3.295l.482-2.902zm6.343 0h.72l-1.127 6.654h-.843l.843-4.996-4.26 4.996h-.719l1.126-6.654h.843l-.843 4.995 4.26-4.995zm6.551 0l-1.127 6.654h-.842l.435-2.557h-1.136l-2.575 2.557h-1.107l2.669-2.606a1.916 1.916 0 01-1.107-.74c-.265-.376-.36-.82-.275-1.324a2.276 2.276 0 01.852-1.441 2.556 2.556 0 011.619-.543H153zm-3.143 3.277h1.751l.407-2.419h-1.751c-.36 0-.681.11-.965.336a1.297 1.297 0 00-.521.879c-.057.365.019.652.227.879.208.217.502.335.852.335v-.01z" fill="#333"/></svg>