<svg width="30" height="39" viewBox="0 0 30 39" fill="none" xmlns="http://www.w3.org/2000/svg"><path d="M29.633 8.125l-.514-.514L22.39.88l-.514-.514A1.26 1.26 0 0020.99 0H1.642C.852 0 0 .61 0 1.95v35.383c0 .558.561 1.102 1.225 1.274.034.008.066.021.1.028.104.02.21.032.317.032h26.716c.107 0 .213-.012.317-.032.034-.007.066-.02.1-.028.664-.172 1.225-.716 1.225-1.274V9.32c0-.512-.061-.889-.367-1.194zM27.623 8H22V2.377L27.623 8zM1.642 37.333c-.047 0-.09-.017-.132-.032a.306.306 0 01-.177-.276v-9.692h27.334v9.692a.306.306 0 01-.177.276c-.042.015-.085.032-.132.032H1.642zM1.333 26V1.95c0-.144.022-.617.309-.617h19.063a1.029 1.029 0 00-.038.261v7.74h7.739a.98.98 0 00.26-.04V26H1.334z" fill="#828282"/><path d="M10.36 29.829a2.292 2.292 0 00-.752-.41 2.713 2.713 0 00-.847-.137H6.83V36h1.094v-2.425h.811c.352 0 .675-.051.966-.155.292-.103.541-.25.748-.437.206-.188.367-.42.483-.697.115-.277.173-.585.173-.926 0-.322-.068-.612-.205-.87a2.144 2.144 0 00-.539-.661zm-.414 2.22a1.108 1.108 0 01-.264.432 1 1 0 01-.36.223 1.19 1.19 0 01-.397.069H7.922v-2.661h.82c.28 0 .504.044.675.132a1.073 1.073 0 01.583.738 2.051 2.051 0 01-.055 1.067zm7.023-1.783a3.088 3.088 0 00-1.067-.715c-.429-.179-.925-.269-1.49-.269h-2.023V36h2.542c.085 0 .216-.011.392-.032a2.7 2.7 0 00.584-.146c.212-.076.432-.19.66-.342.228-.152.433-.36.616-.625.182-.265.332-.593.451-.985s.178-.864.178-1.417c0-.401-.07-.792-.21-1.171a2.96 2.96 0 00-.633-1.016zm-.798 4.22c-.328.474-.862.71-1.604.71h-1.084v-5.085h.638c.522 0 .948.069 1.276.205.328.137.588.316.779.538.191.222.32.47.387.743s.1.55.1.83c0 .899-.164 1.586-.492 2.06zM19.398 36h1.112v-3.026h2.808v-.748H20.51v-2.114h3.09v-.83h-4.202V36zm1.887-20.693c-.613 0-1.364.08-2.238.239-1.22-1.295-2.494-3.185-3.393-5.041.892-3.753.446-4.284.25-4.535-.21-.267-.505-.7-.841-.7a3.34 3.34 0 00-.678.115c-.384.128-.59.424-.756.81-.471 1.102.176 2.98.84 4.429-.568 2.262-1.522 4.97-2.524 7.167-2.527 1.157-3.87 2.293-3.99 3.378-.045.395.049.974.743 1.495.19.142.412.217.644.217.584 0 1.173-.447 1.855-1.404.498-.7 1.032-1.652 1.589-2.835a31.939 31.939 0 015.885-1.88c1.053 1.01 1.997 1.523 2.808 1.523.597 0 1.109-.275 1.48-.794.386-.541.474-1.025.26-1.44-.257-.5-.89-.744-1.934-.744zM9.357 21.756c-.312-.24-.294-.4-.287-.462.041-.37.622-1.028 2.046-1.829-1.08 1.995-1.66 2.26-1.759 2.29zm5.467-15.281c.028-.01.697.734.064 2.144-.95-.973-.13-2.122-.064-2.144zm-1.378 10.684a47.526 47.526 0 001.783-5.043c.748 1.345 1.648 2.65 2.547 3.696a33.215 33.215 0 00-4.33 1.347zm8.6-.32c-.205.288-.65.294-.806.294-.355 0-.488-.211-1.031-.63.448-.056.87-.071 1.207-.071.593 0 .701.087.783.131a1.039 1.039 0 01-.152.276z" fill="#828282"/></svg>