<svg width="25" height="26" viewBox="0 0 25 26" fill="none" xmlns="http://www.w3.org/2000/svg">
<path fill-rule="evenodd" clip-rule="evenodd" d="M2.91111 5.50717C3.13809 4.29465 4.26019 0.00240204 8.98519 1.00674e-06C13.7102 -0.00240003 13.2291 4.29065 13.0037 5.50237L10.3031 19.9766C9.96744 21.7766 8.96441 25.9984 4.13471 26C-0.694986 26.0016 -0.121143 21.779 0.214531 19.979L0.511849 18.3871H4.37529C3.73591 21.8142 3.6336 22.7474 4.74132 22.7458C5.70758 22.7458 6.07842 21.9142 6.43967 19.9774L7.33081 15.2001C6.71001 15.5744 6.00619 15.7887 5.2824 15.8236C1.31186 15.8236 1.72586 11.8795 1.99121 10.4613L2.91111 5.50717ZM9.34325 4.39629C9.37046 4.25513 9.36567 4.10966 9.32925 3.9706C9.29283 3.83154 9.2257 3.70244 9.13281 3.59283C9.03992 3.48321 8.92364 3.39589 8.79254 3.33728C8.66145 3.27867 8.51889 3.25028 8.37538 3.2542C8.05525 3.28232 7.75101 3.40641 7.50237 3.61028C7.25373 3.81416 7.07223 4.08836 6.98155 4.3971L5.60608 11.7707C5.58643 11.9107 5.59658 12.0533 5.63585 12.1891C5.67512 12.325 5.74264 12.4509 5.83396 12.5588C5.92529 12.6667 6.03835 12.7539 6.16574 12.815C6.29313 12.876 6.43198 12.9093 6.57315 12.9128C6.88147 12.9025 7.17907 12.797 7.42517 12.6108C7.67128 12.4245 7.85383 12.1666 7.94781 11.8723L9.34325 4.39629ZM20.3725 3.97772H14.5765L15.2679 0.273721H25L24.3023 4.01293L16.39 25.7207H12.3827L20.3725 3.97772Z" fill="#EB5757"/>
</svg>
