<svg width="165" height="25" viewBox="0 0 165 25" fill="none" xmlns="http://www.w3.org/2000/svg">
<g clip-path="url(#clip0)">
<path fill-rule="evenodd" clip-rule="evenodd" d="M23.924 0.556079C26.9057 0.396969 37.0974 1.16636 40.7477 1.40066C42.6631 1.52357 47.435 1.54159 48.7593 2.36059C49.8955 3.06326 49.7207 4.26522 49.5989 5.78039C49.4889 7.14755 49.3735 8.50146 49.2636 9.8678C49.0104 13.0145 48.6997 14.668 47.0697 16.6185C45.8495 18.0786 43.5541 18.9045 41.1191 19.6037C36.447 20.9454 31.4841 21.9193 26.6037 22.8619C25.7181 23.033 25.5097 23.1461 24.594 22.969C20.4508 22.1673 15.7571 21.2944 11.7778 20.2196C6.45151 18.7811 2.73648 18.0263 1.6649 12.5458C1.40859 11.235 1.3536 9.78257 1.23967 8.42865C0.952128 5.01198 0.0742122 2.52496 3.02559 1.91822C4.58183 1.59827 21.6519 0.677345 23.9239 0.556161L23.924 0.556079ZM23.9199 0.0437019C17.9662 0.391375 12.0251 0.704988 6.07117 1.04723C3.61547 1.18841 -0.157433 0.915928 0.00508046 4.41997C0.131342 7.14245 0.256865 10.5952 0.62817 13.2243C0.99964 15.8544 1.88578 17.8013 4.16104 19.1536C8.45921 21.7083 17.2805 23.3207 22.5295 24.3587C24.5571 24.7596 24.8187 25.0133 26.5936 24.6593C30.5407 23.872 44.9969 21.5266 48.0564 17.863C48.7439 17.0398 49.3663 16.2317 49.7017 14.8223C50.1989 12.7329 50.3558 8.5115 50.506 6.16804C50.6089 4.56295 50.8463 3.25651 49.9026 2.23751C48.6386 0.872736 44.0588 1.0242 41.8231 0.893797C38.8399 0.719796 35.8578 0.562249 32.8869 0.389318C30.025 0.222721 26.7373 -0.120756 23.9198 0.0437019H23.9199Z" fill="white"/>
<path fill-rule="evenodd" clip-rule="evenodd" d="M17.7508 19.9426C18.6583 20.1245 24.8729 21.2162 25.3499 21.2081C25.8921 21.199 32.5169 20.0724 32.9193 19.9148L32.9548 12.3358C30.9627 12.4592 26.865 13.0089 25.3528 13.0217C23.6762 13.0359 19.8214 12.4122 17.702 12.3416C17.702 13.5698 17.5485 19.2106 17.7509 19.9427L17.7508 19.9426Z" fill="white"/>
<path fill-rule="evenodd" clip-rule="evenodd" d="M15.3108 9.95196L15.2891 2.57975C14.3192 2.53928 4.59032 3.14634 4.01146 3.31862C2.34169 3.81545 2.85439 5.48141 3.01484 7.95823C3.08726 9.07538 2.80317 9.12556 3.82552 9.17961C7.61272 9.37977 11.4954 9.75139 15.3107 9.95188L15.3108 9.95196Z" fill="white"/>
<path fill-rule="evenodd" clip-rule="evenodd" d="M35.3108 9.94609L47.4445 9.13367C47.6578 8.75622 47.8099 4.76382 47.7908 4.59435C47.6244 3.12237 45.9235 3.20349 44.4469 3.11061C42.9273 3.01493 36.3012 2.52509 35.3445 2.58466L35.3108 9.94609Z" fill="white"/>
<path fill-rule="evenodd" clip-rule="evenodd" d="M18.9908 4.09564L25.2654 3.80712C26.306 3.80078 27.4474 3.89317 28.5001 3.93891C29.51 3.98276 30.6402 3.98408 31.6316 4.08889L31.3642 8.93311C31.307 9.31797 31.3793 9.09765 31.2576 9.23438C31.0443 9.38987 26.0521 9.56527 25.3505 9.56898C23.4463 9.57893 21.2897 9.39218 19.3603 9.29798C19.1395 8.85964 19.0301 4.90789 18.9908 4.09572L18.9908 4.09564ZM17.0408 2.48693L17.6239 10.1325L25.2655 10.5963L32.9454 10.1457C33.1294 9.66326 33.5479 3.43024 33.5815 2.48068L25.3506 2.0152C24.0402 2.00713 22.5127 2.16197 21.1802 2.23765C19.8965 2.31054 18.2823 2.31359 17.0409 2.48693H17.0408Z" fill="white"/>
<path fill-rule="evenodd" clip-rule="evenodd" d="M36.6314 18.1399L36.9673 13.63C37.4357 13.4096 45.9173 12.4323 46.0618 12.4214C45.7938 14.5523 44.4802 16.0228 42.7049 16.5931L36.6314 18.1399ZM34.823 19.526C35.9465 19.3497 41.8448 17.7457 43.1078 17.3364C44.591 16.8557 45.4029 16.1682 46.0794 15.1142C46.7314 14.0983 47.2924 12.555 47.2664 11.0919C45.8582 11.0918 43.9923 11.3667 42.5392 11.4902L35.417 12.1227C35.1271 12.2346 35.1437 14.0943 35.1224 14.4624C35.0251 16.1397 34.892 17.8416 34.8231 19.5261L34.823 19.526Z" fill="white"/>
<path fill-rule="evenodd" clip-rule="evenodd" d="M4.5939 12.4111L13.6835 13.56L14.0245 18.1361C13.2987 18.0497 8.84332 16.8752 7.98801 16.5996C6.17472 16.0154 4.86369 14.5947 4.5939 12.411V12.4111ZM15.8333 19.5363L15.3914 12.1248L3.40131 11.0746C3.30785 12.4424 3.98248 14.1968 4.5542 15.0989C5.2322 16.1687 6.07477 16.8531 7.52103 17.3227C8.88722 17.7664 14.5424 19.3068 15.8334 19.5363H15.8333Z" fill="white"/>
</g>
<path d="M134.329 2.7861C134.64 2.7861 134.826 2.7861 134.826 3.23729V14.4526C134.826 15.0327 135.136 15.2906 135.756 15.2906H146.922C147.418 15.2906 147.418 15.4839 147.356 15.8707V18.4489C147.356 18.7712 147.356 18.9001 146.922 18.9001H134.888C131.352 18.9001 129.987 17.6754 129.987 14.1304V3.23729C129.987 2.7861 130.111 2.7861 130.483 2.7861H134.329ZM145.681 2.7861C145.941 2.75765 146.203 2.78912 146.45 2.87826C146.696 2.96739 146.921 3.112 147.108 3.30175L153.001 9.68289L158.956 3.30175C159.142 3.112 159.367 2.96739 159.614 2.87826C159.86 2.78912 160.123 2.75765 160.382 2.7861H164.663C165.035 2.7861 165.159 2.97947 164.725 3.3662L155.358 13.4213V18.3845C155.358 18.8356 155.172 18.8356 154.862 18.8356H151.14C150.768 18.8356 150.582 18.8356 150.582 18.3845V13.4213L141.277 3.3662C140.843 2.91501 141.029 2.7861 141.339 2.7861H145.681ZM126.513 2.7861C126.948 2.7861 126.948 2.91501 126.948 3.30175V5.87999C126.948 6.20227 126.948 6.33118 126.513 6.33118H114.728C114.231 6.33118 113.921 6.52455 113.921 7.04019V9.10279H126.203C126.7 9.10279 126.637 9.2317 126.637 9.55398V12.0678C126.637 12.39 126.637 12.519 126.203 12.519H113.921V14.7105C113.921 15.2261 114.169 15.4195 114.728 15.4195H126.513C127.01 15.4195 126.948 15.5484 126.948 15.8707V18.4489C126.948 18.7712 126.948 18.8356 126.513 18.8356H114.479C111.192 18.8356 109.207 17.8043 109.207 14.4526V7.16911C109.207 3.81739 111.192 2.7861 114.479 2.7861H126.513ZM106.105 2.7861C106.539 2.7861 106.539 2.91501 106.539 3.30175V5.87999C106.539 6.20227 106.539 6.33118 106.105 6.33118H94.3193C93.823 6.33118 93.5129 6.52455 93.5129 7.04019V9.10279H105.733C106.167 9.10279 106.167 9.2317 106.167 9.55398V12.1322C106.167 12.4545 106.167 12.519 105.733 12.519H93.5129V14.7105C93.5129 15.2261 93.761 15.4195 94.3193 15.4195H106.105C106.539 15.4195 106.539 15.5484 106.539 15.8707V18.4489C106.539 18.7712 106.539 18.8356 106.105 18.8356H94.0711C90.7835 18.8356 88.7985 17.8043 88.7985 14.4526V7.16911C88.7985 3.81739 90.8455 2.7861 94.0711 2.7861H106.105ZM85.2007 2.7861C85.6969 2.7861 85.6349 2.91501 85.6349 3.23729V5.81553C85.6349 6.13781 85.6349 6.26672 85.2007 6.26672H71.3057C70.8095 6.26672 70.4993 6.46009 70.4993 6.97574V14.7105C70.4993 15.2261 70.8095 15.4195 71.3057 15.4195H80.9205V12.519H73.5388C73.0426 12.519 73.1046 12.39 73.1046 12.0678V9.48952C73.1046 9.16724 73.1046 9.10279 73.5388 9.10279H85.2007C85.6969 9.10279 85.6349 9.2317 85.6349 9.55398V18.4489C85.6349 18.7712 85.6349 18.8356 85.2007 18.8356H71.0576C67.7699 18.8356 65.7229 17.8043 65.7229 14.4526V7.16911C65.7229 3.81739 67.7699 2.7861 71.0576 2.7861H85.2007Z" fill="white"/>
<defs>
<clipPath id="clip0">
<rect width="50.6099" height="24.8275" fill="white"/>
</clipPath>
</defs>
</svg>
