<svg width="8" height="16" viewBox="0 0 8 16" fill="none" xmlns="http://www.w3.org/2000/svg">
<path fill-rule="evenodd" clip-rule="evenodd" d="M1.98529 8.42932C2.02489 8.47792 2.00329 8.81722 2.00329 8.88112L2.00419 15.2H5.17939C5.19739 13.3154 5.17939 12.2219 5.17939 10.3292C5.17939 10.3013 5.17309 8.49502 5.18209 8.45722C5.20009 8.42572 7.21609 8.44102 7.28539 8.42482L7.32049 8.41492L7.59949 5.80132H5.18929C5.18029 5.41522 5.19109 5.01832 5.19199 4.63132C5.19199 4.27852 5.18299 3.84112 5.39899 3.64852L7.58599 3.43252L7.58329 0.811718C7.16929 0.787418 6.67879 0.809018 6.25579 0.809018C5.81569 0.809018 5.37109 0.800018 4.93819 0.827918C4.11379 0.881918 3.44869 1.12222 2.96719 1.52272C2.26969 2.61622 2.00059 1.67752 1.99519 5.80222H0.400391L0.403991 8.42752L1.98529 8.42932Z" fill="#B8543E"/>
</svg>
