<svg width="16" height="16" viewBox="0 0 16 16" fill="none" xmlns="http://www.w3.org/2000/svg">
<path fill-rule="evenodd" clip-rule="evenodd" d="M7.9998 0.800049C6.045 0.800049 5.7993 0.809049 5.0316 0.843249C4.2648 0.879249 3.7419 0.999849 3.2838 1.17805C2.8104 1.36165 2.409 1.60825 2.0085 2.00785C1.608 2.40835 1.3623 2.81065 1.1778 3.28315C0.998705 3.74215 0.878105 4.26415 0.843005 5.03095C0.808805 5.79955 0.799805 6.04435 0.799805 8.00005C0.799805 9.95575 0.808805 10.1996 0.843005 10.9682C0.879005 11.7341 0.999605 12.2579 1.1778 12.7151C1.3623 13.1894 1.608 13.5908 2.0085 13.9913C2.4081 14.3918 2.8095 14.6384 3.2829 14.822C3.7419 15.0002 4.2639 15.1217 5.0307 15.1568C5.7993 15.191 6.0441 15.2 7.9998 15.2C9.9555 15.2 10.1994 15.191 10.968 15.1568C11.7339 15.1208 12.2586 15.0002 12.7167 14.822C13.1901 14.6384 13.5906 14.3918 13.9911 13.9913C14.3916 13.5908 14.6373 13.1894 14.8218 12.716C14.9991 12.257 15.1206 11.735 15.1566 10.9682C15.1908 10.2005 15.1998 9.95575 15.1998 8.00005C15.1998 6.04435 15.1908 5.79955 15.1566 5.03095C15.1206 4.26505 14.9991 3.74125 14.8218 3.28405C14.6373 2.81065 14.3916 2.40835 13.9911 2.00875C13.5906 1.60735 13.1901 1.36165 12.7158 1.17805C12.2568 0.999849 11.733 0.878349 10.9671 0.843249C10.1985 0.809049 9.9546 0.800049 7.998 0.800049H8.0007H7.9998ZM11.8437 3.29305C11.3667 3.29305 10.9797 3.68005 10.9797 4.15705C10.9797 4.63405 11.3667 5.02105 11.8437 5.02105C12.3207 5.02105 12.7077 4.63405 12.7077 4.15705C12.7077 3.68005 12.3207 3.29305 11.8437 3.29305ZM8.0007 4.30285C5.9577 4.30285 4.3026 5.95885 4.3026 8.00005C4.3026 10.0421 5.9586 11.6963 8.0007 11.6963C10.0428 11.6963 11.697 10.043 11.697 8.00005C11.697 5.95705 10.0428 4.30285 8.0007 4.30285V4.30285ZM8.0007 5.59975C9.3264 5.59975 10.401 6.67435 10.401 8.00005C10.401 9.32575 9.3264 10.4003 8.0007 10.4003C6.675 10.4003 5.6004 9.32575 5.6004 8.00005C5.6004 6.67435 6.675 5.59975 8.0007 5.59975V5.59975Z" fill="#B8543E"/>
</svg>
