<svg width="10" height="16" viewBox="0 0 10 16" fill="none" xmlns="http://www.w3.org/2000/svg">
<path d="M1.12075 8.68345C0.784437 9.41133 1.16628 9.75926 2.0375 10.3536C2.77815 10.8574 3.80134 11.0417 4.45859 11.1153C4.18922 11.4005 5.42363 10.0933 1.86852 13.8583C1.11471 14.6539 2.32827 15.9302 3.08154 15.1516L5.12079 12.9861C5.90148 13.813 6.64981 14.6055 7.16004 15.1546C7.91385 15.9362 9.12686 14.6708 8.38128 13.8613C8.32532 13.8027 5.61784 10.9432 5.78298 11.1184C6.44847 11.0447 7.45629 10.8496 8.18816 10.3567L8.18761 10.3561C9.05883 9.75866 9.44068 9.41133 9.10931 8.68345C8.90906 8.27028 8.36921 7.92477 7.65051 8.52217C7.65051 8.52217 6.67999 9.34066 5.11475 9.34066C3.54897 9.34066 2.579 8.52217 2.579 8.52217C1.86084 7.92175 1.3188 8.27028 1.12075 8.68345Z" fill="#828282" stroke="#828282"/>
<path d="M5.11396 8.19995C7.37856 8.19995 9.22775 6.58829 9.22775 4.60425C9.22775 2.61191 7.37856 1.00024 5.11396 1.00024C2.8487 1.00024 0.999512 2.61191 0.999512 4.60425C0.999512 6.58829 2.8487 8.19995 5.11396 8.19995ZM5.11396 2.82596C6.22673 2.82596 7.13439 3.62112 7.13439 4.60425C7.13439 5.57907 6.22673 6.37423 5.11396 6.37423C4.00119 6.37423 3.09352 5.57907 3.09352 4.60425C3.09287 3.62053 4.00054 2.82596 5.11396 2.82596Z" fill="#828282" stroke="#828282"/>
</svg>
