<svg width="12" height="12" viewBox="0 0 12 12" fill="none" xmlns="http://www.w3.org/2000/svg">
<g id="phone">
<path id="Path 16" d="M6.43218 9.73543L7.90354 8.26406C8.11771 8.0499 8.4546 8.02011 8.70302 8.19337L10.7049 9.58954C11.024 9.8121 11.0644 10.269 10.7893 10.5441L10.6465 10.6869C10.2026 11.1308 9.56634 11.3235 8.96973 11.1281C7.75296 10.7296 5.60531 9.82931 3.8194 8.0434C2.03348 6.25748 1.13316 4.10983 0.734681 2.89306C0.539297 2.29645 0.732004 1.66021 1.17592 1.21629L1.31868 1.07353C1.59379 0.798424 2.05069 0.838825 2.27326 1.15794L3.66943 3.15977C3.84269 3.40819 3.8129 3.74509 3.59873 3.95925L2.12737 5.43062" stroke="#D74E2E" stroke-linecap="round"/>
</g>
</svg>
