<svg width="16" height="16" viewBox="0 0 16 16" fill="none" xmlns="http://www.w3.org/2000/svg">
<path fill-rule="evenodd" clip-rule="evenodd" d="M7.9206 0.800049C4.9524 0.800049 2.8959 0.809949 1.8402 1.84135C0.809705 2.89615 0.799805 5.04805 0.799805 7.92085C3.9885 7.82455 5.4465 7.74445 6.6093 6.60865C7.7442 5.44585 7.8243 3.98875 7.9206 0.800049ZM1.8402 14.1587C0.809705 13.1039 0.799805 10.952 0.799805 8.07925C3.9876 8.17555 5.4456 8.25565 6.6084 9.39145C7.7442 10.5542 7.8234 12.0113 7.9206 15.2C4.9524 15.2 2.8959 15.1901 1.8402 14.1587ZM8.079 15.2C8.1753 12.0113 8.2554 10.5542 9.3912 9.39145C10.554 8.25565 12.012 8.17645 15.1998 8.07925C15.1998 10.9502 15.1899 13.1039 14.1585 14.1587C13.1037 15.191 11.0472 15.2 8.079 15.2ZM8.079 0.800049C8.1753 3.98875 8.2554 5.44585 9.3912 6.60865C10.554 7.74445 12.012 7.82365 15.1998 7.92085C15.1998 5.04985 15.1899 2.89615 14.1585 1.84135C13.1037 0.809049 11.0472 0.800049 8.079 0.800049Z" fill="#828282"/>
</svg>
