<svg width="18" height="10" viewBox="0 0 18 10" fill="none" xmlns="http://www.w3.org/2000/svg">
<path fill-rule="evenodd" clip-rule="evenodd" d="M14.7905 6.1718C15.785 7.0538 16.478 7.772 16.8695 8.3264C17.0531 8.6036 17.1125 8.8493 17.0468 9.0635C16.982 9.2777 16.8308 9.3848 16.5959 9.3848L14.0057 9.4982C13.6403 9.5234 13.1957 9.3092 12.6719 8.8556C12.1481 8.402 11.7962 8.024 11.6126 7.7216C11.5082 7.5452 11.3183 7.4444 11.0429 7.4192C10.7684 7.394 10.592 7.52 10.5137 7.7972L10.4345 8.78C10.4093 8.9816 10.3301 9.1328 10.1996 9.2336C10.0682 9.3344 9.9575 9.3911 9.8666 9.4046L9.4148 9.4604C8.7344 9.4856 8.1395 9.4541 7.6292 9.3659C7.1189 9.2777 6.6554 9.0959 6.2369 8.8178C5.8184 8.5406 5.4845 8.2886 5.2361 8.0618C4.9868 7.835 4.6277 7.4687 4.157 6.9647C2.8745 5.2007 1.9205 3.6761 1.2923 2.3909C1.0574 1.8869 0.926002 1.4585 0.899902 1.1057C1.0043 1.004 1.2014 0.941 1.4894 0.9158C1.7774 0.8915 2.195 0.8843 2.744 0.8978C3.293 0.9095 3.6206 0.9158 3.725 0.9158C3.9869 0.8915 4.1966 1.0292 4.3532 1.3325C5.0075 2.7437 5.6483 3.8399 6.2756 4.6211C6.6941 4.9991 6.9686 4.9361 7.1 4.4321C7.1531 4.4321 7.1783 3.8147 7.1783 2.5799C7.2053 1.7987 6.8777 1.3064 6.1973 1.1057C6.3548 0.7025 6.9038 0.5 7.8461 0.5C8.0801 0.5 8.3681 0.5126 8.7101 0.5378C9.0485 0.563 9.2321 0.5765 9.2573 0.5765C10.043 0.5765 10.4363 0.878 10.4363 1.4837C10.4345 1.5584 10.4219 1.742 10.3967 2.0309C10.3697 2.3207 10.3499 2.5979 10.3373 2.8634C10.3238 3.1271 10.3175 3.4052 10.3175 3.695C10.3175 3.9848 10.3562 4.2305 10.4354 4.4321C10.5137 4.6337 10.6181 4.7597 10.7486 4.8101C10.8926 4.7093 11.0303 4.6148 11.1608 4.5266C11.2922 4.4384 11.429 4.2935 11.573 4.0919C11.717 3.8903 11.8286 3.7391 11.906 3.6383C11.9852 3.5366 12.1031 3.3476 12.2597 3.0713C12.4172 2.7932 12.509 2.6177 12.5351 2.5412C12.5603 2.4656 12.6521 2.2712 12.8087 1.9562L13.0445 1.4837L13.103 1.3694C13.2083 1.1435 13.2929 1.0112 13.3586 0.9725C13.4243 0.9347 13.5872 0.9158 13.8491 0.9158H16.2818C16.5698 0.9158 16.739 0.923 16.7921 0.9347C16.8434 0.9482 16.9226 1.004 17.027 1.1057C17.2106 1.3325 17.0468 1.8239 16.5365 2.5799C16.0262 3.3359 15.5366 3.9659 15.0659 4.4699C14.4107 5.1755 14.3207 5.7425 14.7905 6.1709V6.1718Z" fill="#828282"/>
</svg>
