<svg width="17" height="12" viewBox="0 0 17 12" fill="none" xmlns="http://www.w3.org/2000/svg">
<path fill-rule="evenodd" clip-rule="evenodd" d="M7.06262 0.609456C4.54032 0.663686 3.03914 0.77159 2.52452 0.935654C1.99271 1.1052 1.5401 1.51358 1.30219 2.03848C0.944381 2.828 0.788792 5.86895 0.986586 8.20769C1.043 8.87484 1.15364 9.55845 1.24891 9.82845C1.4589 10.4236 1.96911 10.8983 2.58604 11.0724C3.31268 11.2776 5.61874 11.3974 8.8367 11.3973C11.5237 11.3971 13.5535 11.3167 14.6 11.169C15.2163 11.082 15.5534 10.9283 15.9134 10.5702C16.1759 10.309 16.3277 10.0433 16.424 9.67612C16.7222 8.53926 16.8277 5.76252 16.6476 3.79212C16.5667 2.90712 16.4481 2.29408 16.2956 1.97207C16.0507 1.45533 15.5811 1.07359 15.0074 0.92495C14.4658 0.784607 13.2926 0.691364 11.2773 0.628476C10.4168 0.601619 7.94541 0.590475 7.06262 0.609456ZM9.30588 4.84345C10.4274 5.47424 11.3427 5.99759 11.3399 6.00646C11.3356 6.02032 7.32093 8.28086 7.25375 8.30728C7.23423 8.31495 7.22925 7.846 7.22925 6.00037C7.22925 4.53304 7.23613 3.68615 7.24801 3.69018C7.25834 3.69368 8.18437 4.21265 9.30588 4.84345Z" fill="#B8543E"/>
</svg>
