<svg width="153" height="37" viewBox="0 0 153 37" fill="none" xmlns="http://www.w3.org/2000/svg">
<path d="M17.2657 3.66947H7.42132L6.33805 9.73856H15.3272L14.6811 13.3427H5.69189L4.54211 19.6732H14.5861L13.9114 23.3427H1.35883H0L4.17152 0H8.07698H17.9214L17.2752 3.66947H17.2657ZM30.1129 13.5014C30.9491 13.9869 31.5572 14.6592 31.9468 15.4995C32.3269 16.3492 32.4314 17.2456 32.2509 18.1979C31.9753 19.7292 31.2436 20.9711 30.0464 21.9141C28.8491 22.8571 27.2337 23.3333 25.1907 23.3333H16.23L19.2137 6.66667H22.7106H26.6825C28.2694 6.66667 29.4857 7.12418 30.3504 8.02988C31.2056 8.94491 31.5287 10.0373 31.3007 11.3352C31.1676 12.1382 30.7685 12.8571 30.1129 13.5014ZM25.7038 9.66387H22.1784L21.5988 12.7638H27.0911H27.1576C27.4332 12.4276 27.6233 12.0542 27.7373 11.634C27.8228 10.9897 27.6898 10.4949 27.3287 10.1494C26.9676 9.80392 26.426 9.64519 25.7038 9.66387ZM28.6875 17.8618C28.8015 17.1242 28.6495 16.564 28.2314 16.1811C27.8133 15.789 27.1766 15.6022 26.3119 15.6022H21.0857L20.2685 20.2708H25.4947C26.3785 20.2708 27.0911 20.056 27.6518 19.6172C28.2029 19.1877 28.5545 18.5994 28.6875 17.8618ZM45.6017 6.22782C47.9772 6.22782 49.8397 7.11485 51.1795 8.87955C52.5289 10.6443 52.9945 12.7544 52.5859 15.2007C52.2058 17.5817 51.113 19.5985 49.3076 21.2698C47.5116 22.9412 45.3356 23.7722 42.7795 23.7722C40.1758 23.7722 38.3229 22.7264 37.2111 20.6349L35.5482 30H31.8518L36.0613 6.65733H39.7292L39.3206 8.86088C40.974 7.10551 43.0645 6.22782 45.6017 6.22782ZM48.9275 14.8926C49.203 13.3613 48.918 12.1008 48.1008 11.1298C47.2741 10.1494 46.0958 9.66387 44.5564 9.66387C43.0645 9.66387 41.7152 10.1494 40.5179 11.1298C39.3206 12.1102 38.5604 13.3427 38.2469 14.8273L38.2088 15.1634C37.9808 16.648 38.2849 17.8898 39.1211 18.8609C39.9573 19.8413 41.1356 20.3268 42.6464 20.3268C44.2048 20.3268 45.5732 19.8133 46.7514 18.7768C47.9297 17.7404 48.6519 16.4519 48.9275 14.8926ZM61.7746 23.7628C59.1045 23.7628 57.033 22.8665 55.5696 21.0831C54.0967 19.2904 53.6121 17.1242 54.1062 14.5658C54.5814 12.1008 55.7881 10.0934 57.7361 8.54342C59.6841 7.0028 61.9171 6.22782 64.4543 6.22782C66.9629 6.22782 68.9489 7.11485 70.3932 8.89822C71.8376 10.6723 72.3412 12.8198 71.8851 15.3315C71.429 17.8245 70.2412 19.8506 68.3027 21.4192C66.3642 22.9879 64.1882 23.7722 61.7746 23.7722V23.7628ZM62.0502 20.2614C63.523 20.2614 64.8534 19.7852 66.0412 18.8235C67.2289 17.8711 67.9701 16.564 68.2647 14.9206C68.5593 13.3427 68.2742 12.0822 67.419 11.1391C66.5638 10.1961 65.4045 9.71989 63.9601 9.71989C62.4873 9.71989 61.1665 10.1961 59.9882 11.1391C58.8099 12.0822 58.0782 13.3707 57.7836 14.986C57.5081 16.6106 57.7931 17.8898 58.6293 18.8329C59.4655 19.7759 60.6058 20.2521 62.0597 20.2521L62.0502 20.2614ZM86.7087 6.65733L86.1006 10.056H81.2449L78.8693 23.324H75.2014L77.577 10.056H72.6928L73.3009 6.65733H81.853H86.7087ZM94.4341 6.22782C96.3156 6.22782 97.8074 6.8254 98.9287 8.02988C100.05 9.23436 100.44 10.775 100.097 12.6611L98.197 23.3333H94.6051L94.8427 21.9981C93.5979 23.1746 91.9825 23.7628 89.987 23.7628C88.3336 23.7628 86.9843 23.2586 85.9295 22.2502C84.8748 21.2418 84.5137 19.888 84.8272 18.1979C85.0268 17.0682 85.4924 16.1158 86.2146 15.3501C86.9368 14.5845 87.754 14.0336 88.6757 13.6975C89.5879 13.3613 90.5667 13.1933 91.6119 13.1933C93.5979 13.1933 95.0803 13.8189 96.059 15.0607L96.4676 12.8291C96.8287 10.6723 95.945 9.59851 93.8165 9.59851C92.9137 9.59851 92.1345 9.81326 91.4789 10.2521C90.8232 10.6816 90.4241 11.2979 90.2911 12.1008H86.6992C87.0128 10.2801 87.8775 8.8422 89.2743 7.79645C90.6807 6.7507 92.3911 6.22782 94.4341 6.22782ZM91.3839 20.9617C92.4671 20.9617 93.3888 20.7283 94.149 20.2614C94.9092 19.7946 95.3463 19.2063 95.4508 18.4967C95.6124 17.7404 95.3748 17.1335 94.7572 16.676C94.1395 16.2185 93.3033 15.9944 92.2676 15.9944C91.1843 15.9944 90.3101 16.2091 89.6544 16.648C88.9988 17.0775 88.5997 17.6657 88.4666 18.394C88.3526 19.1503 88.5427 19.7666 89.0463 20.2428C89.5404 20.719 90.3291 20.9617 91.3839 20.9617ZM106.74 4.32306L107.281 1.18581H116.784L116.242 4.32306H106.74ZM115.292 6.65733H118.104L115.121 23.324H111.529L113.391 12.9225L103.86 23.324H101.048L104.031 6.65733H107.623L105.761 17.0588L115.292 6.65733ZM139 6.65733L136.016 23.324H132.453L134.458 12.1195L128.861 20.1214H126.685L123.939 12.1195L121.934 23.324H118.37L121.354 6.65733H124.918H125.051L128.272 16.0224L134.819 6.65733H138.991H139Z" fill="#D74E2E"/>
<path d="M47.8728 30.1876L46.7463 36.842H45.9037L46.8883 31.0367H44.2565L43.7548 34.0085C43.556 35.1735 43.2341 35.9436 42.7797 36.3385C42.3253 36.7334 41.7289 36.9013 41 36.842L41.142 36.0127C41.6153 36.0621 42.0035 35.9436 42.2875 35.6573C42.5715 35.3611 42.7797 34.8181 42.9217 34.0085L43.556 30.1876H44.3985H47.8728ZM53.3729 30.1876H54.0924L52.9659 36.842H52.1233L52.9659 31.8463L48.7059 36.842H47.9864L49.1129 30.1876H49.9555L49.1129 35.1834L53.3729 30.1876ZM58.7973 31.9845C58.7216 32.4288 58.4754 32.8039 58.0684 33.1199C58.6364 33.5444 58.8636 34.1467 58.7311 34.9168C58.6174 35.5289 58.324 36.0324 57.8507 36.4175C57.3773 36.8124 56.7525 37 55.9857 37C55.2568 37 54.6983 36.7927 54.3196 36.3681C53.9409 35.9436 53.7989 35.4302 53.9031 34.8279H54.7456C54.6793 35.2327 54.7645 35.5585 55.0107 35.7955C55.2568 36.0324 55.6165 36.1509 56.0993 36.1509C56.5632 36.1509 56.9608 36.0324 57.2921 35.7955C57.6235 35.5585 57.8128 35.2426 57.8885 34.8279C57.9548 34.4231 57.8696 34.0973 57.6234 33.8604C57.3773 33.6234 57.0176 33.5049 56.5537 33.5049H56.1088L56.2508 32.7052H56.6957C56.9418 32.7052 57.1596 32.7348 57.3489 32.7842C57.7086 32.5275 57.9074 32.2412 57.9642 31.9154C58.021 31.5698 57.9548 31.3032 57.756 31.1255C57.5572 30.9478 57.2921 30.859 56.9418 30.859C56.5821 30.859 56.2792 30.9478 56.0331 31.1354C55.7869 31.3131 55.626 31.5896 55.5503 31.9647H54.7077C54.8119 31.3822 55.0675 30.9083 55.4935 30.543C55.9195 30.1876 56.4401 30 57.0838 30C57.6897 30 58.1536 30.1975 58.466 30.5825C58.7878 30.9676 58.9014 31.4316 58.8068 31.9549L58.7973 31.9845ZM64.4016 30.1876H65.121L63.9945 36.842H63.152L63.9945 31.8463L59.7345 36.842H59.015L60.1416 30.1876H60.9841L60.1416 35.1834L64.4016 30.1876ZM70.4886 30.1876H71.3312L70.2046 36.842H69.3621L69.8449 33.9394H66.5505L66.0677 36.842H65.2252L66.3517 30.1876H67.1942L66.7114 33.0903H70.0058L70.4886 30.1876ZM76.3958 30.1876L76.2538 31.0367H73.2718L72.2873 36.842H71.4448L72.5713 30.1876H76.3958ZM78.4501 37C77.5508 37 76.8029 36.6742 76.2254 36.0324C75.6385 35.3808 75.4397 34.5219 75.6196 33.4457C75.7994 32.3695 76.2728 31.5303 77.0585 30.9281C77.8348 30.3258 78.6773 30.0197 79.5766 30.0197C80.457 30.0197 81.1765 30.3456 81.7445 30.9972C82.3125 31.6488 82.5018 32.5078 82.322 33.5642C82.1989 34.3047 81.9338 34.9464 81.5173 35.4796C81.1008 36.0127 80.6274 36.3977 80.1068 36.6347C79.5861 36.8717 79.0276 36.9901 78.4501 36.9901V37ZM78.5258 36.1509C79.2074 36.1509 79.8322 35.914 80.4097 35.4499C80.9872 34.976 81.3469 34.3244 81.4794 33.4753C81.612 32.6657 81.47 32.0338 81.0534 31.5698C80.6369 31.1058 80.0878 30.8787 79.4157 30.8787C78.7341 30.8886 78.1093 31.1255 77.5318 31.5797C76.9544 32.0437 76.5946 32.6855 76.4526 33.5049C76.3201 34.3441 76.4621 34.9859 76.8786 35.4598C77.2952 35.9238 77.8442 36.1509 78.5164 36.141L78.5258 36.1509ZM87.6801 32.8533C88.0019 33.0606 88.2386 33.3272 88.3806 33.6728C88.5226 34.0183 88.5605 34.3738 88.4847 34.7588C88.3806 35.3709 88.1061 35.8745 87.6517 36.2595C87.1973 36.6544 86.5819 36.842 85.8246 36.842H82.6344L83.2213 33.3568L83.2592 33.1594L83.6189 31.0169L83.7609 30.1876H86.3169C86.9133 30.1876 87.3677 30.3653 87.699 30.7306C88.0209 31.086 88.1439 31.5402 88.0587 32.0635C88.0114 32.3498 87.8883 32.6065 87.699 32.8533H87.6801ZM86.1654 31.0169H84.452L84.1964 32.5571H86.5441C86.6387 32.5571 86.7618 32.567 86.9133 32.5867C87.0647 32.4189 87.1594 32.2313 87.1973 32.0141C87.2446 31.6685 87.1783 31.4118 86.9795 31.244C86.7807 31.0762 86.5157 30.9972 86.1654 31.0169ZM87.6422 34.6502C87.7085 34.2454 87.6328 33.9196 87.4056 33.7024C87.1784 33.4753 86.847 33.3667 86.4021 33.3667H84.0544L83.6094 36.0324H85.9572C86.421 36.0324 86.7997 35.9041 87.0932 35.6573C87.3866 35.4104 87.576 35.0748 87.6422 34.6601V34.6502ZM92.2241 30.0296C92.9246 30.0296 93.4642 30.2666 93.8618 30.7306C94.2499 31.1946 94.3825 31.7969 94.2594 32.5176L93.5305 36.842H92.6879L92.8015 36.1509C92.3093 36.7236 91.6277 37 90.7757 37C90.1509 37 89.6397 36.7927 89.2231 36.3879C88.8066 35.9831 88.6552 35.4401 88.7593 34.7687C88.8729 34.0973 89.1758 33.5839 89.687 33.2384C90.1982 32.8928 90.7757 32.7151 91.4099 32.7151C91.7981 32.7151 92.1578 32.7941 92.4797 32.9619C92.8015 33.1298 93.0477 33.3568 93.2181 33.6629L93.4074 32.5176C93.5021 31.945 93.4169 31.5303 93.1613 31.2736C92.9057 31.0169 92.5459 30.8787 92.0821 30.8787C91.6371 30.8787 91.249 30.9873 90.9082 31.2144C90.5674 31.4415 90.3591 31.7673 90.2929 32.2017H89.4503C89.5639 31.5501 89.8669 31.0268 90.3781 30.622C90.8893 30.2172 91.4951 30.0197 92.2241 30.0197V30.0296ZM91.0218 36.1805C91.533 36.1805 91.9779 36.0522 92.3471 35.8054C92.7163 35.5585 92.9435 35.2426 93.0098 34.8575C93.0761 34.4626 92.9625 34.1467 92.6595 33.9097C92.3566 33.6629 91.959 33.5444 91.4667 33.5444C90.9271 33.5444 90.5011 33.6629 90.1793 33.8999C89.8574 34.1368 89.6586 34.4429 89.5923 34.8378C89.5261 35.2327 89.6113 35.5487 89.8669 35.8054C90.113 36.0621 90.5011 36.1805 91.0218 36.1805ZM100.328 30.1876L99.201 36.842H98.3585L98.7939 34.2849H97.6579L95.083 36.842H93.9754L96.645 34.2355C96.1811 34.1171 95.8119 33.8702 95.5374 33.4951C95.2723 33.1199 95.1777 32.6756 95.2629 32.1721C95.367 31.5797 95.651 31.0959 96.1149 30.7306C96.5787 30.3653 97.1278 30.1876 97.7337 30.1876H100.328ZM97.1846 33.4654H98.9359L99.343 31.0465H97.5917C97.2319 31.0465 96.9101 31.1551 96.6261 31.3822C96.3326 31.5994 96.1622 31.8956 96.1054 32.2609C96.0486 32.6262 96.1243 32.9126 96.3326 33.1396C96.5409 33.3568 96.8343 33.4753 97.1846 33.4753V33.4654ZM109.141 30.1876L105.288 33.3865L108.147 36.8519H107.125L104.398 33.5346L103.84 36.8519H102.997L104.124 30.1975H104.966L104.483 33.1001L107.977 30.1975H109.15L109.141 30.1876ZM111.138 37C110.239 37 109.491 36.6742 108.914 36.0324C108.327 35.3808 108.128 34.5219 108.308 33.4457C108.488 32.3695 108.961 31.5303 109.747 30.9281C110.523 30.3258 111.366 30.0197 112.265 30.0197C113.145 30.0197 113.865 30.3456 114.433 30.9972C115.001 31.6488 115.19 32.5078 115.01 33.5642C114.887 34.3047 114.622 34.9464 114.206 35.4796C113.789 36.0127 113.316 36.3977 112.795 36.6347C112.274 36.8717 111.716 36.9901 111.138 36.9901V37ZM111.214 36.1509C111.896 36.1509 112.521 35.914 113.098 35.4499C113.676 34.976 114.035 34.3244 114.168 33.4753C114.3 32.6657 114.158 32.0338 113.742 31.5698C113.325 31.1058 112.776 30.8787 112.104 30.8787C111.422 30.8886 110.798 31.1255 110.22 31.5797C109.643 32.0437 109.283 32.6855 109.141 33.5049C109.008 34.3441 109.15 34.9859 109.567 35.4598C109.984 35.9238 110.533 36.1509 111.205 36.141L111.214 36.1509ZM122.688 30.1876L121.561 36.842H120.719L121.599 31.6488L118.996 35.4993H118.333L117.027 31.6488L116.146 36.842H115.304L116.43 30.1876H117.273H117.32L118.759 34.4626L121.628 30.1876H122.678H122.688ZM128.907 30.1876L127.781 36.842H126.938L127.923 31.0367H124.628L123.644 36.842H122.801L123.928 30.1876H124.77H128.907ZM132.457 30.0296C133.158 30.0296 133.697 30.2666 134.095 30.7306C134.483 31.1946 134.616 31.7969 134.493 32.5176L133.764 36.842H132.921L133.035 36.1509C132.543 36.7236 131.861 37 131.009 37C130.384 37 129.873 36.7927 129.456 36.3879C129.04 35.9831 128.888 35.4401 128.993 34.7687C129.106 34.0973 129.409 33.5839 129.92 33.2384C130.432 32.8928 131.009 32.7151 131.643 32.7151C132.031 32.7151 132.391 32.7941 132.713 32.9619C133.035 33.1298 133.281 33.3568 133.451 33.6629L133.641 32.5176C133.735 31.945 133.65 31.5303 133.395 31.2736C133.139 31.0169 132.779 30.8787 132.315 30.8787C131.87 30.8787 131.482 30.9873 131.141 31.2144C130.801 31.4415 130.592 31.7673 130.526 32.2017H129.684C129.797 31.5501 130.1 31.0268 130.611 30.622C131.123 30.2172 131.728 30.0197 132.457 30.0197V30.0296ZM131.255 36.1805C131.766 36.1805 132.211 36.0522 132.58 35.8054C132.95 35.5585 133.177 35.2426 133.243 34.8575C133.309 34.4626 133.196 34.1467 132.893 33.9097C132.59 33.6629 132.192 33.5444 131.7 33.5444C131.16 33.5444 130.734 33.6629 130.413 33.8999C130.091 34.1368 129.892 34.4429 129.826 34.8378C129.759 35.2327 129.845 35.5487 130.1 35.8054C130.346 36.0621 130.734 36.1805 131.255 36.1805ZM140.106 30.1876H140.949L139.822 36.842H138.98L139.463 33.9394H136.168L135.685 36.842H134.843L135.969 30.1876H136.812L136.329 33.0903H139.624L140.106 30.1876ZM146.449 30.1876H147.169L146.042 36.842H145.199L146.042 31.8463L141.782 36.842H141.063L142.189 30.1876H143.032L142.189 35.1834L146.449 30.1876ZM153 30.1876L151.873 36.842H151.031L151.466 34.2849H150.33L147.755 36.842H146.648L149.317 34.2355C148.854 34.1171 148.484 33.8702 148.21 33.4951C147.945 33.1199 147.85 32.6756 147.935 32.1721C148.039 31.5797 148.323 31.0959 148.787 30.7306C149.251 30.3653 149.8 30.1876 150.406 30.1876H153ZM149.857 33.4654H151.608L152.015 31.0465H150.264C149.904 31.0465 149.583 31.1551 149.299 31.3822C149.005 31.5994 148.835 31.8956 148.778 32.2609C148.721 32.6262 148.797 32.9126 149.005 33.1396C149.213 33.3568 149.507 33.4753 149.857 33.4753V33.4654Z" fill="#333333"/>
</svg>
