<svg width="30" height="39" viewBox="0 0 30 39" fill="none" xmlns="http://www.w3.org/2000/svg">
<path d="M29.6333 8.12467L29.1193 7.61067L22.3893 0.880667L21.8753 0.366667C21.6427 0.134 21.32 0 20.99 0H1.642C0.851334 0 0 0.610667 0 1.95067V26V37.0247V37.3333C0 37.8913 0.561334 38.4353 1.22533 38.6067C1.25867 38.6153 1.29067 38.628 1.32533 38.6347C1.42933 38.6553 1.53533 38.6667 1.642 38.6667H28.358C28.4647 38.6667 28.5707 38.6553 28.6747 38.6347C28.7093 38.628 28.7413 38.6153 28.7747 38.6067C29.4387 38.4353 30 37.8913 30 37.3333V37.0247V26V9.31867C30 8.80733 29.9387 8.43 29.6333 8.12467ZM27.6233 8H22V2.37667L27.6233 8ZM1.642 37.3333C1.59467 37.3333 1.552 37.316 1.51 37.3007C1.406 37.2513 1.33333 37.1473 1.33333 37.0247V27.3333H28.6667V37.0247C28.6667 37.1473 28.594 37.2507 28.49 37.3007C28.448 37.316 28.4053 37.3333 28.358 37.3333H1.642ZM1.33333 26V1.95067C1.33333 1.806 1.35533 1.33333 1.642 1.33333H20.7053C20.6833 1.41733 20.6667 1.504 20.6667 1.594V9.33333H28.406C28.496 9.33333 28.582 9.31667 28.666 9.29467C28.666 9.30467 28.6667 9.30867 28.6667 9.31867V26H1.33333Z" fill="#B8543E"/>
<path d="M10.3604 29.8289C10.1384 29.6469 9.88777 29.5096 9.60843 29.4189C9.3291 29.3276 9.04643 29.2822 8.7611 29.2822H6.8291V35.9996H7.9231V33.5749H8.73443C9.08643 33.5749 9.4091 33.5236 9.70043 33.4202C9.99177 33.3169 10.2411 33.1709 10.4478 32.9829C10.6544 32.7949 10.8151 32.5622 10.9311 32.2856C11.0464 32.0089 11.1044 31.7009 11.1044 31.3602C11.1044 31.0382 11.0358 30.7482 10.8991 30.4896C10.7624 30.2309 10.5824 30.0116 10.3604 29.8289ZM9.94577 32.0482C9.87843 32.2336 9.7911 32.3776 9.68177 32.4809C9.57243 32.5842 9.45243 32.6589 9.32177 32.7042C9.1911 32.7496 9.05843 32.7729 8.9251 32.7729H7.92243V30.1116H8.74243C9.02177 30.1116 9.24643 30.1556 9.4171 30.2436C9.5871 30.3316 9.7191 30.4409 9.81377 30.5716C9.90777 30.7022 9.96977 30.8389 10.0004 30.9816C10.0304 31.1242 10.0458 31.2502 10.0458 31.3596C10.0458 31.6336 10.0124 31.8629 9.94577 32.0482Z" fill="#B8543E"/>
<path d="M16.9687 30.2662C16.686 29.9689 16.3307 29.7296 15.902 29.5509C15.4733 29.3722 14.9767 29.2822 14.412 29.2822H12.3887V35.9996H14.9313C15.016 35.9996 15.1467 35.9889 15.3233 35.9676C15.4993 35.9462 15.694 35.8982 15.9067 35.8216C16.1193 35.7456 16.3393 35.6316 16.5673 35.4796C16.7953 35.3276 17 35.1196 17.1827 34.8549C17.3653 34.5902 17.5153 34.2622 17.634 33.8702C17.7527 33.4782 17.812 33.0056 17.812 32.4529C17.812 32.0516 17.742 31.6609 17.6027 31.2816C17.462 30.9029 17.2513 30.5642 16.9687 30.2662ZM16.1713 34.4862C15.8433 34.9602 15.3087 35.1969 14.5673 35.1969H13.4827V30.1109H14.1207C14.6433 30.1109 15.0687 30.1796 15.3967 30.3162C15.7247 30.4529 15.9847 30.6322 16.176 30.8542C16.3673 31.0762 16.496 31.3236 16.5633 31.5969C16.63 31.8702 16.6633 32.1469 16.6633 32.4262C16.6633 33.3256 16.4993 34.0129 16.1713 34.4862Z" fill="#B8543E"/>
<path d="M19.3984 35.9996H20.5104V32.9736H23.3178V32.2262H20.5104V30.1116H23.5998V29.2822H19.3984V35.9996Z" fill="#B8543E"/>
<path d="M21.2852 15.3072C20.6725 15.3072 19.9205 15.3872 19.0465 15.5458C17.8265 14.2512 16.5532 12.3605 15.6545 10.5045C16.5458 6.75184 16.0998 6.22051 15.9032 5.96984C15.6938 5.70317 15.3985 5.27051 15.0625 5.27051C14.9218 5.27051 14.5378 5.33451 14.3852 5.38517C14.0012 5.51317 13.7945 5.80917 13.6292 6.19517C13.1578 7.29717 13.8045 9.17584 14.4698 10.6238C13.9012 12.8858 12.9472 15.5932 11.9445 17.7905C9.41783 18.9478 8.07583 20.0845 7.95449 21.1692C7.91049 21.5638 8.00383 22.1432 8.69783 22.6638C8.88783 22.8058 9.11049 22.8812 9.34249 22.8812C9.92583 22.8812 10.5152 22.4345 11.1972 21.4765C11.6945 20.7778 12.2285 19.8252 12.7858 18.6425C14.5712 17.8618 16.7798 17.1565 18.6712 16.7612C19.7245 17.7725 20.6678 18.2845 21.4785 18.2845C22.0758 18.2845 22.5878 18.0098 22.9585 17.4905C23.3445 16.9498 23.4325 16.4658 23.2185 16.0505C22.9618 15.5512 22.3292 15.3072 21.2852 15.3072ZM9.35716 21.7558C9.04516 21.5165 9.06316 21.3552 9.06983 21.2945C9.11116 20.9238 9.69183 20.2658 11.1165 19.4652C10.0365 21.4598 9.45649 21.7245 9.35716 21.7558ZM14.8238 6.47451C14.8525 6.46517 15.5205 7.20851 14.8878 8.61851C13.9372 7.64584 14.7585 6.49651 14.8238 6.47451ZM13.4458 17.1585C14.1225 15.5458 14.7518 13.7652 15.2285 12.1158C15.9772 13.4612 16.8765 14.7665 17.7765 15.8118C16.3538 16.1458 14.8392 16.6172 13.4458 17.1585ZM22.0465 16.8392C21.8412 17.1265 21.3958 17.1332 21.2398 17.1332C20.8845 17.1332 20.7518 16.9218 20.2085 16.5038C20.6565 16.4465 21.0792 16.4318 21.4158 16.4318C22.0085 16.4318 22.1172 16.5192 22.1992 16.5632C22.1845 16.6105 22.1458 16.6998 22.0465 16.8392Z" fill="#B8543E"/>
</svg>
